<svg width="186" height="197" viewBox="0 0 186 197" fill="none" xmlns="http://www.w3.org/2000/svg">
<path d="M114.291 93.8504C116.186 92.9876 117.94 91.8438 119.494 90.4577C119.656 90.3265 119.862 90.2626 120.069 90.2792C120.277 90.2958 120.47 90.3916 120.608 90.5468C120.747 90.7019 120.82 90.9046 120.814 91.1125C120.807 91.3205 120.72 91.5179 120.572 91.6637C118.897 93.1522 117.007 94.3807 114.967 95.308C114.87 95.3687 114.761 95.4081 114.647 95.4234C114.533 95.4388 114.418 95.4298 114.308 95.3971C114.198 95.3643 114.096 95.3085 114.009 95.2335C113.923 95.1585 113.853 95.0659 113.804 94.9618C113.756 94.8577 113.731 94.7445 113.729 94.6298C113.728 94.5151 113.751 94.4014 113.797 94.2963C113.843 94.1912 113.911 94.0971 113.996 94.0202C114.082 93.9434 114.182 93.8855 114.291 93.8504Z" fill="#1F6FA9"/>
<path d="M89.5729 171.22C91.426 172.259 93.3244 173.249 95.2681 174.192C95.4622 174.285 95.6111 174.452 95.6822 174.656C95.7532 174.859 95.7405 175.082 95.6469 175.277C95.5532 175.471 95.3863 175.62 95.1829 175.691C94.9794 175.762 94.7561 175.749 94.5619 175.655C92.5893 174.698 90.662 173.693 88.7798 172.639C88.686 172.587 88.6034 172.517 88.5367 172.432C88.47 172.348 88.4206 172.252 88.3913 172.148C88.3619 172.045 88.3532 171.937 88.3656 171.83C88.378 171.723 88.4114 171.62 88.4637 171.526C88.516 171.432 88.5863 171.35 88.6706 171.283C88.7548 171.216 88.8514 171.167 88.9547 171.138C89.0581 171.108 89.1662 171.1 89.273 171.112C89.3797 171.124 89.4829 171.158 89.5768 171.21L89.5729 171.22Z" fill="#1F6FA9"/>
<path d="M78.7753 164.267C80.4907 165.526 82.2556 166.741 84.0703 167.912C84.1594 167.969 84.2363 168.043 84.2966 168.13C84.357 168.217 84.3995 168.315 84.4219 168.418C84.4443 168.522 84.4461 168.629 84.4271 168.733C84.4081 168.837 84.3688 168.936 84.3113 169.025C84.2539 169.115 84.1793 169.192 84.0919 169.253C84.0044 169.314 83.9059 169.357 83.8018 169.38C83.6977 169.402 83.5902 169.404 83.4853 169.385C83.3805 169.366 83.2805 169.327 83.1909 169.269C81.3338 168.079 79.5428 166.846 77.8179 165.571C77.6519 165.442 77.5429 165.253 77.514 165.044C77.4852 164.836 77.5387 164.624 77.6633 164.454C77.7878 164.285 77.9737 164.17 78.1813 164.135C78.3889 164.1 78.602 164.147 78.7753 164.267Z" fill="#1F6FA9"/>
<path d="M102.013 96.1142C104.137 96.0746 106.258 95.9163 108.365 95.6402C108.572 95.6173 108.779 95.6749 108.945 95.8011C109.11 95.9274 109.221 96.1124 109.253 96.318C109.286 96.5235 109.238 96.7337 109.12 96.905C109.002 97.0762 108.822 97.1953 108.618 97.2375L108.593 97.2279C106.426 97.5145 104.245 97.6748 102.06 97.708C101.95 97.7172 101.838 97.7037 101.733 97.6682C101.628 97.6327 101.532 97.576 101.45 97.5016C101.368 97.4273 101.301 97.3369 101.256 97.236C101.21 97.135 101.185 97.0258 101.183 96.915C101.182 96.8042 101.202 96.6941 101.245 96.5917C101.287 96.4893 101.35 96.3967 101.43 96.3196C101.509 96.2425 101.604 96.1826 101.708 96.1436C101.811 96.1046 101.922 96.0873 102.033 96.0927L102.013 96.1142Z" fill="#1F6FA9"/>
<path d="M89.3006 94.9743C91.3913 95.386 93.502 95.6887 95.6242 95.8811C95.7323 95.8879 95.8379 95.9164 95.9348 95.9648C96.0317 96.0133 96.1179 96.0806 96.1883 96.163C96.2587 96.2453 96.3118 96.341 96.3446 96.4442C96.3773 96.5475 96.389 96.6563 96.379 96.7641C96.3689 96.872 96.3373 96.9768 96.286 97.0722C96.2348 97.1676 96.1649 97.2518 96.0805 97.3197C95.9961 97.3876 95.8989 97.4378 95.7947 97.4675C95.6905 97.4972 95.5815 97.5056 95.4739 97.4924C93.2965 97.2954 91.1308 96.9853 88.9856 96.5635C88.7719 96.5213 88.5837 96.3961 88.4624 96.2152C88.3411 96.0343 88.2967 95.8127 88.3388 95.599C88.3809 95.3853 88.5062 95.1971 88.687 95.0758C88.8679 94.9545 89.0896 94.91 89.3032 94.9522L89.3006 94.9743Z" fill="#1F6FA9"/>
<path d="M101.13 176.817C102.068 177.202 103.011 177.578 103.97 177.942C105.014 178.338 106.069 178.739 107.142 179.089C107.243 179.123 107.336 179.177 107.416 179.248C107.495 179.318 107.56 179.403 107.607 179.499C107.654 179.594 107.682 179.698 107.688 179.804C107.695 179.911 107.681 180.017 107.646 180.118C107.612 180.218 107.558 180.311 107.488 180.391C107.417 180.471 107.332 180.536 107.236 180.583C107.141 180.63 107.037 180.657 106.931 180.664C106.825 180.67 106.718 180.656 106.618 180.622C105.531 180.251 104.456 179.862 103.395 179.455C102.421 179.085 101.458 178.719 100.514 178.315C100.316 178.233 100.157 178.076 100.075 177.878C99.9919 177.68 99.9912 177.457 100.073 177.258C100.154 177.059 100.312 176.901 100.51 176.818C100.708 176.736 100.931 176.735 101.13 176.817Z" fill="#1F6FA9"/>
<path d="M103.867 46.8228C101.827 46.2327 99.7487 45.7828 97.6471 45.4762C97.4341 45.4443 97.2425 45.3291 97.1145 45.156C96.9865 44.9828 96.9325 44.7659 96.9644 44.553C96.9962 44.34 97.1114 44.1484 97.2846 44.0204C97.4577 43.8924 97.6747 43.8383 97.8876 43.8702C100.06 44.1909 102.209 44.658 104.319 45.2683C104.526 45.3285 104.7 45.4684 104.804 45.6572C104.908 45.846 104.932 46.0682 104.872 46.275C104.812 46.4818 104.672 46.6563 104.483 46.7599C104.294 46.8636 104.072 46.888 103.865 46.8279L103.867 46.8228Z" fill="#1F6FA9"/>
<path d="M115.204 52.3128C113.501 51.0738 111.685 49.9975 109.781 49.098C109.586 49.005 109.437 48.8387 109.365 48.6355C109.293 48.4323 109.305 48.209 109.398 48.0146C109.491 47.8203 109.658 47.6708 109.861 47.5991C110.064 47.5274 110.287 47.5394 110.482 47.6323C112.479 48.5797 114.38 49.7158 116.161 51.0252C116.334 51.1528 116.449 51.3438 116.481 51.5562C116.513 51.7687 116.459 51.9851 116.331 52.1578C116.204 52.3306 116.013 52.4456 115.8 52.4775C115.588 52.5094 115.371 52.4556 115.199 52.328L115.204 52.3128Z" fill="#1F6FA9"/>
<path d="M68.9086 156.044C70.455 157.505 72.0572 158.926 73.7151 160.307C73.8797 160.446 73.9823 160.644 74.0004 160.859C74.0184 161.074 73.9504 161.287 73.8113 161.451C73.6723 161.616 73.4735 161.719 73.2588 161.737C73.044 161.755 72.8309 161.687 72.6663 161.548C70.982 160.146 69.3559 158.697 67.7824 157.216C67.7023 157.144 67.6375 157.056 67.5917 156.958C67.5459 156.861 67.52 156.755 67.5157 156.647C67.5114 156.539 67.5286 156.432 67.5664 156.331C67.6042 156.23 67.6619 156.137 67.7359 156.059C67.8099 155.981 67.8988 155.918 67.9975 155.874C68.0962 155.831 68.2025 155.807 68.3104 155.805C68.4182 155.803 68.5253 155.823 68.6254 155.863C68.7256 155.903 68.8167 155.963 68.8934 156.039L68.9086 156.044Z" fill="#1F6FA9"/>
<path d="M54.9386 54.5166C53.256 55.7977 51.6823 57.2159 50.2337 58.7566C50.0861 58.9134 49.8822 59.0051 49.667 59.0116C49.4518 59.0181 49.2428 58.9388 49.0861 58.7912C48.9293 58.6436 48.8376 58.4398 48.8311 58.2246C48.8246 58.0094 48.9039 57.8004 49.0515 57.6436C50.5647 56.0397 52.207 54.5628 53.9619 53.2276C54.1335 53.11 54.3438 53.0629 54.5491 53.0962C54.7545 53.1295 54.9392 53.2406 55.0648 53.4064C55.1905 53.5722 55.2475 53.78 55.224 53.9868C55.2005 54.1935 55.0983 54.3833 54.9386 54.5166Z" fill="#1F6FA9"/>
<path d="M49.3527 76.6364C49.2219 76.805 49.0298 76.9152 48.8182 76.9429C48.6065 76.9706 48.3925 76.9137 48.2226 76.7844C46.5033 75.4847 44.7959 74.1434 43.1005 72.7604C42.9352 72.6211 42.8321 72.4218 42.8137 72.2064C42.7954 71.991 42.8634 71.7772 43.0027 71.6119C43.142 71.4467 43.3413 71.3435 43.5567 71.3252C43.7721 71.3069 43.9859 71.3748 44.1512 71.5141C45.825 72.8831 47.5172 74.2188 49.2186 75.5001C49.3869 75.633 49.4956 75.8274 49.5208 76.0404C49.5459 76.2535 49.4855 76.4678 49.3527 76.6364Z" fill="#1F6FA9"/>
<path d="M78.525 45.6603C76.722 45.9184 74.8679 46.2398 72.9629 46.6246L72.2029 46.7862C71.9964 46.8242 71.7832 46.7804 71.6084 46.6642C71.4335 46.548 71.3106 46.3684 71.2657 46.1633C71.2207 45.9582 71.2572 45.7437 71.3675 45.565C71.4777 45.3863 71.653 45.2574 71.8565 45.2056L72.6354 45.0396C74.5751 44.6448 76.4601 44.3178 78.2905 44.0586C78.3987 44.0363 78.5102 44.0364 78.6184 44.0589C78.7265 44.0813 78.8289 44.1257 78.9193 44.1892C79.0097 44.2527 79.0861 44.334 79.1438 44.4282C79.2016 44.5223 79.2395 44.6272 79.2552 44.7366C79.2708 44.8459 79.264 44.9573 79.235 45.0639C79.206 45.1705 79.1556 45.27 79.0867 45.3563C79.0178 45.4427 78.932 45.514 78.8346 45.5659C78.7371 45.6178 78.63 45.6494 78.5199 45.6584L78.525 45.6603Z" fill="#1F6FA9"/>
<path d="M46.2901 63.713C45.113 65.4727 44.0733 67.3206 43.1803 69.2402C43.1353 69.3368 43.0716 69.4236 42.9931 69.4956C42.9145 69.5676 42.8225 69.6235 42.7223 69.6599C42.6222 69.6964 42.5158 69.7128 42.4093 69.7081C42.3028 69.7035 42.1983 69.678 42.1017 69.6329C42.0051 69.5879 41.9183 69.5242 41.8462 69.4456C41.7742 69.367 41.7184 69.275 41.6819 69.1749C41.6455 69.0747 41.6291 68.9683 41.6337 68.8619C41.6383 68.7554 41.6639 68.6508 41.7089 68.5542C42.6363 66.5581 43.7173 64.6371 44.9422 62.8084C44.9996 62.7161 45.0751 62.6363 45.164 62.5738C45.253 62.5112 45.3536 62.4673 45.4599 62.4445C45.5661 62.4217 45.6759 62.4206 45.7827 62.4411C45.8895 62.4617 45.991 62.5035 46.0812 62.5642C46.1714 62.6248 46.2485 62.703 46.3079 62.7941C46.3672 62.8852 46.4076 62.9874 46.4266 63.0944C46.4456 63.2014 46.4429 63.3112 46.4186 63.4171C46.3943 63.5231 46.3489 63.6231 46.2851 63.7111L46.2901 63.713Z" fill="#1F6FA9"/>
<path d="M60.1307 146.672C61.4844 148.306 62.9001 149.913 64.3778 151.495C64.5121 151.653 64.5803 151.858 64.5682 152.065C64.5561 152.273 64.4647 152.467 64.3128 152.609C64.161 152.751 63.9603 152.829 63.7524 152.827C63.5446 152.826 63.3455 152.744 63.1963 152.599C61.6943 151.001 60.2574 149.368 58.8858 147.7C58.8087 147.619 58.749 147.524 58.7105 147.419C58.6719 147.315 58.6554 147.204 58.6618 147.092C58.6683 146.981 58.6976 146.873 58.7479 146.773C58.7983 146.674 58.8686 146.586 58.9545 146.515C59.0404 146.444 59.14 146.392 59.247 146.361C59.3541 146.33 59.4663 146.322 59.5767 146.337C59.6871 146.352 59.7933 146.389 59.8887 146.446C59.984 146.504 60.0664 146.581 60.1307 146.672Z" fill="#1F6FA9"/>
<path d="M71.4869 89.9974C71.4423 90.0935 71.3792 90.1799 71.3011 90.2516C71.2231 90.3232 71.1316 90.3788 71.032 90.415C70.9324 90.4512 70.8266 90.4674 70.7208 90.4625C70.6149 90.4577 70.511 90.4321 70.4151 90.387C68.4507 89.4791 66.515 88.4956 64.6024 87.4515C64.508 87.4005 64.4246 87.3315 64.357 87.2483C64.2893 87.165 64.2387 87.0693 64.2081 86.9665C64.1774 86.8638 64.1673 86.7559 64.1784 86.6492C64.1894 86.5426 64.2213 86.4391 64.2723 86.3448C64.3233 86.2504 64.3924 86.167 64.4756 86.0994C64.5588 86.0317 64.6545 85.9811 64.7573 85.9505C64.8601 85.9198 64.9679 85.9097 65.0746 85.9207C65.1813 85.9317 65.2848 85.9636 65.3791 86.0146C67.2937 87.0537 69.2057 88.0185 71.115 88.9093C71.2112 88.956 71.2972 89.0212 71.368 89.1013C71.4388 89.1814 71.4931 89.2747 71.5277 89.3759C71.5622 89.477 71.5764 89.584 71.5694 89.6907C71.5624 89.7973 71.5344 89.9016 71.4869 89.9974Z" fill="#1F6FA9"/>
<path d="M123.453 61.6926C122.45 59.8481 121.243 58.1227 119.853 56.5494C119.777 56.4706 119.718 56.3773 119.679 56.2751C119.64 56.1728 119.623 56.0638 119.627 55.9546C119.632 55.8454 119.658 55.7382 119.706 55.6395C119.753 55.5409 119.819 55.4528 119.901 55.3806C119.983 55.3084 120.079 55.2535 120.183 55.2193C120.287 55.1851 120.397 55.1723 120.505 55.1817C120.614 55.191 120.72 55.2224 120.817 55.2738C120.913 55.3252 120.998 55.3955 121.067 55.4807C122.539 57.1443 123.817 58.9702 124.877 60.9229C124.978 61.1144 124.999 61.3382 124.935 61.5451C124.871 61.7519 124.727 61.9249 124.536 62.0259C124.344 62.127 124.12 62.1478 123.913 62.0839C123.707 62.0199 123.534 61.8764 123.433 61.6849L123.453 61.6926Z" fill="#1F6FA9"/>
<path d="M123.745 86.7783C123.561 86.6689 123.427 86.491 123.374 86.2836C123.321 86.0762 123.352 85.8562 123.461 85.6717C124.111 84.5847 124.663 83.4419 125.11 82.2569C125.402 81.4862 125.65 80.6998 125.855 79.9014C125.909 79.6923 126.044 79.5133 126.23 79.4037C126.416 79.2942 126.638 79.263 126.847 79.3172C127.056 79.3714 127.235 79.5064 127.345 79.6926C127.454 79.8787 127.486 80.1008 127.431 80.3099C127.21 81.1652 126.942 82.0078 126.629 82.8338C126.147 84.0986 125.558 85.3195 124.867 86.483C124.814 86.5772 124.742 86.6598 124.657 86.7258C124.571 86.7919 124.473 86.8401 124.368 86.8677C124.264 86.8952 124.155 86.9015 124.047 86.8861C123.94 86.8707 123.837 86.8341 123.745 86.7783Z" fill="#1F6FA9"/>
<path d="M91.3146 44.9123C89.2777 44.8487 87.1483 44.8769 84.9255 45.014C84.8158 45.0275 84.7045 45.0183 84.5985 44.9872C84.4924 44.956 84.3939 44.9034 84.309 44.8327C84.2241 44.762 84.1545 44.6746 84.1046 44.576C84.0547 44.4774 84.0256 44.3696 84.0189 44.2593C84.0122 44.149 84.0282 44.0385 84.0659 43.9346C84.1036 43.8307 84.1621 43.7356 84.2379 43.6552C84.3137 43.5748 84.4052 43.5107 84.5067 43.467C84.6082 43.4233 84.7176 43.4008 84.8281 43.401C87.1056 43.2616 89.2871 43.2281 91.3726 43.3006C91.4789 43.303 91.5837 43.3265 91.681 43.3695C91.7783 43.4124 91.8662 43.4742 91.9396 43.5511C92.013 43.6281 92.0706 43.7187 92.109 43.8179C92.1474 43.9171 92.1659 44.0229 92.1634 44.1292C92.1609 44.2356 92.1375 44.3403 92.0945 44.4376C92.0515 44.5349 91.9898 44.6228 91.9129 44.6962C91.8359 44.7697 91.7453 44.8272 91.6461 44.8656C91.5469 44.904 91.4411 44.9225 91.3348 44.92L91.3146 44.9123Z" fill="#1F6FA9"/>
<path d="M127.408 74.5217C127.192 74.5233 126.986 74.4398 126.832 74.2895C126.678 74.1392 126.59 73.9342 126.587 73.7191C126.566 71.6255 126.285 69.5425 125.749 67.5182C125.694 67.3105 125.724 67.0895 125.832 66.9036C125.94 66.7178 126.117 66.5825 126.325 66.5274C126.533 66.4723 126.754 66.5021 126.94 66.61C127.125 66.7179 127.261 66.8952 127.316 67.1029C127.885 69.2586 128.185 71.4764 128.208 73.7058C128.21 73.92 128.127 74.1263 127.976 74.2792C127.826 74.4321 127.622 74.5193 127.408 74.5217Z" fill="#1F6FA9"/>
<path d="M113.278 181.01C114.514 181.358 115.767 181.69 117.031 181.996C117.135 182.022 117.233 182.068 117.319 182.131C117.405 182.194 117.478 182.274 117.534 182.366C117.59 182.457 117.626 182.559 117.643 182.665C117.659 182.771 117.654 182.879 117.629 182.983C117.603 183.087 117.558 183.185 117.494 183.271C117.431 183.357 117.351 183.431 117.259 183.486C117.168 183.542 117.066 183.579 116.96 183.595C116.854 183.611 116.746 183.606 116.642 183.581C115.361 183.267 114.092 182.934 112.837 182.58C112.734 182.551 112.638 182.502 112.554 182.436C112.47 182.37 112.4 182.289 112.348 182.196C112.296 182.103 112.262 182 112.249 181.894C112.237 181.788 112.245 181.681 112.274 181.578C112.303 181.475 112.351 181.379 112.417 181.295C112.483 181.211 112.565 181.141 112.658 181.089C112.751 181.036 112.854 181.003 112.96 180.99C113.066 180.977 113.173 180.986 113.276 181.015L113.278 181.01Z" fill="#1F6FA9"/>
<path d="M37.955 86.8555C38.0616 86.8622 38.1659 86.8899 38.2617 86.9371C38.3576 86.9842 38.4432 87.0499 38.5135 87.1303C38.5839 87.2107 38.6376 87.3042 38.6717 87.4055C38.7057 87.5067 38.7194 87.6137 38.7119 87.7203C38.5855 89.8161 38.5653 91.9464 38.6513 94.1113C38.6556 94.2175 38.639 94.3236 38.6024 94.4235C38.5657 94.5233 38.5098 94.6151 38.4377 94.6933C38.3656 94.7715 38.2789 94.8348 38.1823 94.8795C38.0858 94.9242 37.9814 94.9494 37.8751 94.9537C37.7689 94.9581 37.6627 94.9416 37.5629 94.9049C37.463 94.8683 37.3714 94.8123 37.2931 94.7402C37.2149 94.6681 37.1516 94.5814 37.1069 94.4848C37.0622 94.3883 37.037 94.284 37.0326 94.1777C36.9431 91.9614 36.9627 89.777 37.0914 87.6244C37.0973 87.5171 37.1243 87.4119 37.171 87.3151C37.2176 87.2183 37.283 87.1317 37.3632 87.0602C37.4435 86.9888 37.5371 86.9339 37.6387 86.8988C37.7402 86.8636 37.8477 86.8489 37.955 86.8555Z" fill="#1F6FA9"/>
<path d="M0.369703 24.182C1.64132 25.9005 2.94134 27.6202 4.2698 29.341C4.34228 29.4243 4.39697 29.5215 4.43048 29.6267C4.46399 29.7319 4.47563 29.8429 4.46467 29.9527C4.45372 30.0626 4.42042 30.1691 4.3668 30.2656C4.31317 30.3621 4.24035 30.4467 4.15285 30.514C4.06534 30.5813 3.965 30.6301 3.85797 30.6572C3.75094 30.6843 3.63948 30.6892 3.53047 30.6717C3.42146 30.6541 3.31718 30.6145 3.22406 30.5552C3.13095 30.4958 3.05097 30.418 2.98902 30.3266C1.6652 28.6037 0.359695 26.8782 -0.927463 25.1499C-0.99457 25.065 -1.04397 24.9676 -1.07276 24.8632C-1.10154 24.7589 -1.10911 24.6499 -1.09504 24.5426C-1.08097 24.4353 -1.04553 24.3319 -0.990821 24.2385C-0.93611 24.1452 -0.863228 24.0638 -0.776501 23.9991C-0.689773 23.9344 -0.590957 23.8877 -0.485884 23.8618C-0.380811 23.836 -0.271615 23.8314 -0.164757 23.8484C-0.0578998 23.8655 0.0444576 23.9038 0.136256 23.9611C0.228055 24.0184 0.307433 24.0935 0.369703 24.182Z" fill="#1F6FA9"/>
<path d="M8.25859 34.4182C9.61085 36.0865 10.9732 37.7586 12.3457 39.4346C12.4836 39.5995 12.5503 39.8125 12.5313 40.0266C12.5122 40.2408 12.4088 40.4386 12.2438 40.5765C12.0789 40.7145 11.8659 40.7812 11.6518 40.7622C11.4376 40.7431 11.2398 40.6396 11.1019 40.4747C9.71938 38.7949 8.34862 37.1196 6.98963 35.4487C6.87074 35.2803 6.82057 35.0729 6.84942 34.8687C6.87828 34.6645 6.98396 34.479 7.14489 34.3501C7.30582 34.2212 7.50986 34.1586 7.7154 34.175C7.92094 34.1914 8.11247 34.2856 8.25091 34.4384L8.25859 34.4182Z" fill="#1F6FA9"/>
<path d="M16.5389 44.3528C17.9553 45.9838 19.3908 47.5952 20.8453 49.1869C20.9903 49.3453 21.0664 49.5549 21.0569 49.7694C21.0474 49.984 20.953 50.186 20.7946 50.331C20.6362 50.476 20.4267 50.552 20.2121 50.5425C19.9976 50.533 19.7956 50.4388 19.6506 50.2803C18.1932 48.676 16.7502 47.054 15.3216 45.4145C15.2431 45.336 15.1815 45.2423 15.1407 45.1391C15.1 45.0359 15.0809 44.9253 15.0847 44.8144C15.0884 44.7035 15.115 44.5945 15.1626 44.4942C15.2103 44.394 15.278 44.3047 15.3616 44.2317C15.4453 44.1588 15.543 44.1038 15.6488 44.0702C15.7546 44.0366 15.8661 44.0252 15.9765 44.0365C16.0869 44.0479 16.1938 44.0818 16.2906 44.1362C16.3873 44.1906 16.4718 44.2643 16.5389 44.3528Z" fill="#1F6FA9"/>
<path d="M52.572 136.266C53.7106 138.061 54.9134 139.835 56.1802 141.586C56.2494 141.671 56.3004 141.77 56.3301 141.876C56.3598 141.982 56.3676 142.093 56.353 142.202C56.3383 142.311 56.3016 142.416 56.245 142.511C56.1884 142.605 56.1131 142.687 56.0238 142.752C55.9345 142.816 55.8331 142.861 55.7256 142.885C55.6181 142.909 55.5069 142.91 55.3988 142.89C55.2907 142.869 55.1879 142.827 55.0967 142.765C55.0056 142.703 54.9279 142.624 54.8686 142.531C53.5813 140.753 52.3597 138.953 51.2039 137.132C51.0905 136.95 51.0533 136.731 51.1003 136.522C51.1473 136.313 51.2747 136.131 51.455 136.015C51.5446 135.958 51.6448 135.919 51.7497 135.9C51.8545 135.881 51.9621 135.884 52.066 135.907C52.1699 135.931 52.2682 135.974 52.355 136.036C52.4419 136.098 52.5156 136.176 52.572 136.266Z" fill="#1F6FA9"/>
<path d="M46.4581 125.002C47.3431 126.927 48.3069 128.833 49.3496 130.718C49.4506 130.91 49.4715 131.134 49.4075 131.341C49.3435 131.547 49.2 131.72 49.0085 131.821C48.8171 131.923 48.5933 131.943 48.3864 131.879C48.1795 131.815 48.0066 131.672 47.9055 131.48C46.8593 129.544 45.8811 127.6 44.9709 125.649C44.8896 125.455 44.8866 125.238 44.9627 125.042C45.0387 124.847 45.1878 124.688 45.3784 124.6C45.5691 124.512 45.7864 124.502 45.9846 124.571C46.1827 124.641 46.3462 124.784 46.4405 124.972L46.4581 125.002Z" fill="#1F6FA9"/>
<path d="M40.9008 112.458C41.1063 112.397 41.3276 112.42 41.5162 112.522C41.7047 112.624 41.8451 112.797 41.9067 113.002C42.5108 115.029 43.1981 117.055 43.9685 119.079C44.0065 119.179 44.0244 119.285 44.0213 119.392C44.0182 119.498 43.9941 119.603 43.9505 119.701C43.9068 119.798 43.8444 119.886 43.7668 119.959C43.6892 120.032 43.5979 120.089 43.4982 120.127C43.3985 120.165 43.2923 120.183 43.1857 120.18C43.0791 120.177 42.9741 120.153 42.8767 120.109C42.7794 120.066 42.6916 120.003 42.6184 119.926C42.5452 119.848 42.488 119.757 42.4501 119.657C41.6577 117.624 40.9687 115.532 40.3533 113.474C40.3217 113.372 40.3107 113.264 40.3212 113.157C40.3317 113.05 40.3633 112.946 40.4142 112.852C40.4652 112.757 40.5345 112.674 40.618 112.606C40.7016 112.538 40.7977 112.488 40.9008 112.458Z" fill="#1F6FA9"/>
<path d="M53.2916 79.4779C53.4142 79.3027 53.6008 79.1827 53.811 79.1438C54.0213 79.1048 54.2384 79.1501 54.4156 79.2698C56.206 80.5041 58.0017 81.6788 59.8027 82.794C59.9011 82.8455 59.9878 82.9167 60.0574 83.0031C60.1271 83.0895 60.1783 83.1893 60.2078 83.2964C60.2372 83.4034 60.2444 83.5154 60.2287 83.6253C60.2131 83.7352 60.175 83.8407 60.1169 83.9352C60.0588 84.0298 59.9818 84.1114 59.8908 84.175C59.7998 84.2385 59.6966 84.2827 59.5878 84.3047C59.479 84.3267 59.3668 84.3261 59.2583 84.3029C59.1497 84.2798 59.0471 84.2345 58.9567 84.17C57.1227 83.0404 55.3067 81.8483 53.4978 80.607C53.3215 80.484 53.2009 80.2963 53.1623 80.0849C53.1237 79.8734 53.1702 79.6552 53.2916 79.4779Z" fill="#1F6FA9"/>
<path d="M77.0063 91.4243L77.0971 91.4588C79.09 92.2158 81.0964 92.8913 83.0983 93.4728C83.3051 93.5329 83.4795 93.6728 83.5832 93.8616C83.6869 94.0504 83.7113 94.2727 83.6511 94.4795C83.591 94.6863 83.4511 94.8607 83.2623 94.9644C83.0735 95.0681 82.8512 95.0925 82.6444 95.0323C80.5966 94.4353 78.5485 93.7478 76.5001 92.9697L76.4244 92.941C76.2237 92.8647 76.0615 92.7119 75.9735 92.516C75.8855 92.3202 75.8789 92.0974 75.9551 91.8967C76.0314 91.696 76.1842 91.5338 76.38 91.4458C76.5759 91.3578 76.7987 91.3512 76.9994 91.4274L77.0063 91.4243Z" fill="#1F6FA9"/>
<path d="M34.4284 63.0063C36.0106 64.4848 37.6032 65.9307 39.2062 67.344C39.3435 67.489 39.4224 67.6795 39.4277 67.8791C39.433 68.0787 39.3644 68.2732 39.2351 68.4252C39.1057 68.5773 38.9247 68.6762 38.7269 68.703C38.529 68.7297 38.3283 68.6824 38.1632 68.5701C36.5446 67.147 34.9388 65.6903 33.3457 64.2C33.1887 64.053 33.0964 63.8497 33.0893 63.6348C33.0822 63.4199 33.1607 63.2109 33.3076 63.0539C33.4546 62.8969 33.6578 62.8047 33.8728 62.7975C34.0877 62.7904 34.2966 62.8689 34.4536 63.0158L34.4284 63.0063Z" fill="#1F6FA9"/>
<path d="M40.3678 74.1647C40.4696 74.1955 40.5642 74.2462 40.6463 74.3139C40.7283 74.3815 40.7961 74.4648 40.8458 74.5588C40.8954 74.6528 40.9259 74.7558 40.9356 74.8617C40.9452 74.9676 40.9337 75.0743 40.9018 75.1757C40.2863 77.2078 39.7976 79.2761 39.4384 81.3687C39.4022 81.5808 39.2833 81.7699 39.1077 81.8943C38.9321 82.0187 38.7144 82.0683 38.5023 82.0321C38.2902 81.9959 38.1011 81.877 37.9767 81.7015C37.8523 81.5259 37.8027 81.3081 37.8389 81.096C38.213 78.9362 38.7193 76.8014 39.3549 74.7036C39.3858 74.6016 39.4366 74.5067 39.5043 74.4243C39.572 74.3419 39.6553 74.2738 39.7494 74.2237C39.8435 74.1737 39.9466 74.1427 40.0527 74.1325C40.1588 74.1224 40.2659 74.1333 40.3678 74.1647Z" fill="#1F6FA9"/>
<path d="M25.2561 53.9164C26.7461 55.4754 28.2547 57.0106 29.782 58.5222C29.9291 58.6745 30.0106 58.8784 30.0091 59.0901C30.0076 59.3019 29.9232 59.5046 29.774 59.6549C29.6248 59.8051 29.4227 59.8909 29.2109 59.8939C28.9992 59.8968 28.7947 59.8168 28.6414 59.6708C27.1079 58.1453 25.5858 56.6049 24.0751 55.0497C23.9268 54.8938 23.8466 54.6854 23.8519 54.4704C23.8573 54.2553 23.9478 54.0512 24.1037 53.903C24.2595 53.7547 24.4679 53.6744 24.6829 53.6797C24.898 53.6851 25.1021 53.7757 25.2503 53.9315L25.2561 53.9164Z" fill="#1F6FA9"/>
<path d="M38.2973 99.7843C38.5069 99.7593 38.718 99.8177 38.8849 99.947C39.0518 100.076 39.1612 100.266 39.1894 100.475C39.4678 102.559 39.8347 104.663 40.2901 106.788C40.3124 106.892 40.314 106.999 40.2948 107.104C40.2756 107.208 40.236 107.308 40.1782 107.397C40.0615 107.578 39.878 107.704 39.6679 107.749C39.4579 107.794 39.2386 107.754 39.0583 107.637C38.878 107.521 38.7514 107.337 38.7064 107.127C38.2363 104.97 37.8626 102.823 37.5853 100.686C37.5725 100.58 37.5808 100.472 37.6097 100.369C37.6386 100.267 37.6875 100.171 37.7537 100.087C37.8198 100.003 37.902 99.9332 37.9952 99.8813C38.0885 99.8293 38.1912 99.7964 38.2973 99.7843Z" fill="#1F6FA9"/>
<path d="M59.1848 50.7719C59.1346 50.6779 59.1035 50.5749 59.0933 50.4689C59.083 50.3629 59.0938 50.2558 59.125 50.1539C59.1562 50.0521 59.2072 49.9574 59.275 49.8753C59.3429 49.7932 59.4263 49.7253 59.5204 49.6754C61.4595 48.6419 63.4722 47.7527 65.542 47.0151C65.6427 46.9776 65.7499 46.9602 65.8573 46.964C65.9647 46.9679 66.0703 46.9928 66.168 47.0375C66.2658 47.0821 66.3538 47.1456 66.427 47.2242C66.5003 47.3029 66.5573 47.3952 66.5949 47.4959C66.6325 47.5966 66.6498 47.7037 66.646 47.8111C66.6421 47.9185 66.6172 48.0241 66.5726 48.1219C66.5279 48.2197 66.4645 48.3077 66.3858 48.3809C66.3072 48.4541 66.2148 48.5112 66.1141 48.5487C64.1192 49.261 62.1788 50.1177 60.3083 51.112C60.2129 51.1663 60.1074 51.2006 59.9982 51.2129C59.8891 51.2251 59.7786 51.215 59.6735 51.1832C59.5684 51.1513 59.4709 51.0985 59.3869 51.0278C59.3028 50.9571 59.2341 50.87 59.1848 50.7719Z" fill="#1F6FA9"/>
<path d="M130.236 187.676L108.121 189.188L117.234 181.918L116.491 170.285L130.236 187.676Z" fill="#1F6FA9"/>
</svg>
