<svg width="252" height="172" viewBox="0 0 252 172" fill="none" xmlns="http://www.w3.org/2000/svg">
<path d="M50.2779 76.0061C48.7502 74.4636 47.464 72.6993 46.4628 70.773C46.3539 70.5853 46.1769 70.4468 45.9686 70.3862C45.7603 70.3255 45.5366 70.3475 45.344 70.4474C45.1514 70.5473 45.0047 70.7175 44.9343 70.9228C44.8639 71.128 44.8753 71.3524 44.966 71.5495C46.0476 73.6205 47.4342 75.5174 49.0793 77.1765C49.1517 77.2717 49.2435 77.3505 49.3487 77.4075C49.4538 77.4646 49.5699 77.4987 49.6892 77.5075C49.8085 77.5163 49.9283 77.4996 50.0406 77.4586C50.153 77.4176 50.2554 77.3532 50.341 77.2696C50.4266 77.186 50.4934 77.0852 50.5371 76.9738C50.5807 76.8625 50.6002 76.7431 50.5943 76.6236C50.5883 76.5041 50.557 76.3873 50.5025 76.2808C50.4479 76.1744 50.3714 76.0807 50.2779 76.0061Z" fill="#1F6FA9"/>
<path d="M45.724 160.569C43.5332 160.895 41.3162 161.158 39.0729 161.356C38.849 161.376 38.6421 161.483 38.4975 161.655C38.3529 161.827 38.2826 162.05 38.302 162.274C38.3214 162.497 38.4289 162.704 38.6009 162.849C38.7729 162.994 38.9953 163.064 39.2192 163.045C41.4962 162.842 43.747 162.576 45.9716 162.245C46.0824 162.229 46.189 162.191 46.2852 162.134C46.3813 162.076 46.4653 162.001 46.5321 161.911C46.599 161.821 46.6475 161.719 46.6749 161.61C46.7023 161.501 46.7081 161.388 46.6918 161.278C46.6756 161.167 46.6376 161.06 46.5802 160.964C46.5228 160.868 46.4469 160.784 46.3571 160.717C46.2672 160.65 46.165 160.602 46.0564 160.574C45.9478 160.547 45.8348 160.541 45.724 160.557V160.569Z" fill="#1F6FA9"/>
<path d="M58.8245 157.789C56.6863 158.382 54.5161 158.912 52.3141 159.381C52.2061 159.404 52.1037 159.448 52.0127 159.51C51.9217 159.573 51.8439 159.653 51.7838 159.745C51.7237 159.838 51.6824 159.941 51.6624 160.05C51.6423 160.158 51.6439 160.269 51.667 160.377C51.6898 160.486 51.7337 160.589 51.7964 160.681C51.8591 160.773 51.9393 160.851 52.0323 160.912C52.1254 160.972 52.2295 161.014 52.3387 161.034C52.4479 161.055 52.56 161.053 52.6686 161.03C54.9194 160.557 57.1214 160.019 59.2747 159.415C59.4844 159.35 59.6607 159.206 59.766 159.014C59.8714 158.821 59.8975 158.595 59.839 158.384C59.7804 158.172 59.6417 157.992 59.4523 157.881C59.2629 157.77 59.0377 157.737 58.8245 157.789Z" fill="#1F6FA9"/>
<path d="M61.4062 82.7586C59.3503 81.9335 57.342 80.9942 55.3909 79.9451C55.1978 79.8462 54.974 79.8254 54.766 79.8872C54.558 79.9489 54.3817 80.0884 54.2738 80.2767C54.166 80.4649 54.1347 80.6875 54.1866 80.8982C54.2385 81.1089 54.3695 81.2915 54.5525 81.4081H54.5806C56.5862 82.4895 58.6529 83.4533 60.7703 84.2947C60.8746 84.3446 60.9879 84.3726 61.1034 84.3768C61.2189 84.3811 61.334 84.3616 61.4416 84.3195C61.5493 84.2775 61.6471 84.2138 61.7291 84.1324C61.8111 84.051 61.8756 83.9537 61.9184 83.8463C61.9613 83.739 61.9816 83.624 61.9782 83.5085C61.9748 83.393 61.9478 83.2795 61.8987 83.1748C61.8496 83.0702 61.7796 82.9768 61.6929 82.9004C61.6063 82.8239 61.5048 82.7661 61.3949 82.7304L61.4062 82.7586Z" fill="#1F6FA9"/>
<path d="M74.2193 86.3544C72.0292 85.9816 69.8598 85.4952 67.7202 84.897C67.6123 84.8637 67.4988 84.8523 67.3864 84.8636C67.274 84.8749 67.1651 84.9087 67.066 84.9629C66.9669 85.0171 66.8797 85.0907 66.8095 85.1792C66.7394 85.2677 66.6877 85.3694 66.6575 85.4783C66.6274 85.5871 66.6194 85.7009 66.6341 85.8129C66.6487 85.9249 66.6857 86.0328 66.7428 86.1302C66.7999 86.2277 66.876 86.3126 66.9666 86.3801C67.0572 86.4476 67.1603 86.4963 67.27 86.5231C69.4653 87.1373 71.6909 87.6369 73.938 88.0199C74.1619 88.058 74.3917 88.0056 74.5769 87.8742C74.7621 87.7428 74.8875 87.5432 74.9255 87.3194C74.9636 87.0955 74.9112 86.8657 74.7798 86.6805C74.6484 86.4953 74.4488 86.3699 74.225 86.3318L74.2193 86.3544Z" fill="#1F6FA9"/>
<path d="M32.3888 161.745C31.331 161.773 30.2731 161.79 29.204 161.79C28.0392 161.79 26.8631 161.79 25.6871 161.733C25.5763 161.73 25.4658 161.748 25.362 161.787C25.2581 161.826 25.163 161.885 25.082 161.961C25.001 162.037 24.9358 162.127 24.8899 162.228C24.8441 162.329 24.8186 162.438 24.8149 162.549C24.8112 162.66 24.8294 162.771 24.8684 162.874C24.9074 162.978 24.9665 163.073 25.0422 163.154C25.118 163.235 25.209 163.301 25.31 163.346C25.411 163.392 25.52 163.418 25.6308 163.421C26.8275 163.463 28.0185 163.481 29.204 163.478C30.29 163.478 31.3647 163.478 32.4339 163.433C32.6577 163.427 32.87 163.332 33.0241 163.17C33.1782 163.007 33.2614 162.79 33.2554 162.566C33.2494 162.342 33.1548 162.13 32.9923 161.976C32.8298 161.822 32.6127 161.739 32.3888 161.745Z" fill="#1F6FA9"/>
<path d="M77.8495 34.0289C80.0566 34.2091 82.2487 34.54 84.4106 35.0193C84.63 35.067 84.8593 35.0256 85.0482 34.9043C85.2371 34.7829 85.3701 34.5915 85.4178 34.3721C85.4656 34.1528 85.4242 33.9234 85.3029 33.7345C85.1815 33.5456 84.9901 33.4127 84.7707 33.3649C82.5342 32.873 80.267 32.5328 77.9846 32.3464C77.7607 32.3285 77.5389 32.4003 77.368 32.5459C77.197 32.6915 77.0909 32.8991 77.073 33.123C77.0551 33.3468 77.1269 33.5686 77.2725 33.7396C77.4181 33.9105 77.6257 34.0166 77.8495 34.0345V34.0289Z" fill="#1F6FA9"/>
<path d="M64.7657 35.1826C66.8846 34.6056 69.053 34.2288 71.2423 34.0572C71.4662 34.0386 71.6735 33.9318 71.8186 33.7603C71.9637 33.5888 72.0347 33.3667 72.0161 33.1428C71.9974 32.919 71.8906 32.7117 71.7191 32.5666C71.5476 32.4215 71.3255 32.3505 71.1017 32.3691C68.8045 32.5531 66.5303 32.9564 64.3099 33.5733C64.0943 33.6338 63.9115 33.7774 63.8017 33.9726C63.692 34.1678 63.6643 34.3987 63.7247 34.6143C63.7851 34.8299 63.9288 35.0128 64.124 35.1225C64.3192 35.2323 64.55 35.26 64.7657 35.1995V35.1826Z" fill="#1F6FA9"/>
<path d="M71.4848 153.428C69.4366 154.279 67.349 155.071 65.222 155.803C65.0101 155.877 64.8365 156.033 64.7394 156.236C64.6423 156.438 64.6297 156.671 64.7043 156.883C64.779 157.095 64.9347 157.268 65.1373 157.366C65.3399 157.463 65.5728 157.475 65.7847 157.401C67.9455 156.658 70.0668 155.848 72.1488 154.987C72.2536 154.946 72.3492 154.885 72.43 154.806C72.5108 154.728 72.5752 154.635 72.6193 154.531C72.6634 154.428 72.6864 154.316 72.6869 154.204C72.6875 154.092 72.6655 153.98 72.6224 153.876C72.5793 153.772 72.5159 153.678 72.4359 153.599C72.3558 153.52 72.2608 153.458 72.1564 153.416C72.052 153.375 71.9403 153.354 71.8279 153.356C71.7155 153.358 71.6046 153.382 71.5017 153.428H71.4848Z" fill="#1F6FA9"/>
<path d="M122.69 59.6432C123.856 61.5148 124.865 63.4797 125.706 65.5177C125.792 65.7252 125.957 65.89 126.164 65.976C126.371 66.062 126.605 66.0622 126.812 65.9764C127.019 65.8906 127.184 65.7259 127.27 65.5185C127.356 65.3111 127.356 65.0781 127.271 64.8706C126.389 62.7471 125.336 60.6995 124.119 58.7485C123.996 58.5703 123.808 58.4466 123.596 58.403C123.383 58.3594 123.162 58.3993 122.978 58.5144C122.794 58.6295 122.662 58.8109 122.608 59.0211C122.555 59.2313 122.584 59.4541 122.69 59.6432Z" fill="#1F6FA9"/>
<path d="M119.945 83.2707C120.01 83.4835 120.157 83.662 120.353 83.7674C120.549 83.8727 120.778 83.8965 120.992 83.8334C123.149 83.2032 125.309 82.5279 127.474 81.8077C127.687 81.7331 127.861 81.577 127.959 81.3738C128.056 81.1707 128.069 80.9371 127.994 80.7245C127.92 80.5118 127.764 80.3375 127.561 80.2399C127.357 80.1422 127.124 80.1293 126.911 80.2039C124.773 80.9186 122.629 81.5938 120.496 82.2128C120.283 82.2801 120.105 82.4293 120.002 82.6276C119.898 82.826 119.878 83.0573 119.945 83.2707Z" fill="#1F6FA9"/>
<path d="M102.979 42.2784C104.641 43.1974 106.329 44.1971 108.043 45.2775L108.724 45.7164C108.911 45.8299 109.135 45.8661 109.349 45.8176C109.562 45.7691 109.749 45.6396 109.868 45.4563C109.988 45.273 110.032 45.0504 109.991 44.8354C109.949 44.6204 109.826 44.4299 109.647 44.3041L108.949 43.8539C107.205 42.751 105.489 41.7343 103.801 40.804C103.703 40.7422 103.595 40.7011 103.481 40.6829C103.367 40.6648 103.251 40.6701 103.139 40.6985C103.028 40.727 102.923 40.778 102.832 40.8483C102.741 40.9187 102.665 41.0069 102.609 41.1077C102.554 41.2084 102.519 41.3196 102.508 41.4342C102.497 41.5488 102.509 41.6645 102.544 41.7741C102.579 41.8838 102.637 41.985 102.712 42.0717C102.788 42.1584 102.881 42.2288 102.985 42.2784H102.979Z" fill="#1F6FA9"/>
<path d="M127.715 71.8085C128.211 73.9595 128.54 76.1455 128.7 78.3471C128.708 78.4579 128.738 78.5661 128.788 78.6654C128.838 78.7647 128.907 78.8532 128.991 78.9258C129.075 78.9984 129.172 79.0537 129.278 79.0887C129.383 79.1236 129.495 79.1374 129.606 79.1292C129.717 79.1211 129.825 79.0912 129.924 79.0413C130.023 78.9913 130.112 78.9223 130.184 78.8382C130.257 78.7541 130.312 78.6565 130.347 78.551C130.382 78.4454 130.396 78.3341 130.388 78.2232C130.223 75.9344 129.881 73.6617 129.364 71.4259C129.342 71.3146 129.298 71.2089 129.234 71.1151C129.171 71.0212 129.089 70.9411 128.994 70.8795C128.899 70.818 128.792 70.7762 128.681 70.7567C128.569 70.7372 128.454 70.7404 128.344 70.7661C128.234 70.7918 128.13 70.8395 128.038 70.9063C127.946 70.9731 127.869 71.0578 127.811 71.155C127.753 71.2523 127.715 71.3603 127.699 71.4726C127.684 71.5849 127.691 71.6991 127.721 71.8085H127.715Z" fill="#1F6FA9"/>
<path d="M83.5093 147.542C81.5849 148.634 79.6098 149.677 77.5841 150.671C77.3944 150.776 77.2524 150.949 77.1873 151.156C77.1223 151.363 77.1393 151.587 77.2347 151.781C77.3302 151.976 77.4969 152.126 77.7002 152.201C77.9035 152.276 78.1278 152.27 78.3268 152.184C80.3825 151.183 82.3876 150.123 84.3421 149.005C84.447 148.955 84.5405 148.885 84.6167 148.797C84.693 148.709 84.7503 148.607 84.7852 148.496C84.8201 148.385 84.8317 148.269 84.8194 148.153C84.8071 148.038 84.7711 147.926 84.7137 147.825C84.6562 147.724 84.5786 147.636 84.4856 147.567C84.3926 147.497 84.2862 147.448 84.1732 147.421C84.0601 147.394 83.9428 147.392 83.8286 147.412C83.7143 147.433 83.6057 147.477 83.5093 147.542Z" fill="#1F6FA9"/>
<path d="M93.4259 88.0988C93.4337 88.209 93.4633 88.3165 93.5128 88.4153C93.5623 88.514 93.6309 88.6021 93.7146 88.6742C93.7983 88.7464 93.8954 88.8013 94.0003 88.8358C94.1053 88.8703 94.216 88.8837 94.3262 88.8753C96.577 88.7177 98.8278 88.4758 101.079 88.1663C101.189 88.1515 101.296 88.1151 101.393 88.059C101.49 88.0029 101.575 87.9283 101.642 87.8395C101.71 87.7507 101.76 87.6493 101.789 87.5413C101.818 87.4332 101.825 87.3206 101.81 87.2097C101.795 87.0989 101.759 86.992 101.703 86.8953C101.647 86.7985 101.572 86.7138 101.483 86.6458C101.394 86.5779 101.293 86.5281 101.185 86.4993C101.077 86.4706 100.964 86.4634 100.853 86.4782C98.6027 86.782 96.3819 87.0146 94.1911 87.1759C94.0801 87.1858 93.9722 87.2176 93.8735 87.2694C93.7748 87.3212 93.6874 87.3921 93.6162 87.4779C93.5451 87.5637 93.4916 87.6627 93.4589 87.7693C93.4263 87.8758 93.415 87.9878 93.4259 88.0988Z" fill="#1F6FA9"/>
<path d="M53.2527 41.2709C54.9128 39.8443 56.7287 38.6098 58.6659 37.5909C58.7689 37.5421 58.861 37.4731 58.9366 37.3878C59.0122 37.3025 59.0697 37.2027 59.1057 37.0946C59.1417 36.9865 59.1554 36.8721 59.1461 36.7585C59.1367 36.6449 59.1044 36.5344 59.0512 36.4337C58.998 36.3329 58.9249 36.2439 58.8363 36.1722C58.7478 36.1004 58.6456 36.0473 58.536 36.0161C58.4263 35.9849 58.3115 35.9763 58.1985 35.9906C58.0854 36.005 57.9764 36.0421 57.8781 36.0997C55.8271 37.1761 53.9053 38.4825 52.1498 39.9936C51.9804 40.1428 51.8773 40.3533 51.863 40.5786C51.8488 40.8039 51.9246 41.0256 52.0739 41.195C52.2231 41.3644 52.4335 41.4675 52.6588 41.4817C52.8841 41.496 53.1058 41.4202 53.2752 41.2709H53.2527Z" fill="#1F6FA9"/>
<path d="M43.6825 65.6134C43.9024 65.5749 44.0981 65.4508 44.2268 65.2684C44.3554 65.086 44.4066 64.86 44.369 64.64C44.1378 63.3398 44.0229 62.0216 44.0258 60.7011C44.0268 59.8418 44.0756 58.9833 44.172 58.1295C44.1967 57.9057 44.1314 57.6812 43.9905 57.5055C43.8496 57.3298 43.6447 57.2172 43.4209 57.1926C43.197 57.168 42.9725 57.2333 42.7968 57.3742C42.6211 57.5151 42.5086 57.72 42.484 57.9438C42.3829 58.8594 42.3321 59.7799 42.332 60.7011C42.3327 62.112 42.455 63.5202 42.6978 64.91C42.7148 65.0216 42.754 65.1285 42.813 65.2246C42.8721 65.3208 42.9498 65.4041 43.0416 65.4697C43.1334 65.5352 43.2374 65.5817 43.3475 65.6064C43.4576 65.6311 43.5715 65.6335 43.6825 65.6134Z" fill="#1F6FA9"/>
<path d="M90.7907 36.8145C92.7995 37.5066 94.8646 38.3225 96.9804 39.2791C97.0823 39.3328 97.1942 39.3651 97.3091 39.374C97.4239 39.3828 97.5394 39.368 97.6484 39.3305C97.7573 39.2931 97.8575 39.2337 97.9426 39.1561C98.0277 39.0784 98.0961 38.9842 98.1434 38.8791C98.1908 38.7741 98.2161 38.6604 98.2178 38.5452C98.2196 38.43 98.1977 38.3156 98.1536 38.2092C98.1095 38.1028 98.044 38.0065 97.9613 37.9263C97.8786 37.8461 97.7803 37.7837 97.6725 37.7429C95.5042 36.7638 93.3904 35.9236 91.3309 35.2221C91.2263 35.1851 91.1155 35.1691 91.0048 35.175C90.894 35.1809 90.7855 35.2085 90.6855 35.2563C90.5854 35.3042 90.4958 35.3712 90.4216 35.4536C90.3475 35.5361 90.2903 35.6324 90.2533 35.737C90.2164 35.8415 90.2004 35.9523 90.2063 36.063C90.2121 36.1738 90.2398 36.2823 90.2876 36.3824C90.3354 36.4824 90.4024 36.572 90.4849 36.6462C90.5674 36.7203 90.6636 36.7775 90.7682 36.8145H90.7907Z" fill="#1F6FA9"/>
<path d="M44.649 52.3111C44.858 52.3922 45.0906 52.3875 45.2961 52.2979C45.5017 52.2083 45.6634 52.0411 45.7462 51.8328C46.5415 49.7998 47.5868 47.8736 48.858 46.0989C48.9885 45.9168 49.0414 45.6903 49.005 45.4692C48.9686 45.2482 48.8459 45.0506 48.6638 44.92C48.4818 44.7894 48.2553 44.7365 48.0342 44.773C47.8131 44.8094 47.6156 44.9321 47.485 45.1141C46.1322 47.0045 45.019 49.0552 44.1707 51.2194C44.0897 51.4276 44.0946 51.6595 44.1842 51.8641C44.2739 52.0687 44.441 52.2294 44.649 52.3111Z" fill="#1F6FA9"/>
<path d="M18.9954 161.334C17.6618 161.216 16.317 161.075 14.9721 160.906C14.8613 160.893 14.7488 160.901 14.6412 160.931C14.5336 160.96 14.4328 161.011 14.3448 161.08C14.2567 161.149 14.1831 161.234 14.1281 161.331C14.073 161.428 14.0376 161.535 14.024 161.646C14.0103 161.757 14.0186 161.87 14.0484 161.977C14.0782 162.085 14.1289 162.186 14.1976 162.274C14.2663 162.362 14.3517 162.435 14.4488 162.49C14.546 162.545 14.6531 162.581 14.7639 162.594C16.1294 162.763 17.4893 162.908 18.8435 163.028C18.9543 163.038 19.066 163.026 19.1723 162.993C19.2785 162.959 19.3771 162.906 19.4626 162.834C19.548 162.763 19.6185 162.675 19.6702 162.577C19.7218 162.478 19.7535 162.37 19.7635 162.26C19.7735 162.149 19.7615 162.037 19.7283 161.931C19.6951 161.825 19.6413 161.726 19.57 161.641C19.4987 161.555 19.4112 161.485 19.3126 161.433C19.214 161.381 19.1063 161.35 18.9954 161.34V161.334Z" fill="#1F6FA9"/>
<path d="M127.271 97.4509C127.164 97.4179 127.053 97.4063 126.942 97.4168C126.831 97.4273 126.723 97.4597 126.625 97.512C126.526 97.5643 126.439 97.6355 126.369 97.7216C126.298 97.8077 126.245 97.9069 126.213 98.0136C125.56 100.103 124.791 102.187 123.906 104.265C123.862 104.367 123.839 104.477 123.838 104.588C123.837 104.698 123.857 104.809 123.899 104.912C123.94 105.014 124.001 105.108 124.079 105.188C124.156 105.267 124.248 105.33 124.35 105.374C124.452 105.417 124.562 105.44 124.673 105.442C124.784 105.443 124.894 105.422 124.997 105.381C125.1 105.34 125.193 105.279 125.273 105.201C125.352 105.124 125.415 105.031 125.459 104.929C126.367 102.802 127.156 100.666 127.828 98.52C127.862 98.4133 127.874 98.3008 127.865 98.1892C127.855 98.0775 127.824 97.9689 127.772 97.8696C127.72 97.7702 127.649 97.682 127.563 97.6102C127.477 97.5383 127.378 97.4842 127.271 97.4509Z" fill="#1F6FA9"/>
<path d="M187.108 50.2797C185.232 51.4839 183.329 52.6786 181.397 53.8641C181.295 53.9184 181.206 53.9929 181.134 54.083C181.063 54.1732 181.01 54.277 180.98 54.3882C180.95 54.4993 180.943 54.6154 180.96 54.7293C180.976 54.8433 181.016 54.9526 181.076 55.0507C181.137 55.1487 181.217 55.2333 181.311 55.2994C181.405 55.3654 181.512 55.4115 181.625 55.4348C181.737 55.458 181.854 55.458 181.967 55.4346C182.079 55.4113 182.186 55.365 182.28 55.2989C184.208 54.1097 186.12 52.9112 188.014 51.7033C188.111 51.6454 188.195 51.5687 188.262 51.4777C188.329 51.3867 188.376 51.2832 188.402 51.1734C188.428 51.0636 188.432 50.9497 188.413 50.8385C188.395 50.7272 188.354 50.6209 188.293 50.5257C188.232 50.4305 188.153 50.3485 188.061 50.2843C187.968 50.2202 187.863 50.1753 187.753 50.1524C187.642 50.1295 187.528 50.1289 187.417 50.1507C187.307 50.1726 187.202 50.2165 187.108 50.2797Z" fill="#1F6FA9"/>
<path d="M198.346 42.8072C196.508 44.0751 194.645 45.3337 192.758 46.5828C192.572 46.7067 192.442 46.8996 192.398 47.1191C192.353 47.3386 192.398 47.5668 192.522 47.7533C192.646 47.9398 192.839 48.0695 193.058 48.1138C193.278 48.1582 193.506 48.1135 193.692 47.9896C195.568 46.7329 197.444 45.4687 199.319 44.197C199.414 44.1359 199.496 44.0562 199.56 43.9628C199.624 43.8694 199.668 43.7642 199.69 43.6533C199.713 43.5425 199.713 43.4282 199.69 43.3174C199.667 43.2066 199.622 43.1015 199.558 43.0083C199.494 42.9152 199.412 42.8359 199.317 42.7751C199.221 42.7143 199.115 42.6733 199.003 42.6545C198.892 42.6358 198.777 42.6396 198.667 42.6658C198.557 42.692 198.454 42.7401 198.363 42.8072H198.346Z" fill="#1F6FA9"/>
<path d="M175.628 57.336C173.692 58.4614 171.745 59.5867 169.787 60.7121C169.592 60.8218 169.448 61.0047 169.387 61.2205C169.326 61.4363 169.354 61.6674 169.464 61.8629C169.573 62.0584 169.756 62.2023 169.972 62.263C170.188 62.3237 170.419 62.2961 170.614 62.1864C172.584 61.061 174.54 59.9356 176.483 58.8102C176.661 58.69 176.787 58.5064 176.835 58.2968C176.882 58.0871 176.848 57.8672 176.739 57.6819C176.63 57.4967 176.454 57.3601 176.247 57.3C176.041 57.2399 175.819 57.2608 175.628 57.3585V57.336Z" fill="#1F6FA9"/>
<path d="M163.879 63.9532C161.895 65.0186 159.899 66.0577 157.892 67.0706C157.692 67.1713 157.54 67.3473 157.47 67.56C157.4 67.7726 157.417 68.0044 157.518 68.2044C157.619 68.4044 157.795 68.5561 158.007 68.6263C158.22 68.6965 158.452 68.6794 158.652 68.5786C160.666 67.5545 162.673 66.5079 164.673 65.4387C164.778 65.3913 164.873 65.3228 164.951 65.2373C165.029 65.1517 165.088 65.0511 165.126 64.9416C165.163 64.8321 165.178 64.716 165.168 64.6007C165.159 64.4853 165.126 64.3732 165.072 64.2711C165.017 64.169 164.942 64.0792 164.851 64.0073C164.761 63.9354 164.656 63.883 164.544 63.8532C164.433 63.8234 164.316 63.8169 164.201 63.8341C164.087 63.8513 163.977 63.8918 163.879 63.9532Z" fill="#1F6FA9"/>
<path d="M209.341 35.0025C207.548 36.3193 205.725 37.6322 203.872 38.9414C203.689 39.0713 203.565 39.2684 203.528 39.4895C203.49 39.7106 203.542 39.9375 203.672 40.1203C203.802 40.3031 203.999 40.4269 204.22 40.4643C204.441 40.5018 204.668 40.4498 204.851 40.32C206.708 38.9977 208.542 37.6697 210.337 36.3474C210.497 36.2085 210.599 36.0143 210.623 35.8036C210.646 35.5929 210.59 35.3811 210.464 35.2102C210.339 35.0393 210.153 34.9219 209.945 34.8813C209.737 34.8408 209.521 34.88 209.341 34.9913V35.0025Z" fill="#1F6FA9"/>
<path d="M251.75 0.244532C251.591 0.0878315 251.377 0 251.154 0C250.931 0 250.716 0.0878315 250.558 0.244532C249.072 1.73005 247.457 3.29996 245.718 4.93742C245.561 5.0924 245.471 5.30287 245.467 5.5236C245.463 5.74434 245.546 5.95778 245.697 6.11824C245.849 6.27871 246.057 6.37337 246.278 6.38194C246.499 6.39051 246.714 6.31234 246.877 6.16413C248.627 4.51542 250.254 2.93423 251.75 1.43745C251.829 1.35947 251.892 1.26659 251.935 1.16421C251.978 1.06182 252 0.951989 252 0.841025C252 0.730061 251.978 0.620163 251.935 0.517776C251.892 0.415388 251.829 0.322515 251.75 0.244532Z" fill="#1F6FA9"/>
<path d="M240.763 9.50651C239.154 10.9583 237.466 12.4476 235.699 13.9744C235.529 14.1236 235.426 14.334 235.412 14.5593C235.398 14.7846 235.473 15.0063 235.623 15.1757C235.772 15.3451 235.982 15.4483 236.208 15.4625C236.433 15.4768 236.655 15.4009 236.824 15.2517C238.591 13.7212 240.29 12.2188 241.888 10.7501C242.041 10.5974 242.129 10.392 242.135 10.1763C242.141 9.96053 242.064 9.75078 241.919 9.5901C241.775 9.42942 241.575 9.33002 241.36 9.31239C241.145 9.29476 240.931 9.36024 240.763 9.49531V9.50651Z" fill="#1F6FA9"/>
<path d="M220.089 26.8433C218.345 28.2051 216.561 29.5836 214.743 30.9622C214.565 31.098 214.448 31.2992 214.418 31.5213C214.388 31.7434 214.447 31.9684 214.583 32.1468C214.719 32.3251 214.92 32.4422 215.142 32.4722C215.364 32.5023 215.589 32.4429 215.767 32.3071C217.591 30.9229 219.378 29.5443 221.13 28.1713C221.299 28.0308 221.406 27.8301 221.429 27.6118C221.452 27.3935 221.389 27.1748 221.254 27.002C221.119 26.8292 220.921 26.7161 220.704 26.6864C220.486 26.6568 220.266 26.7131 220.089 26.8433Z" fill="#1F6FA9"/>
<path d="M230.572 18.3522C228.884 19.759 227.151 21.1657 225.361 22.64C225.187 22.781 225.077 22.9853 225.053 23.208C225.03 23.4306 225.096 23.6534 225.237 23.8273C225.378 24.0011 225.583 24.1118 225.805 24.135C226.028 24.1583 226.251 24.0921 226.425 23.951C228.222 22.4993 229.966 21.0644 231.658 19.6464C231.829 19.5024 231.937 19.2961 231.956 19.0729C231.976 18.8497 231.906 18.6279 231.762 18.4563C231.618 18.2847 231.412 18.1773 231.188 18.1578C230.965 18.1382 230.743 18.2082 230.572 18.3522Z" fill="#1F6FA9"/>
<path d="M94.7293 140.199C92.9549 141.527 91.1262 142.81 89.243 144.048C89.1439 144.106 89.0575 144.183 88.9894 144.275C88.9212 144.368 88.8725 144.473 88.8464 144.585C88.8203 144.696 88.8172 144.812 88.8374 144.925C88.8576 145.038 88.9006 145.146 88.9638 145.242C89.0271 145.338 89.1091 145.419 89.2051 145.482C89.301 145.545 89.4088 145.588 89.5218 145.608C89.6349 145.628 89.7508 145.625 89.8625 145.598C89.9742 145.572 90.0793 145.523 90.1715 145.455C92.0846 144.198 93.9415 142.896 95.7421 141.549C95.92 141.414 96.0374 141.214 96.069 140.993C96.1006 140.772 96.0438 140.547 95.911 140.368C95.8449 140.278 95.7618 140.203 95.6665 140.146C95.5711 140.089 95.4654 140.052 95.3554 140.036C95.2455 140.021 95.1335 140.027 95.026 140.055C94.9185 140.083 94.8177 140.132 94.7293 140.199Z" fill="#1F6FA9"/>
<path d="M104.86 131.483C103.285 133.032 101.64 134.532 99.9252 135.984C99.7558 136.133 99.6527 136.344 99.6384 136.569C99.6242 136.794 99.7 137.016 99.8492 137.186C99.9985 137.355 100.209 137.458 100.434 137.472C100.659 137.487 100.881 137.411 101.051 137.262C102.787 135.761 104.461 134.229 106.07 132.664C106.221 132.506 106.304 132.295 106.303 132.076C106.301 131.857 106.214 131.647 106.061 131.491C105.908 131.335 105.7 131.244 105.481 131.239C105.262 131.233 105.05 131.312 104.888 131.46L104.86 131.483Z" fill="#1F6FA9"/>
<path d="M114.919 121.315C114.741 121.179 114.517 121.12 114.295 121.149C114.074 121.179 113.873 121.295 113.737 121.472C112.398 123.224 110.978 124.944 109.478 126.632C109.404 126.715 109.347 126.812 109.31 126.917C109.274 127.022 109.259 127.134 109.265 127.245C109.272 127.356 109.3 127.464 109.349 127.565C109.397 127.665 109.465 127.754 109.548 127.828C109.631 127.902 109.728 127.959 109.833 127.995C109.938 128.032 110.049 128.047 110.16 128.041C110.271 128.034 110.38 128.006 110.48 127.957C110.58 127.909 110.67 127.841 110.744 127.758C112.269 126.07 113.715 124.286 115.076 122.508C115.145 122.419 115.196 122.318 115.225 122.21C115.255 122.102 115.262 121.989 115.248 121.878C115.233 121.767 115.196 121.66 115.14 121.563C115.083 121.467 115.008 121.382 114.919 121.315Z" fill="#1F6FA9"/>
<path d="M115.054 84.582C114.999 84.3658 114.862 84.1798 114.671 84.064C114.481 83.9482 114.252 83.912 114.035 83.963C111.833 84.5032 109.648 84.9834 107.48 85.4035C107.365 85.4173 107.254 85.4546 107.154 85.513C107.054 85.5714 106.968 85.6498 106.899 85.7432C106.831 85.8366 106.782 85.9431 106.757 86.056C106.732 86.1689 106.73 86.2858 106.751 86.3995C106.773 86.5132 106.818 86.6213 106.883 86.7169C106.948 86.8126 107.032 86.8938 107.13 86.9555C107.228 87.0173 107.338 87.0582 107.452 87.0758C107.566 87.0934 107.683 87.0873 107.795 87.0579C110.001 86.6359 112.212 86.1463 114.435 85.6061C114.652 85.5516 114.839 85.4133 114.955 85.2215C115.071 85.0297 115.107 84.7998 115.054 84.582Z" fill="#1F6FA9"/>
<path d="M87.5166 87.4461H87.4154C85.1927 87.4461 82.9869 87.3617 80.8206 87.1873C80.5967 87.1694 80.3749 87.2411 80.2039 87.3867C80.033 87.5324 79.9269 87.7399 79.9089 87.9638C79.891 88.1877 79.9628 88.4095 80.1084 88.5804C80.254 88.7514 80.4616 88.8575 80.6855 88.8754C82.9025 89.0517 85.1533 89.1398 87.4379 89.1398H87.5223C87.7461 89.1398 87.9608 89.0509 88.1191 88.8926C88.2774 88.7343 88.3663 88.5196 88.3663 88.2958C88.3663 88.0719 88.2774 87.8572 88.1191 87.6989C87.9608 87.5406 87.7461 87.4517 87.5223 87.4517L87.5166 87.4461Z" fill="#1F6FA9"/>
<path d="M139.537 75.5112C137.447 76.3665 135.36 77.1862 133.274 77.9702C133.087 78.0607 132.939 78.2172 132.86 78.4097C132.781 78.6023 132.776 78.8173 132.846 79.0134C132.916 79.2095 133.055 79.3729 133.238 79.4722C133.421 79.5715 133.634 79.5997 133.837 79.5514C135.941 78.7636 138.046 77.9383 140.15 77.0755C140.358 76.9905 140.523 76.8265 140.609 76.6196C140.696 76.4128 140.697 76.18 140.612 75.9726C140.527 75.7652 140.363 75.6 140.156 75.5135C139.949 75.427 139.716 75.4262 139.509 75.5112H139.537Z" fill="#1F6FA9"/>
<path d="M129.617 84.188C129.506 84.1804 129.395 84.1948 129.29 84.2303C129.185 84.2659 129.088 84.3219 129.005 84.3952C128.922 84.4685 128.854 84.5575 128.806 84.6572C128.757 84.7568 128.729 84.8651 128.722 84.9757C128.57 87.1842 128.28 89.3811 127.856 91.5537C127.812 91.7738 127.858 92.0022 127.983 92.1884C128.109 92.3747 128.302 92.5036 128.523 92.5469C128.743 92.5902 128.971 92.5442 129.157 92.4192C129.343 92.2942 129.472 92.1002 129.516 91.8801C129.951 89.6365 130.248 87.3683 130.405 85.0883C130.412 84.9774 130.398 84.8661 130.363 84.7607C130.327 84.6554 130.271 84.5582 130.198 84.4745C130.125 84.3909 130.036 84.3225 129.936 84.2733C129.836 84.2242 129.728 84.1952 129.617 84.188Z" fill="#1F6FA9"/>
<path d="M151.843 70.0473C149.814 71.0152 147.775 71.953 145.727 72.8608C145.527 72.9548 145.372 73.1234 145.295 73.3303C145.218 73.5372 145.225 73.7661 145.315 73.9678C145.405 74.1695 145.57 74.3279 145.775 74.4092C145.981 74.4905 146.21 74.4881 146.413 74.4026C148.473 73.4835 150.527 72.5457 152.575 71.5891C152.777 71.4921 152.932 71.3187 153.007 71.1071C153.081 70.8955 153.068 70.6631 152.971 70.4609C152.874 70.2587 152.701 70.1032 152.49 70.0288C152.278 69.9544 152.045 69.9671 151.843 70.0641V70.0473Z" fill="#1F6FA9"/>
<path d="M122.151 109.926C121.956 109.824 121.729 109.803 121.518 109.867C121.308 109.931 121.131 110.075 121.026 110.269C119.983 112.197 118.846 114.112 117.616 116.014C117.556 116.107 117.514 116.211 117.494 116.32C117.474 116.429 117.476 116.541 117.499 116.65C117.546 116.869 117.678 117.06 117.866 117.182C118.054 117.303 118.283 117.345 118.502 117.298C118.721 117.251 118.912 117.119 119.034 116.931C120.291 115.003 121.45 113.049 122.511 111.068C122.563 110.969 122.595 110.862 122.605 110.751C122.615 110.64 122.602 110.528 122.569 110.422C122.536 110.316 122.481 110.217 122.41 110.132C122.338 110.047 122.25 109.977 122.151 109.926Z" fill="#1F6FA9"/>
<path d="M119.938 54.4212C120.022 54.3481 120.09 54.2593 120.14 54.1597C120.189 54.0602 120.218 53.9518 120.225 53.841C120.233 53.7302 120.218 53.6191 120.182 53.5139C120.146 53.4088 120.09 53.3117 120.017 53.2283C118.51 51.5029 116.877 49.8911 115.133 48.4059C115.049 48.332 114.951 48.2754 114.844 48.2394C114.738 48.2034 114.626 48.1886 114.514 48.1959C114.403 48.2032 114.293 48.2325 114.193 48.282C114.092 48.3316 114.003 48.4004 113.929 48.4847C113.855 48.5689 113.798 48.6669 113.762 48.773C113.726 48.8791 113.711 48.9913 113.719 49.1031C113.726 49.2149 113.755 49.3242 113.805 49.4247C113.854 49.5252 113.923 49.615 114.007 49.6889C115.688 51.1217 117.262 52.6751 118.717 54.3368C118.79 54.425 118.88 54.4975 118.982 54.5498C119.084 54.6021 119.195 54.6332 119.31 54.6411C119.424 54.649 119.538 54.6336 119.647 54.5958C119.755 54.558 119.854 54.4986 119.938 54.4212Z" fill="#1F6FA9"/>
<path d="M0 161.553L20.9943 171.215L14.8046 160.754L19.8351 149.692L0 161.553Z" fill="#1F6FA9"/>
</svg>
