<svg width="161" height="49" viewBox="0 0 161 49" fill="none" xmlns="http://www.w3.org/2000/svg">
<circle cx="19.5562" cy="18.062" r="3.79738" fill="white"/>
<path d="M19.0586 25.9936L11.2591 16.8942C11.223 16.8521 11.1704 16.8279 11.1149 16.8279H0.423118C0.259241 16.8279 0.172337 17.0216 0.281278 17.144L19.0332 38.2167C19.1093 38.3022 19.2433 38.3014 19.3184 38.2149L51.0166 1.70296C51.1673 1.52932 50.9373 1.28726 50.7562 1.42893L19.3198 26.0196C19.2398 26.0822 19.1247 26.0707 19.0586 25.9936Z" fill="white"/>
<path d="M27.9017 48.3462H38.4217C38.5828 48.3462 38.6707 48.1581 38.5673 48.0345L26.3444 33.4221C26.2695 33.3326 26.1323 33.3312 26.0556 33.4192L20.5197 39.7719C20.4573 39.8435 20.4574 39.9503 20.5201 40.0218L27.7589 48.2814C27.7949 48.3226 27.847 48.3462 27.9017 48.3462Z" fill="white"/>
<path d="M17.7062 39.4637L10.681 31.3578C10.5659 31.225 10.3477 31.3064 10.3477 31.4821V48.1563C10.3477 48.2612 10.4327 48.3462 10.5375 48.3462H17.5627C17.6675 48.3462 17.7525 48.2612 17.7525 48.1563V39.5881C17.7525 39.5424 17.7361 39.4982 17.7062 39.4637Z" fill="white"/>
<path d="M44.3769 42.1603C44.187 42.1603 44.033 42.3143 44.033 42.5042V44.3948C44.033 44.5847 44.187 44.7387 44.3769 44.7387H50.6225C50.8124 44.7387 50.9664 44.8926 50.9664 45.0825V47.9481C50.9664 48.1381 50.8124 48.292 50.6225 48.292H40.2169C40.027 48.292 39.873 48.1381 39.873 47.9481V33.0359C39.873 32.846 40.027 32.692 40.2169 32.692H50.4058C50.5958 32.692 50.7497 32.846 50.7497 33.0359V35.9231C50.7497 36.113 50.5958 36.267 50.4058 36.267H44.3769C44.187 36.267 44.033 36.421 44.033 36.6109V38.2631C44.033 38.453 44.187 38.607 44.3769 38.607H49.8858C50.0758 38.607 50.2297 38.761 50.2297 38.9509V41.8165C50.2297 42.0064 50.0758 42.1603 49.8858 42.1603H44.3769Z" fill="white"/>
<path d="M66.552 47.7775C66.683 48.0068 66.5175 48.292 66.2535 48.292H62.4525C62.3289 48.292 62.2149 48.2258 62.1537 48.1185L59.535 43.5255C59.4738 43.4182 59.3598 43.352 59.2362 43.352H58.0032C57.8133 43.352 57.6593 43.506 57.6593 43.6959V47.9481C57.6593 48.1381 57.5054 48.292 57.3155 48.292H53.8432C53.6533 48.292 53.4993 48.1381 53.4993 47.9481V33.0359C53.4993 32.846 53.6533 32.692 53.8432 32.692H60.216C62.1227 32.692 63.6827 33.1687 64.896 34.1003C66.1094 35.032 66.716 36.3537 66.716 38.022C66.716 40.0763 65.7041 41.6341 63.9848 42.5163C63.8031 42.6096 63.7277 42.835 63.8291 43.0124L66.552 47.7775ZM60.216 36.1587H58.0032C57.8133 36.1587 57.6593 36.3126 57.6593 36.5025V39.5415C57.6593 39.7314 57.8133 39.8853 58.0032 39.8853H60.216C61.6243 39.8853 62.426 39.2353 62.426 38.022C62.426 36.8087 61.6243 36.1587 60.216 36.1587Z" fill="white"/>
<path d="M73.7824 47.9481C73.7824 48.1381 73.6284 48.292 73.4385 48.292H69.9663C69.7764 48.292 69.6224 48.1381 69.6224 47.9481V33.0359C69.6224 32.846 69.7764 32.692 69.9663 32.692H73.4385C73.6284 32.692 73.7824 32.846 73.7824 33.0359V47.9481Z" fill="white"/>
<path d="M89.8165 32.9105C89.8681 32.7787 89.9952 32.692 90.1367 32.692H92.9754C93.1407 32.692 93.2826 32.8096 93.3133 32.972L96.1301 47.8843C96.17 48.0961 96.0077 48.292 95.7922 48.292H92.4848C92.319 48.292 92.1768 48.1737 92.1467 48.0107L90.9268 41.4164C90.8636 41.0746 90.391 41.0317 90.2673 41.3566L87.7114 48.0705C87.6606 48.2039 87.5327 48.292 87.39 48.292H84.5064C84.3633 48.292 84.2353 48.2035 84.1847 48.0697L81.6472 41.3571C81.5243 41.032 81.0517 41.0736 80.9876 41.4153L79.7497 48.0116C79.7192 48.1742 79.5772 48.292 79.4117 48.292H76.1036C75.8881 48.292 75.7257 48.0961 75.7657 47.8843L78.5825 32.972C78.6132 32.8096 78.7551 32.692 78.9204 32.692H81.7595C81.9008 32.692 82.0277 32.7784 82.0795 32.9099L85.6379 41.9517C85.7523 42.2426 86.1641 42.2422 86.2781 41.9511L89.8165 32.9105Z" fill="white"/>
<path d="M97.235 40.492C97.235 38.087 98.0367 36.1153 99.64 34.5987C101.243 33.0603 103.28 32.302 105.728 32.302C108.177 32.302 110.213 33.0603 111.817 34.5987C113.42 36.1153 114.222 38.087 114.222 40.492C114.222 42.9187 113.42 44.8903 111.817 46.407C110.213 47.9237 108.177 48.682 105.728 48.682C103.28 48.682 101.243 47.9237 99.64 46.407C98.0367 44.8903 97.235 42.9187 97.235 40.492ZM102.717 43.742C103.475 44.587 104.493 44.9987 105.728 44.9987C106.963 44.9987 107.982 44.587 108.74 43.742C109.498 42.897 109.888 41.8137 109.888 40.492C109.888 39.1703 109.498 38.1087 108.74 37.2637C107.982 36.4187 106.963 35.9853 105.728 35.9853C104.493 35.9853 103.475 36.4187 102.717 37.2637C101.958 38.1087 101.568 39.1703 101.568 40.492C101.568 41.8137 101.958 42.897 102.717 43.742Z" fill="white"/>
<path d="M124.205 40.3592C124.205 40.1693 124.359 40.0153 124.548 40.0153H131.704C131.894 40.0153 132.048 40.1697 132.043 40.3595C131.977 42.8839 131.178 44.8916 129.665 46.3637C128.083 47.902 126.133 48.682 123.771 48.682C121.41 48.682 119.46 47.9237 117.878 46.407C116.296 44.8687 115.516 42.897 115.516 40.492C115.516 38.087 116.296 36.1153 117.878 34.5987C119.46 33.0603 121.41 32.302 123.771 32.302C125.743 32.302 127.455 32.8437 128.928 33.9053C130.333 34.9031 131.241 36.2263 131.65 37.8928C131.695 38.0727 131.58 38.2511 131.4 38.2941L128.229 39.0507C128.05 39.0934 127.871 38.9868 127.81 38.8132C127.125 36.8472 125.611 35.9853 123.901 35.9853C122.688 35.9853 121.713 36.4187 120.955 37.2637C120.218 38.1087 119.85 39.1703 119.85 40.492C119.85 41.792 120.218 42.8753 120.976 43.7203C121.735 44.5653 122.71 44.9987 123.901 44.9987C125.074 44.9987 126.036 44.6232 126.763 43.8597C126.954 43.6593 126.797 43.352 126.52 43.352H124.548C124.359 43.352 124.205 43.198 124.205 43.0081V40.3592Z" fill="white"/>
<path d="M138.65 32.692C138.84 32.692 138.994 32.846 138.994 33.0359V44.3948C138.994 44.5847 139.148 44.7387 139.338 44.7387H145.475C145.665 44.7387 145.819 44.8926 145.819 45.0825V47.9481C145.819 48.1381 145.665 48.292 145.475 48.292H135.178C134.988 48.292 134.834 48.1381 134.834 47.9481V33.0359C134.834 32.846 134.988 32.692 135.178 32.692H138.65Z" fill="white"/>
<path d="M146.527 42.1603V33.0359C146.527 32.846 146.681 32.692 146.871 32.692H150.343C150.533 32.692 150.687 32.846 150.687 33.0359V41.467C150.687 43.6987 151.749 44.9987 153.764 44.9987C155.779 44.9987 156.841 43.6987 156.841 41.467V33.0359C156.841 32.846 156.995 32.692 157.184 32.692H160.657C160.847 32.692 161.001 32.846 161.001 33.0359V42.1603C161.001 44.2187 160.307 45.822 158.921 46.9703C157.534 48.1187 155.822 48.682 153.764 48.682C151.706 48.682 149.994 48.1187 148.607 46.9703C147.221 45.822 146.527 44.2187 146.527 42.1603Z" fill="white"/>
</svg>
