<svg width="326" height="158" viewBox="0 0 326 158" fill="none" xmlns="http://www.w3.org/2000/svg">
<g filter="url(#filter0_d_0_112)">
<rect x="32" y="32" width="262" height="94" rx="12" fill="white" shape-rendering="crispEdges"/>
<rect x="48" y="55" width="48" height="48" rx="24" fill="white"/>
<path d="M91.611 75.083H90V75H72V83H83.303C81.654 87.657 77.223 91 72 91C65.373 91 60 85.627 60 79C60 72.373 65.373 67 72 67C75.059 67 77.842 68.154 79.961 70.039L85.618 64.382C82.046 61.053 77.268 59 72 59C60.955 59 52 67.955 52 79C52 90.045 60.955 99 72 99C83.045 99 92 90.045 92 79C92 77.659 91.862 76.35 91.611 75.083Z" fill="#FFC107"/>
<path d="M54.3047 69.691L60.8757 74.51C62.6537 70.108 66.9597 67 71.9987 67C75.0577 67 77.8407 68.154 79.9597 70.039L85.6167 64.382C82.0447 61.053 77.2667 59 71.9987 59C64.3167 59 57.6547 63.337 54.3047 69.691Z" fill="#FF3D00"/>
<path d="M72.0003 99C77.1663 99 81.8603 97.023 85.4093 93.808L79.2193 88.57C77.1439 90.1483 74.6078 91.002 72.0003 91C66.7983 91 62.3813 87.683 60.7173 83.054L54.1953 88.079C57.5053 94.556 64.2273 99 72.0003 99Z" fill="#4CAF50"/>
<path d="M91.611 75.083H90V75H72V83H83.303C82.5142 85.2164 81.0934 87.1532 79.216 88.571L79.219 88.569L85.409 93.807C84.971 94.205 92 89 92 79C92 77.659 91.862 76.35 91.611 75.083Z" fill="#1976D2"/>
<path d="M115.9 67.6V72.2H123.24V74H113.84V59.6H123.04V61.4H115.9V65.8H122.44V67.6H115.9ZM130.587 69.22L134.387 74H132.127L129.347 70.52L126.687 74H124.507L128.247 69.16L124.527 64.48H126.807L129.507 67.86L132.007 64.48H134.187L130.587 69.22ZM141.95 70.72L143.59 71.36C142.89 73.18 141.17 74.22 139.15 74.22C137.69 74.22 136.49 73.76 135.51 72.82C134.53 71.88 134.05 70.68 134.05 69.24C134.05 67.8 134.53 66.62 135.49 65.68C136.45 64.74 137.65 64.26 139.07 64.26C141.09 64.26 142.77 65.3 143.43 67.12L141.79 67.76C141.27 66.54 140.37 65.94 139.09 65.94C138.19 65.94 137.43 66.26 136.83 66.88C136.25 67.5 135.95 68.3 135.95 69.24C135.95 70.18 136.25 70.98 136.85 71.6C137.45 72.22 138.23 72.52 139.17 72.52C140.39 72.52 141.45 71.9 141.95 70.72ZM150.008 72.6C151.308 72.6 152.248 72.02 152.828 70.84L154.328 71.44C153.688 73.18 152.108 74.22 149.968 74.22C148.508 74.22 147.288 73.76 146.348 72.84C145.408 71.9 144.948 70.7 144.948 69.22C144.948 67.76 145.388 66.56 146.248 65.64C147.128 64.72 148.308 64.26 149.768 64.26C151.148 64.26 152.268 64.68 153.108 65.5C153.968 66.32 154.388 67.36 154.388 68.62C154.388 68.94 154.348 69.28 154.268 69.64H146.908C147.128 71.42 148.268 72.6 150.008 72.6ZM149.688 65.86C148.168 65.86 147.208 66.76 146.948 68.28H152.388C152.228 66.84 151.268 65.86 149.688 65.86ZM158.722 74H156.722V59.6H158.722V74ZM163.663 74H161.663V59.6H163.663V74ZM170.985 72.6C172.285 72.6 173.225 72.02 173.805 70.84L175.305 71.44C174.665 73.18 173.085 74.22 170.945 74.22C169.485 74.22 168.265 73.76 167.325 72.84C166.385 71.9 165.925 70.7 165.925 69.22C165.925 67.76 166.365 66.56 167.225 65.64C168.105 64.72 169.285 64.26 170.745 64.26C172.125 64.26 173.245 64.68 174.085 65.5C174.945 66.32 175.365 67.36 175.365 68.62C175.365 68.94 175.325 69.28 175.245 69.64H167.885C168.105 71.42 169.245 72.6 170.985 72.6ZM170.665 65.86C169.145 65.86 168.185 66.76 167.925 68.28H173.365C173.205 66.84 172.245 65.86 170.665 65.86ZM182.938 64.26C185.338 64.26 186.878 65.94 186.878 68.8V74H184.878V69.1C184.878 67.1 183.958 65.98 182.378 65.98C180.638 65.98 179.698 67.36 179.698 69.3V74H177.698V64.48H179.518V66.46C180.178 65 181.318 64.26 182.938 64.26ZM191.793 64.5H194.313V66.2H191.793V74H189.873V66.2H187.693V64.5H189.873V61.2H191.793V64.5ZM203.659 74.22C201.359 74.22 199.739 73.14 199.399 70.98L201.079 70.66C201.379 72 202.219 72.68 203.579 72.68C204.779 72.68 205.619 72.16 205.619 71.3C205.619 70.5 204.899 70.16 203.639 69.98L203.119 69.9C200.939 69.54 199.839 68.58 199.839 67.04C199.839 65.28 201.299 64.24 203.399 64.24C205.579 64.24 206.879 65.18 207.279 67.06L205.599 67.4C205.319 66.34 204.639 65.8 203.539 65.8C202.639 65.8 201.859 66.22 201.859 67.04C201.859 67.9 202.719 68.26 204.079 68.44L204.639 68.52C206.639 68.82 207.639 69.74 207.639 71.28C207.639 72.22 207.259 72.96 206.499 73.46C205.739 73.96 204.799 74.22 203.659 74.22ZM214.227 72.6C215.527 72.6 216.467 72.02 217.047 70.84L218.547 71.44C217.907 73.18 216.327 74.22 214.187 74.22C212.727 74.22 211.507 73.76 210.567 72.84C209.627 71.9 209.167 70.7 209.167 69.22C209.167 67.76 209.607 66.56 210.467 65.64C211.347 64.72 212.527 64.26 213.987 64.26C215.367 64.26 216.487 64.68 217.327 65.5C218.187 66.32 218.607 67.36 218.607 68.62C218.607 68.94 218.567 69.28 218.487 69.64H211.127C211.347 71.42 212.487 72.6 214.227 72.6ZM213.907 65.86C212.387 65.86 211.427 66.76 211.167 68.28H216.607C216.447 66.84 215.487 65.86 213.907 65.86ZM226.14 64.26C226.36 64.26 226.66 64.32 227.02 64.42L226.6 66.42C226.36 66.3 226.1 66.24 225.84 66.24C224.14 66.24 222.96 67.64 222.96 70.14V74H220.94V64.48H222.82V66.86C223.44 65.2 224.6 64.26 226.14 64.26ZM233.616 71.68L236.816 64.48H238.856L234.436 74H232.716L228.296 64.48H230.416L233.616 71.68ZM241.648 62.72C240.848 62.72 240.308 62.14 240.308 61.4C240.308 60.68 240.868 60.08 241.648 60.08C242.388 60.08 242.968 60.68 242.968 61.4C242.968 62.14 242.388 62.72 241.648 62.72ZM242.628 74H240.628V64.5H242.628V74ZM252.75 70.72L254.39 71.36C253.69 73.18 251.97 74.22 249.95 74.22C248.49 74.22 247.29 73.76 246.31 72.82C245.33 71.88 244.85 70.68 244.85 69.24C244.85 67.8 245.33 66.62 246.29 65.68C247.25 64.74 248.45 64.26 249.87 64.26C251.89 64.26 253.57 65.3 254.23 67.12L252.59 67.76C252.07 66.54 251.17 65.94 249.89 65.94C248.99 65.94 248.23 66.26 247.63 66.88C247.05 67.5 246.75 68.3 246.75 69.24C246.75 70.18 247.05 70.98 247.65 71.6C248.25 72.22 249.03 72.52 249.97 72.52C251.19 72.52 252.25 71.9 252.75 70.72ZM260.809 72.6C262.109 72.6 263.049 72.02 263.629 70.84L265.129 71.44C264.489 73.18 262.909 74.22 260.769 74.22C259.309 74.22 258.089 73.76 257.149 72.84C256.209 71.9 255.749 70.7 255.749 69.22C255.749 67.76 256.189 66.56 257.049 65.64C257.929 64.72 259.109 64.26 260.569 64.26C261.949 64.26 263.069 64.68 263.909 65.5C264.769 66.32 265.189 67.36 265.189 68.62C265.189 68.94 265.149 69.28 265.069 69.64H257.709C257.929 71.42 259.069 72.6 260.809 72.6ZM260.489 65.86C258.969 65.86 258.009 66.76 257.749 68.28H263.189C263.029 66.84 262.069 65.86 260.489 65.86Z" fill="#04000E"/>
<path opacity="0.8" d="M119.408 95.528H121.44V96.552H119.408V99H118.224V96.552H113.088V95.528L117.376 87.48H118.64L114.368 95.528H118.224V92.936H119.408V95.528ZM124.886 99.144C124.422 99.144 124.038 98.776 124.038 98.28C124.038 97.784 124.39 97.432 124.886 97.432C125.382 97.432 125.734 97.784 125.734 98.28C125.734 98.776 125.382 99.144 124.886 99.144ZM131.775 99H130.495L134.015 93.736C133.583 94.12 132.991 94.312 132.271 94.312C131.359 94.312 130.543 94.008 129.839 93.416C129.151 92.808 128.799 91.96 128.799 90.872C128.799 89.752 129.151 88.888 129.871 88.264C130.591 87.64 131.487 87.336 132.527 87.336C133.567 87.336 134.447 87.64 135.167 88.264C135.887 88.888 136.239 89.752 136.239 90.872C136.239 91.864 135.871 92.92 135.119 94.056L131.775 99ZM132.527 93.384C133.423 93.384 134.095 93.08 134.559 92.456C134.879 92.056 135.039 91.528 135.039 90.872C135.039 89.32 133.951 88.376 132.527 88.376C131.103 88.376 129.999 89.32 129.999 90.872C129.999 92.456 131.071 93.384 132.527 93.384Z" fill="#04000E"/>
<path d="M153.049 84.5145C153.348 83.5931 154.652 83.5931 154.951 84.5145L156.608 89.6149C156.742 90.027 157.126 90.3059 157.559 90.3059L162.922 90.3059C163.891 90.3059 164.294 91.5455 163.51 92.1149L159.171 95.2672C158.821 95.5218 158.674 95.9732 158.808 96.3852L160.465 101.486C160.765 102.407 159.71 103.173 158.927 102.604L154.588 99.4515C154.237 99.1968 153.763 99.1968 153.412 99.4515L149.073 102.604C148.29 103.173 147.235 102.407 147.535 101.486L149.192 96.3852C149.326 95.9732 149.179 95.5218 148.829 95.2672L144.49 92.1149C143.706 91.5455 144.109 90.3059 145.078 90.3059L150.441 90.3059C150.874 90.3059 151.258 90.027 151.392 89.6149L153.049 84.5145Z" fill="#F2C94C"/>
<path d="M181.049 84.5145C181.348 83.5931 182.652 83.5931 182.951 84.5145L184.608 89.6149C184.742 90.027 185.126 90.3059 185.559 90.3059L190.922 90.3059C191.891 90.3059 192.294 91.5455 191.51 92.1149L187.171 95.2672C186.821 95.5218 186.674 95.9732 186.808 96.3852L188.465 101.486C188.765 102.407 187.71 103.173 186.927 102.604L182.588 99.4515C182.237 99.1968 181.763 99.1968 181.412 99.4515L177.073 102.604C176.29 103.173 175.235 102.407 175.535 101.486L177.192 96.3852C177.326 95.9732 177.179 95.5218 176.829 95.2672L172.49 92.1149C171.706 91.5455 172.109 90.3059 173.078 90.3059L178.441 90.3059C178.874 90.3059 179.258 90.027 179.392 89.6149L181.049 84.5145Z" fill="#F2C94C"/>
<path d="M209.049 84.5145C209.348 83.5931 210.652 83.5931 210.951 84.5145L212.608 89.6149C212.742 90.027 213.126 90.3059 213.559 90.3059L218.922 90.3059C219.891 90.3059 220.294 91.5455 219.51 92.1149L215.171 95.2672C214.821 95.5218 214.674 95.9732 214.808 96.3852L216.465 101.486C216.765 102.407 215.71 103.173 214.927 102.604L210.588 99.4515C210.237 99.1968 209.763 99.1968 209.412 99.4515L205.073 102.604C204.29 103.173 203.235 102.407 203.535 101.486L205.192 96.3852C205.326 95.9732 205.179 95.5218 204.829 95.2672L200.49 92.1149C199.706 91.5455 200.109 90.3059 201.078 90.3059L206.441 90.3059C206.874 90.3059 207.258 90.027 207.392 89.6149L209.049 84.5145Z" fill="#F2C94C"/>
<path d="M237.049 84.5145C237.348 83.5931 238.652 83.5931 238.951 84.5145L240.608 89.6149C240.742 90.027 241.126 90.3059 241.559 90.3059L246.922 90.3059C247.891 90.3059 248.294 91.5455 247.51 92.1149L243.171 95.2672C242.821 95.5218 242.674 95.9732 242.808 96.3852L244.465 101.486C244.765 102.407 243.71 103.173 242.927 102.604L238.588 99.4515C238.237 99.1968 237.763 99.1968 237.412 99.4515L233.073 102.604C232.29 103.173 231.235 102.407 231.535 101.486L233.192 96.3852C233.326 95.9732 233.179 95.5218 232.829 95.2672L228.49 92.1149C227.706 91.5455 228.109 90.3059 229.078 90.3059L234.441 90.3059C234.874 90.3059 235.258 90.027 235.392 89.6149L237.049 84.5145Z" fill="#F2C94C"/>
<path d="M265.049 84.5145C265.348 83.5931 266.652 83.5931 266.951 84.5145L268.608 89.6149C268.742 90.027 269.126 90.3059 269.559 90.3059L274.922 90.3059C275.891 90.3059 276.294 91.5455 275.51 92.1149L271.171 95.2672C270.821 95.5218 270.674 95.9732 270.808 96.3852L272.465 101.486C272.765 102.407 271.71 103.173 270.927 102.604L266.588 99.4515C266.237 99.1968 265.763 99.1968 265.412 99.4515L261.073 102.604C260.29 103.173 259.235 102.407 259.535 101.486L261.192 96.3852C261.326 95.9732 261.179 95.5218 260.829 95.2672L256.49 92.1149C255.706 91.5455 256.109 90.3059 257.078 90.3059L262.441 90.3059C262.874 90.3059 263.258 90.027 263.392 89.6149L265.049 84.5145Z" fill="#F2C94C"/>
</g>
<defs>
<filter id="filter0_d_0_112" x="0" y="0" width="326" height="158" filterUnits="userSpaceOnUse" color-interpolation-filters="sRGB">
<feFlood flood-opacity="0" result="BackgroundImageFix"/>
<feColorMatrix in="SourceAlpha" type="matrix" values="0 0 0 0 0 0 0 0 0 0 0 0 0 0 0 0 0 0 127 0" result="hardAlpha"/>
<feOffset/>
<feGaussianBlur stdDeviation="16"/>
<feComposite in2="hardAlpha" operator="out"/>
<feColorMatrix type="matrix" values="0 0 0 0 0 0 0 0 0 0 0 0 0 0 0 0 0 0 0.12 0"/>
<feBlend mode="normal" in2="BackgroundImageFix" result="effect1_dropShadow_0_112"/>
<feBlend mode="normal" in="SourceGraphic" in2="effect1_dropShadow_0_112" result="shape"/>
</filter>
</defs>
</svg>
