<svg width="190" height="131" viewBox="0 0 190 131" fill="none" xmlns="http://www.w3.org/2000/svg">
<path d="M151.245 58.6845C152.399 57.5511 153.375 56.25 154.14 54.8252C154.223 54.6865 154.357 54.5852 154.513 54.5421C154.668 54.4991 154.835 54.5177 154.977 54.5941C155.12 54.6705 155.227 54.7988 155.278 54.9525C155.328 55.1061 155.317 55.2731 155.248 55.419C154.421 56.9507 153.368 58.3495 152.126 59.5686C152.071 59.6388 152.002 59.6966 151.923 59.738C151.844 59.7794 151.757 59.8036 151.668 59.809C151.579 59.8143 151.49 59.8006 151.407 59.7689C151.323 59.7372 151.248 59.6882 151.185 59.6251C151.122 59.562 151.073 59.4862 151.042 59.4028C151.011 59.3194 150.997 59.2302 151.003 59.1413C151.009 59.0523 151.033 58.9656 151.075 58.8869C151.117 58.8081 151.174 58.7391 151.245 58.6845Z" fill="#1F6FA9"/>
<path d="M153.77 121.725C155.399 121.99 157.048 122.208 158.717 122.38C158.883 122.396 159.037 122.478 159.142 122.608C159.248 122.738 159.298 122.904 159.282 123.071C159.265 123.237 159.183 123.39 159.053 123.496C158.924 123.602 158.757 123.652 158.591 123.636C156.896 123.461 155.222 123.24 153.569 122.971C153.486 122.958 153.407 122.929 153.336 122.885C153.265 122.841 153.203 122.784 153.155 122.716C153.106 122.648 153.071 122.572 153.051 122.491C153.032 122.409 153.029 122.325 153.042 122.243C153.055 122.16 153.085 122.081 153.128 122.01C153.172 121.939 153.23 121.878 153.297 121.829C153.365 121.78 153.441 121.745 153.523 121.725C153.604 121.706 153.688 121.703 153.77 121.716L153.77 121.725Z" fill="#1F6FA9"/>
<path d="M144.042 119.52C145.629 119.983 147.24 120.401 148.875 120.773C148.955 120.791 149.031 120.824 149.098 120.872C149.166 120.919 149.223 120.979 149.267 121.049C149.31 121.119 149.34 121.196 149.354 121.277C149.368 121.358 149.365 121.441 149.347 121.521C149.329 121.602 149.295 121.678 149.248 121.746C149.2 121.814 149.139 121.871 149.07 121.915C149 121.96 148.922 121.99 148.84 122.004C148.759 122.018 148.675 122.016 148.594 121.997C146.922 121.622 145.288 121.199 143.69 120.727C143.534 120.676 143.404 120.567 143.328 120.423C143.251 120.278 143.234 120.109 143.28 119.952C143.326 119.795 143.431 119.662 143.573 119.582C143.715 119.501 143.883 119.479 144.042 119.52Z" fill="#1F6FA9"/>
<path d="M142.885 63.6006C144.425 63.007 145.931 62.3278 147.395 61.5663C147.54 61.4945 147.707 61.4814 147.861 61.5295C148.016 61.5776 148.146 61.6833 148.224 61.8247C148.302 61.966 148.323 62.1322 148.283 62.2886C148.242 62.445 148.142 62.5797 148.005 62.6647L147.984 62.6644C146.479 63.4494 144.929 64.1463 143.343 64.7514C143.265 64.7875 143.18 64.8072 143.094 64.8091C143.008 64.8111 142.923 64.7954 142.843 64.763C142.763 64.7306 142.691 64.6822 142.631 64.6207C142.571 64.5592 142.524 64.486 142.493 64.4056C142.462 64.3252 142.448 64.2394 142.452 64.1534C142.455 64.0674 142.477 63.983 142.514 63.9056C142.552 63.8282 142.605 63.7593 142.67 63.7032C142.736 63.6472 142.812 63.6051 142.894 63.5797L142.885 63.6006Z" fill="#1F6FA9"/>
<path d="M133.303 66.1479C134.939 65.8926 136.56 65.5525 138.16 65.1288C138.241 65.105 138.325 65.0977 138.409 65.1073C138.492 65.1169 138.573 65.1432 138.647 65.1845C138.72 65.2259 138.784 65.2816 138.835 65.3483C138.887 65.415 138.924 65.4913 138.945 65.5726C138.967 65.654 138.972 65.7389 138.96 65.8222C138.947 65.9055 138.919 65.9855 138.875 66.0575C138.832 66.1295 138.774 66.192 138.706 66.2413C138.638 66.2907 138.561 66.3258 138.479 66.3448C136.837 66.7798 135.174 67.1292 133.496 67.3915C133.329 67.4176 133.158 67.3762 133.022 67.2764C132.885 67.1766 132.794 67.0267 132.768 66.8596C132.741 66.6924 132.783 66.5217 132.883 66.3851C132.982 66.2485 133.132 66.1571 133.299 66.1311L133.303 66.1479Z" fill="#1F6FA9"/>
<path d="M163.693 122.737C164.481 122.769 165.269 122.792 166.065 122.803C166.933 122.815 167.809 122.827 168.686 122.798C168.768 122.796 168.851 122.811 168.928 122.841C169.004 122.871 169.075 122.916 169.134 122.973C169.194 123.03 169.242 123.099 169.275 123.174C169.308 123.25 169.326 123.332 169.327 123.414C169.329 123.497 169.314 123.579 169.284 123.656C169.254 123.733 169.209 123.803 169.152 123.863C169.094 123.922 169.026 123.97 168.95 124.003C168.875 124.036 168.793 124.054 168.71 124.056C167.819 124.074 166.931 124.076 166.048 124.061C165.239 124.05 164.439 124.039 163.643 123.994C163.476 123.988 163.319 123.915 163.206 123.792C163.092 123.67 163.033 123.507 163.039 123.34C163.046 123.174 163.119 123.017 163.241 122.903C163.364 122.79 163.527 122.731 163.693 122.737Z" fill="#1F6FA9"/>
<path d="M131.136 27.1318C129.49 27.2435 127.853 27.4675 126.238 27.8024C126.074 27.8357 125.904 27.8026 125.764 27.7102C125.625 27.6179 125.528 27.474 125.494 27.31C125.461 27.1461 125.494 26.9757 125.586 26.8362C125.679 26.6968 125.823 26.5997 125.987 26.5663C127.658 26.2228 129.35 25.9926 131.052 25.8771C131.219 25.8661 131.384 25.9218 131.51 26.032C131.635 26.1423 131.712 26.298 131.723 26.4649C131.734 26.6318 131.679 26.7963 131.569 26.9222C131.458 27.0481 131.303 27.125 131.136 27.136L131.136 27.1318Z" fill="#1F6FA9"/>
<path d="M140.87 28.1251C139.297 27.6736 137.686 27.3707 136.056 27.2205C135.89 27.2043 135.737 27.1226 135.63 26.9934C135.524 26.8641 135.473 26.698 135.489 26.5314C135.506 26.3648 135.587 26.2115 135.717 26.1052C135.846 25.9988 136.012 25.9482 136.179 25.9644C137.888 26.1249 139.578 26.4486 141.226 26.9309C141.386 26.9782 141.52 27.087 141.6 27.2336C141.68 27.3801 141.698 27.5524 141.651 27.7124C141.604 27.8724 141.495 28.0071 141.348 28.0869C141.202 28.1667 141.029 28.1849 140.869 28.1377L140.87 28.1251Z" fill="#1F6FA9"/>
<path d="M134.655 116.142C136.172 116.797 137.719 117.408 139.296 117.975C139.453 118.032 139.581 118.15 139.651 118.302C139.721 118.454 139.728 118.628 139.67 118.785C139.613 118.942 139.495 119.069 139.343 119.14C139.191 119.21 139.017 119.217 138.86 119.159C137.258 118.584 135.686 117.958 134.144 117.296C134.066 117.264 133.996 117.218 133.936 117.159C133.877 117.1 133.83 117.029 133.798 116.952C133.766 116.874 133.75 116.791 133.751 116.707C133.752 116.624 133.769 116.541 133.803 116.464C133.836 116.387 133.884 116.317 133.944 116.259C134.005 116.201 134.076 116.156 134.154 116.126C134.233 116.096 134.316 116.082 134.4 116.084C134.483 116.087 134.566 116.106 134.642 116.141L134.655 116.142Z" fill="#1F6FA9"/>
<path d="M97.4691 45.7537C96.5815 47.136 95.8099 48.5893 95.1622 50.099C95.0961 50.2526 94.9717 50.3737 94.8164 50.4357C94.661 50.4976 94.4874 50.4953 94.3338 50.4293C94.1801 50.3633 94.059 50.2389 93.9971 50.0835C93.9351 49.9282 93.9374 49.7545 94.0035 49.6009C94.6815 48.028 95.4876 46.5135 96.4135 45.0725C96.5075 44.9411 96.6485 44.8508 96.8072 44.8205C96.9659 44.7902 97.1303 44.8222 97.266 44.9098C97.4018 44.9974 97.4987 45.134 97.5365 45.2911C97.5743 45.4482 97.5501 45.6139 97.4691 45.7537Z" fill="#1F6FA9"/>
<path d="M99.2722 63.383C99.2216 63.5409 99.1107 63.6723 98.9636 63.7488C98.8165 63.8253 98.6451 63.8407 98.4868 63.7915C96.8864 63.2999 95.2837 62.7748 93.6787 62.2161C93.521 62.1583 93.3927 62.0403 93.3221 61.888C93.2515 61.7356 93.2443 61.5615 93.302 61.4038C93.3598 61.2462 93.4778 61.1179 93.6301 61.0473C93.7825 60.9767 93.9566 60.9694 94.1142 61.0272C95.6998 61.5814 97.2899 62.1064 98.8723 62.5893C99.0305 62.6416 99.1615 62.7546 99.2365 62.9034C99.3115 63.0522 99.3244 63.2247 99.2722 63.383Z" fill="#1F6FA9"/>
<path d="M112.33 33.0199C111.082 33.6876 109.815 34.415 108.526 35.2023L108.015 35.5223C107.874 35.6049 107.707 35.6296 107.548 35.5912C107.39 35.5529 107.252 35.4545 107.165 35.3168C107.078 35.179 107.047 35.0127 107.08 34.853C107.113 34.6933 107.207 34.5526 107.342 34.4607L107.866 34.1325C109.177 33.3287 110.466 32.589 111.733 31.9132C111.806 31.8682 111.887 31.8386 111.972 31.8263C112.057 31.8139 112.144 31.8191 112.226 31.8414C112.309 31.8637 112.387 31.9028 112.454 31.9561C112.521 32.0095 112.577 32.076 112.617 32.1516C112.658 32.2273 112.682 32.3104 112.689 32.3959C112.697 32.4814 112.686 32.5674 112.659 32.6487C112.632 32.7301 112.588 32.8049 112.531 32.8687C112.473 32.9326 112.403 32.984 112.326 33.0199L112.33 33.0199Z" fill="#1F6FA9"/>
<path d="M93.6024 54.7648C93.211 56.362 92.9433 57.9871 92.8019 59.6255C92.7947 59.708 92.7713 59.7883 92.7331 59.8617C92.6949 59.9352 92.6426 60.0004 92.5792 60.0536C92.5158 60.1069 92.4425 60.1471 92.3636 60.172C92.2846 60.1969 92.2015 60.2061 92.119 60.1989C92.0365 60.1917 91.9563 60.1683 91.8828 60.1301C91.8093 60.0919 91.7441 60.0396 91.6909 59.9762C91.6377 59.9128 91.5974 59.8395 91.5725 59.7605C91.5476 59.6815 91.5384 59.5985 91.5456 59.516C91.6919 57.8126 91.9702 56.1231 92.3781 54.4628C92.3955 54.3802 92.4293 54.3019 92.4776 54.2326C92.5259 54.1634 92.5876 54.1045 92.6592 54.0596C92.7307 54.0147 92.8105 53.9847 92.8939 53.9713C92.9773 53.958 93.0625 53.9615 93.1445 53.9818C93.2265 54.0021 93.3035 54.0387 93.371 54.0894C93.4386 54.1401 93.4952 54.2039 93.5375 54.277C93.5799 54.35 93.6071 54.4309 93.6175 54.5147C93.6279 54.5985 93.6213 54.6835 93.5982 54.7647L93.6024 54.7648Z" fill="#1F6FA9"/>
<path d="M125.756 111.634C127.179 112.467 128.639 113.264 130.138 114.025C130.278 114.105 130.382 114.236 130.429 114.391C130.475 114.546 130.46 114.712 130.387 114.856C130.314 115 130.188 115.11 130.036 115.164C129.884 115.218 129.717 115.211 129.569 115.145C128.048 114.378 126.565 113.568 125.121 112.715C125.043 112.677 124.974 112.623 124.918 112.557C124.862 112.491 124.821 112.415 124.796 112.332C124.771 112.249 124.764 112.162 124.774 112.076C124.784 111.99 124.812 111.907 124.856 111.832C124.9 111.758 124.959 111.693 125.029 111.642C125.099 111.591 125.178 111.556 125.263 111.537C125.347 111.518 125.435 111.517 125.52 111.534C125.605 111.551 125.685 111.585 125.756 111.634Z" fill="#1F6FA9"/>
<path d="M118.979 67.2509C118.972 67.3329 118.949 67.4127 118.911 67.4858C118.873 67.5589 118.821 67.6237 118.758 67.6766C118.695 67.7295 118.622 67.7694 118.544 67.7941C118.465 67.8187 118.383 67.8276 118.301 67.8201C116.626 67.6797 114.951 67.4765 113.278 67.2229C113.195 67.2107 113.116 67.1825 113.045 67.1397C112.973 67.097 112.911 67.0406 112.861 66.9737C112.812 66.9068 112.775 66.8308 112.755 66.75C112.735 66.6692 112.731 66.5852 112.743 66.5028C112.755 66.4204 112.783 66.3412 112.826 66.2697C112.869 66.1982 112.925 66.1358 112.992 66.0861C113.059 66.0364 113.135 66.0003 113.216 65.98C113.296 65.9597 113.38 65.9555 113.463 65.9677C115.136 66.217 116.788 66.413 118.419 66.5556C118.501 66.5641 118.581 66.5889 118.654 66.6285C118.727 66.6681 118.792 66.7218 118.844 66.7864C118.896 66.8511 118.935 66.9254 118.958 67.0051C118.981 67.0848 118.989 67.1684 118.979 67.2509Z" fill="#1F6FA9"/>
<path d="M149.383 32.7784C148.161 31.6986 146.821 30.7604 145.388 29.9815C145.312 29.9442 145.244 29.8918 145.189 29.8275C145.133 29.7632 145.091 29.6883 145.066 29.6074C145.04 29.5264 145.031 29.4411 145.039 29.3566C145.047 29.2721 145.072 29.1901 145.113 29.1156C145.154 29.041 145.209 28.9755 145.276 28.923C145.342 28.8704 145.419 28.8319 145.501 28.8098C145.583 28.7877 145.669 28.7824 145.753 28.7943C145.837 28.8061 145.918 28.8349 145.99 28.8788C147.507 29.7016 148.925 30.6945 150.218 31.8381C150.342 31.951 150.417 32.1088 150.425 32.2768C150.434 32.4448 150.375 32.6092 150.262 32.7338C150.149 32.8585 149.991 32.9332 149.823 32.9415C149.655 32.9498 149.491 32.891 149.366 32.7781L149.383 32.7784Z" fill="#1F6FA9"/>
<path d="M156.264 51.0099C156.101 50.979 155.956 50.8845 155.862 50.7473C155.768 50.6101 155.733 50.4413 155.763 50.2777C155.948 49.3115 156.047 48.3308 156.059 47.347C156.067 46.7069 156.039 46.0669 155.976 45.4298C155.96 45.2628 156.011 45.0963 156.118 44.9668C156.224 44.8374 156.378 44.7556 156.545 44.7396C156.712 44.7235 156.879 44.7745 157.008 44.8813C157.138 44.988 157.219 45.1418 157.236 45.3088C157.301 45.9919 157.33 46.6781 157.32 47.3643C157.306 48.4154 157.2 49.4631 157.005 50.496C156.991 50.5789 156.961 50.6582 156.916 50.7292C156.871 50.8002 156.812 50.8615 156.743 50.9094C156.674 50.9573 156.596 50.9908 156.514 51.0081C156.432 51.0254 156.347 51.026 156.264 51.0099Z" fill="#1F6FA9"/>
<path d="M121.466 29.0742C119.962 29.5692 118.416 30.1559 116.83 30.8469C116.753 30.8858 116.67 30.9087 116.584 30.9142C116.498 30.9196 116.412 30.9074 116.332 30.8783C116.251 30.8493 116.177 30.8041 116.114 30.7454C116.052 30.6867 116.002 30.6157 115.967 30.537C115.933 30.4582 115.916 30.3733 115.915 30.2875C115.915 30.2017 115.933 30.1167 115.967 30.0378C116.001 29.959 116.05 29.8879 116.113 29.829C116.175 29.7702 116.249 29.7247 116.33 29.6954C117.955 28.9883 119.538 28.3839 121.08 27.8824C121.158 27.856 121.241 27.8452 121.323 27.8507C121.406 27.8562 121.486 27.8779 121.56 27.9146C121.634 27.9512 121.7 28.0021 121.755 28.0642C121.809 28.1264 121.851 28.1988 121.877 28.277C121.904 28.3553 121.914 28.438 121.909 28.5204C121.903 28.6028 121.882 28.6834 121.845 28.7575C121.808 28.8315 121.758 28.8976 121.695 28.952C121.633 29.0064 121.561 29.048 121.483 29.0744L121.466 29.0742Z" fill="#1F6FA9"/>
<path d="M155.68 41.0906C155.523 41.1489 155.35 41.143 155.198 41.0742C155.046 41.0053 154.927 40.8791 154.867 40.7231C154.296 39.2005 153.537 37.7549 152.608 36.4198C152.513 36.2828 152.476 36.1136 152.505 35.9493C152.534 35.785 152.628 35.639 152.765 35.5436C152.902 35.4482 153.071 35.4111 153.235 35.4405C153.4 35.4699 153.546 35.5633 153.641 35.7003C154.629 37.1223 155.438 38.6614 156.047 40.2823C156.106 40.4382 156.1 40.6109 156.031 40.7624C155.962 40.9139 155.836 41.0319 155.68 41.0906Z" fill="#1F6FA9"/>
<path d="M173.674 122.568C174.669 122.494 175.672 122.403 176.676 122.291C176.758 122.282 176.842 122.289 176.922 122.312C177.002 122.336 177.076 122.374 177.141 122.426C177.206 122.479 177.26 122.543 177.3 122.616C177.34 122.689 177.365 122.769 177.374 122.852C177.383 122.934 177.376 123.018 177.353 123.098C177.329 123.178 177.291 123.252 177.239 123.317C177.186 123.382 177.122 123.436 177.049 123.476C176.976 123.516 176.896 123.541 176.813 123.55C175.794 123.662 174.78 123.756 173.77 123.831C173.687 123.838 173.604 123.828 173.525 123.802C173.447 123.776 173.374 123.735 173.311 123.681C173.248 123.627 173.196 123.561 173.159 123.487C173.121 123.413 173.099 123.333 173.092 123.25C173.086 123.167 173.096 123.084 173.122 123.005C173.148 122.926 173.189 122.854 173.243 122.791C173.297 122.728 173.363 122.676 173.437 122.639C173.511 122.601 173.591 122.579 173.674 122.572L173.674 122.568Z" fill="#1F6FA9"/>
<path d="M93.6698 73.8714C93.7494 73.8479 93.8329 73.8404 93.9154 73.8494C93.9979 73.8583 94.0778 73.8835 94.1505 73.9235C94.2232 73.9635 94.2873 74.0174 94.3391 74.0823C94.3908 74.1471 94.4293 74.2216 94.4521 74.3014C94.917 75.8646 95.4685 77.4248 96.1068 78.982C96.1382 79.0584 96.1543 79.1403 96.1541 79.2229C96.1539 79.3055 96.1374 79.3873 96.1056 79.4636C96.0738 79.5399 96.0273 79.6091 95.9687 79.6674C95.9101 79.7256 95.8407 79.7718 95.7643 79.8032C95.6878 79.8347 95.606 79.8508 95.5234 79.8506C95.4407 79.8504 95.359 79.8339 95.2827 79.8021C95.2064 79.7703 95.1372 79.7238 95.0789 79.6652C95.0206 79.6066 94.9745 79.5372 94.943 79.4608C94.2885 77.867 93.7222 76.2675 93.2439 74.6621C93.2197 74.5822 93.2115 74.4983 93.2198 74.4153C93.2281 74.3322 93.2528 74.2516 93.2923 74.1781C93.3319 74.1046 93.3857 74.0397 93.4504 73.9871C93.5152 73.9344 93.5898 73.8951 93.6698 73.8714Z" fill="#1F6FA9"/>
<path d="M49.578 38.1194C50.9629 39.0356 52.3689 39.9451 53.7959 40.848C53.8709 40.8895 53.9367 40.9459 53.9891 41.0138C54.0415 41.0816 54.0795 41.1595 54.1007 41.2426C54.122 41.3257 54.126 41.4123 54.1125 41.497C54.099 41.5817 54.0683 41.6628 54.0224 41.7352C53.9764 41.8076 53.9161 41.8698 53.8452 41.9181C53.7743 41.9663 53.6942 41.9995 53.61 42.0157C53.5258 42.0319 53.4391 42.0307 53.3554 42.0121C53.2717 41.9935 53.1926 41.958 53.1231 41.9078C51.6989 41.0022 50.2874 40.0898 48.8885 39.1706C48.817 39.1265 48.755 39.0685 48.7063 39C48.6575 38.9315 48.623 38.8539 48.6048 38.7719C48.5865 38.6898 48.5849 38.6049 48.6 38.5223C48.6151 38.4396 48.6467 38.3608 48.6928 38.2905C48.7389 38.2202 48.7986 38.1599 48.8684 38.1131C48.9382 38.0663 49.0167 38.0339 49.0992 38.018C49.1817 38.002 49.2666 38.0027 49.3489 38.0202C49.4311 38.0376 49.509 38.0713 49.578 38.1194Z" fill="#1F6FA9"/>
<path d="M41.2844 32.4377C42.6407 33.401 44.0153 34.3576 45.4081 35.3075C45.5458 35.4017 45.6405 35.5467 45.6712 35.7106C45.702 35.8746 45.6664 36.0441 45.5722 36.1818C45.478 36.3195 45.333 36.4141 45.169 36.4449C45.005 36.4757 44.8356 36.44 44.6979 36.3459C43.3135 35.3905 41.9292 34.4296 40.545 33.463C40.4747 33.4165 40.4145 33.3564 40.3679 33.2861C40.3214 33.2159 40.2894 33.1371 40.2739 33.0542C40.2585 32.9714 40.2598 32.8863 40.2778 32.804C40.2959 32.7217 40.3303 32.6439 40.379 32.5751C40.4277 32.5064 40.4898 32.4481 40.5615 32.4038C40.6331 32.3595 40.713 32.3301 40.7963 32.3172C40.8795 32.3044 40.9645 32.3084 41.0462 32.3291C41.1279 32.3497 41.2046 32.3866 41.2718 32.4375L41.2844 32.4377Z" fill="#1F6FA9"/>
<path d="M58.0572 43.4933C59.4876 44.3515 60.9264 45.2098 62.3736 46.0682C62.5182 46.1519 62.6235 46.2896 62.6665 46.4509C62.7095 46.6123 62.6866 46.7842 62.6029 46.9287C62.5192 47.0732 62.3815 47.1786 62.2201 47.2215C62.0587 47.2645 61.8869 47.2416 61.7424 47.1579C60.2868 46.2994 58.841 45.441 57.4049 44.5828C57.2734 44.4915 57.1816 44.3534 57.1484 44.1967C57.1152 44.04 57.143 43.8766 57.2262 43.7397C57.3094 43.6028 57.4417 43.5029 57.5961 43.4602C57.7504 43.4176 57.9153 43.4354 58.0569 43.5101L58.0572 43.4933Z" fill="#1F6FA9"/>
<path d="M66.7415 48.5431C68.2089 49.357 69.6849 50.1515 71.1696 50.9266C71.3176 51.0037 71.4288 51.1364 71.4789 51.2955C71.529 51.4546 71.5138 51.6271 71.4368 51.7751C71.3597 51.923 71.227 52.0342 71.0679 52.0843C70.9087 52.1344 70.7362 52.1193 70.5883 52.0422C69.0981 51.2587 67.6138 50.4585 66.1353 49.6416C66.0571 49.6052 65.9873 49.5531 65.9301 49.4886C65.8729 49.4241 65.8296 49.3485 65.8029 49.2666C65.7761 49.1846 65.7665 49.098 65.7746 49.0122C65.7827 48.9264 65.8084 48.8431 65.8501 48.7677C65.8917 48.6922 65.9485 48.6261 66.0168 48.5734C66.085 48.5208 66.1634 48.4828 66.247 48.4617C66.3306 48.4407 66.4176 48.437 66.5027 48.451C66.5878 48.465 66.6691 48.4963 66.7415 48.5431Z" fill="#1F6FA9"/>
<path d="M33.1728 26.5111C34.4951 27.5103 35.8397 28.507 37.2068 29.5013C37.3417 29.5999 37.4318 29.748 37.4575 29.9131C37.4831 30.0781 37.4422 30.2466 37.3436 30.3815C37.245 30.5163 37.0969 30.6065 36.9318 30.6322C36.7667 30.6578 36.5982 30.6168 36.4634 30.5182C35.0936 29.5142 33.7407 28.5061 32.4171 27.5027C32.2992 27.3976 32.2252 27.2519 32.2098 27.0947C32.1944 26.9375 32.2387 26.7803 32.3339 26.6543C32.4292 26.5282 32.5684 26.4427 32.7238 26.4146C32.8792 26.3865 33.0396 26.418 33.1729 26.5027L33.1728 26.5111Z" fill="#1F6FA9"/>
<path d="M1.93572 0.18471C2.05576 0.0696054 2.21626 0.00636943 2.38255 0.00865419C2.54884 0.0109389 2.70755 0.0785609 2.82437 0.19692C3.91579 1.31875 5.10274 2.50476 6.38123 3.74235C6.49677 3.85941 6.56185 4.01712 6.56251 4.1816C6.56317 4.34607 6.49937 4.50422 6.38477 4.62221C6.27018 4.74019 6.11389 4.80857 5.94947 4.8127C5.78504 4.81683 5.62555 4.75639 5.50517 4.64431C4.21842 3.39822 3.0232 2.20368 1.92351 1.07336C1.86551 1.01446 1.81977 0.944631 1.78895 0.867921C1.75813 0.791211 1.74284 0.70917 1.74398 0.626509C1.74511 0.543848 1.76265 0.462206 1.79556 0.386372C1.82848 0.310538 1.87612 0.241995 1.93572 0.18471Z" fill="#1F6FA9"/>
<path d="M10.0271 7.19678C11.2111 8.29472 12.4534 9.42144 13.7539 10.5769C13.8786 10.6898 13.9533 10.8476 13.9616 11.0156C13.9699 11.1835 13.9111 11.3479 13.7982 11.4726C13.6853 11.5973 13.5275 11.6719 13.3595 11.6802C13.1916 11.6885 13.0272 11.6298 12.9025 11.5169C11.602 10.3587 10.3514 9.22207 9.17602 8.11167C9.06396 7.99635 9.00033 7.84247 8.99822 7.68168C8.99611 7.52089 9.05569 7.36543 9.16469 7.24721C9.27368 7.12899 9.42382 7.05699 9.58425 7.04606C9.74468 7.03513 9.90319 7.08609 10.0272 7.18844L10.0271 7.19678Z" fill="#1F6FA9"/>
<path d="M25.2494 20.3232C26.5349 21.3555 27.8496 22.4007 29.1894 23.4463C29.3209 23.5493 29.4061 23.7003 29.4262 23.8661C29.4463 24.0319 29.3998 24.1989 29.2968 24.3303C29.1938 24.4618 29.0428 24.5469 28.877 24.567C28.7112 24.5872 28.5442 24.5406 28.4128 24.4376C27.0688 23.3878 25.7513 22.3425 24.4604 21.3018C24.3361 21.1954 24.2583 21.0448 24.2433 20.882C24.2282 20.7191 24.2772 20.5568 24.3799 20.4295C24.4826 20.3022 24.6308 20.2199 24.7931 20.2001C24.9555 20.1802 25.1191 20.2244 25.2494 20.3232Z" fill="#1F6FA9"/>
<path d="M17.5283 13.8905C18.7714 14.9557 20.0481 16.0214 21.3659 17.1379C21.494 17.2447 21.5744 17.3981 21.5894 17.5642C21.6044 17.7303 21.5529 17.8956 21.446 18.0236C21.3392 18.1517 21.1858 18.2321 21.0197 18.2471C20.8536 18.2621 20.6884 18.2105 20.5603 18.1037C19.2366 17.0038 17.9518 15.9171 16.706 14.8434C16.5796 14.7344 16.5018 14.5796 16.4895 14.4132C16.4773 14.2467 16.5316 14.0822 16.6407 13.9558C16.7497 13.8294 16.9045 13.7516 17.0709 13.7393C17.2374 13.727 17.4019 13.7814 17.5283 13.8905Z" fill="#1F6FA9"/>
<path d="M117.473 106.049C118.782 107.056 120.131 108.031 121.521 108.972C121.594 109.016 121.658 109.075 121.708 109.144C121.757 109.214 121.793 109.293 121.811 109.376C121.829 109.46 121.83 109.546 121.814 109.63C121.798 109.714 121.765 109.794 121.717 109.865C121.669 109.935 121.607 109.995 121.534 110.041C121.462 110.087 121.382 110.118 121.297 110.132C121.213 110.145 121.127 110.142 121.044 110.121C120.961 110.1 120.883 110.063 120.815 110.011C119.403 109.055 118.033 108.066 116.705 107.045C116.574 106.942 116.489 106.792 116.467 106.627C116.446 106.462 116.491 106.295 116.591 106.163C116.641 106.097 116.704 106.042 116.776 106C116.847 105.959 116.927 105.932 117.009 105.921C117.091 105.911 117.174 105.917 117.254 105.939C117.334 105.96 117.408 105.998 117.473 106.049Z" fill="#1F6FA9"/>
<path d="M110.017 99.4524C111.174 100.623 112.384 101.757 113.647 102.856C113.771 102.969 113.846 103.127 113.854 103.295C113.863 103.463 113.804 103.627 113.691 103.752C113.578 103.877 113.42 103.951 113.252 103.96C113.084 103.968 112.92 103.909 112.795 103.796C111.517 102.661 110.286 101.502 109.103 100.32C108.992 100.201 108.932 100.043 108.936 99.8796C108.939 99.7165 109.006 99.5612 109.122 99.4464C109.238 99.3316 109.394 99.2663 109.557 99.2642C109.72 99.2621 109.877 99.3235 109.996 99.4353L110.017 99.4524Z" fill="#1F6FA9"/>
<path d="M102.626 91.7748C102.76 91.6757 102.928 91.6336 103.092 91.6579C103.257 91.6822 103.405 91.7708 103.505 91.9043C104.485 93.2231 105.525 94.5188 106.625 95.7917C106.679 95.8544 106.721 95.9272 106.747 96.0058C106.773 96.0845 106.783 96.1675 106.777 96.2501C106.771 96.3328 106.749 96.4134 106.712 96.4875C106.675 96.5616 106.623 96.6275 106.561 96.6817C106.498 96.7359 106.425 96.7773 106.347 96.8034C106.268 96.8294 106.185 96.8398 106.102 96.8338C106.02 96.8278 105.939 96.8055 105.865 96.7683C105.791 96.7312 105.725 96.6798 105.671 96.6171C104.552 95.344 103.493 94.0004 102.497 92.6619C102.446 92.5954 102.41 92.5195 102.389 92.4387C102.368 92.3579 102.364 92.2738 102.376 92.1912C102.388 92.1087 102.416 92.0293 102.459 91.9578C102.502 91.8863 102.559 91.8241 102.626 91.7748Z" fill="#1F6FA9"/>
<path d="M102.903 64.4098C102.946 64.2493 103.05 64.1122 103.193 64.0279C103.336 63.9436 103.507 63.9189 103.668 63.9592C105.303 64.3841 106.926 64.7641 108.537 65.0993C108.622 65.1107 108.704 65.1397 108.778 65.1842C108.852 65.2288 108.916 65.288 108.966 65.3583C109.016 65.4286 109.051 65.5084 109.068 65.5928C109.086 65.6771 109.086 65.7642 109.069 65.8487C109.052 65.9332 109.017 66.0132 108.968 66.0838C108.918 66.1544 108.855 66.2141 108.781 66.2591C108.708 66.3041 108.626 66.3334 108.54 66.3454C108.455 66.3573 108.368 66.3516 108.285 66.3285C106.646 65.9915 105.004 65.6042 103.353 65.1791C103.192 65.1362 103.054 65.0313 102.97 64.8872C102.885 64.7431 102.861 64.5715 102.903 64.4098Z" fill="#1F6FA9"/>
<path d="M123.387 66.825L123.462 66.8261C125.118 66.8488 126.762 66.8086 128.377 66.7008C128.544 66.6897 128.709 66.7455 128.835 66.8557C128.961 66.9659 129.038 67.1216 129.049 67.2886C129.06 67.4555 129.004 67.62 128.894 67.7459C128.783 67.8717 128.628 67.9486 128.461 67.9597C126.807 68.0683 125.13 68.111 123.428 68.0876L123.365 68.0867C123.198 68.0844 123.039 68.016 122.923 67.8964C122.807 67.7769 122.743 67.6161 122.745 67.4493C122.747 67.2826 122.816 67.1235 122.935 67.0072C123.055 66.8909 123.216 66.8269 123.382 66.8292L123.387 66.825Z" fill="#1F6FA9"/>
<path d="M84.7567 57.4021C86.3045 58.0606 87.8513 58.6926 89.397 59.298C89.5357 59.3673 89.6439 59.4854 89.7009 59.6296C89.7578 59.7739 89.7594 59.9341 89.7054 60.0795C89.6514 60.2248 89.5456 60.3452 89.4083 60.4173C89.271 60.4894 89.1119 60.5082 88.9616 60.4701C87.402 59.8617 85.8427 59.2254 84.2838 58.5611C84.1302 58.4956 84.0088 58.3718 83.9465 58.2168C83.8841 58.0619 83.8859 57.8884 83.9514 57.7348C84.0169 57.5811 84.1407 57.4598 84.2957 57.3974C84.4507 57.3351 84.624 57.3369 84.7777 57.4024L84.7567 57.4021Z" fill="#1F6FA9"/>
<path d="M92.058 63.9674C92.1404 63.9628 92.223 63.9747 92.3008 64.0023C92.3787 64.0298 92.4503 64.0725 92.5115 64.128C92.5728 64.1834 92.6224 64.2504 92.6576 64.3252C92.6927 64.3999 92.7127 64.4808 92.7164 64.5634C92.8074 66.2101 93.0005 67.8496 93.2946 69.4724C93.3246 69.6368 93.288 69.8064 93.1929 69.9439C93.0979 70.0814 92.9521 70.1754 92.7877 70.2054C92.6233 70.2354 92.4537 70.1989 92.3162 70.1038C92.1787 70.0087 92.0847 69.8629 92.0547 69.6985C91.7536 68.0227 91.5556 66.33 91.4619 64.63C91.4573 64.5473 91.4692 64.4645 91.4967 64.3864C91.5242 64.3083 91.5669 64.2364 91.6223 64.1749C91.6777 64.1133 91.7446 64.0633 91.8194 64.0277C91.8942 63.9921 91.9753 63.9716 92.058 63.9674Z" fill="#1F6FA9"/>
<path d="M75.6454 53.2059C77.1473 53.9477 78.6565 54.6672 80.173 55.3644C80.3209 55.4365 80.4346 55.5636 80.4898 55.7186C80.545 55.8735 80.5373 56.0439 80.4683 56.1933C80.3993 56.3426 80.2746 56.4589 80.1209 56.5174C79.9671 56.5758 79.7966 56.5717 79.6459 56.5059C78.1211 55.8002 76.6007 55.0805 75.0847 54.347C74.9351 54.2726 74.8211 54.1419 74.7678 53.9835C74.7146 53.8251 74.7264 53.6521 74.8007 53.5025C74.8751 53.3528 75.0058 53.2388 75.1642 53.1856C75.3226 53.1323 75.4956 53.1441 75.6452 53.2185L75.6454 53.2059Z" fill="#1F6FA9"/>
<path d="M97.3565 83.2166C97.5029 83.1426 97.6725 83.1291 97.8287 83.1791C97.9849 83.2291 98.1152 83.3386 98.1914 83.4838C98.9485 84.9308 99.7757 86.369 100.673 87.7984C100.717 87.8684 100.746 87.9463 100.76 88.0278C100.774 88.1092 100.772 88.1926 100.753 88.2731C100.716 88.4358 100.616 88.577 100.474 88.6657C100.333 88.7544 100.162 88.7832 99.9996 88.746C99.8369 88.7088 99.6957 88.6085 99.6071 88.4672C98.6906 87.0179 97.8471 85.5502 97.0766 84.0638C97.039 83.9899 97.0165 83.9092 97.0103 83.8265C97.004 83.7438 97.0142 83.6607 97.0402 83.5819C97.0663 83.5032 97.1076 83.4303 97.1619 83.3676C97.2162 83.3049 97.2823 83.2536 97.3565 83.2166Z" fill="#1F6FA9"/>
<path d="M99.5732 41.8918C99.5116 41.8365 99.4615 41.7696 99.4259 41.695C99.3902 41.6203 99.3696 41.5393 99.3653 41.4567C99.361 41.374 99.373 41.2914 99.4007 41.2134C99.4284 41.1355 99.4712 41.0637 99.5267 41.0023C100.667 39.7325 101.9 38.5485 103.214 37.46C103.278 37.4058 103.352 37.3646 103.431 37.3389C103.51 37.3131 103.594 37.3033 103.677 37.3099C103.761 37.3165 103.842 37.3394 103.916 37.3773C103.99 37.4153 104.057 37.4675 104.111 37.531C104.165 37.5945 104.206 37.6681 104.232 37.7475C104.258 37.8269 104.267 37.9106 104.261 37.9938C104.254 38.077 104.231 38.1581 104.193 38.2325C104.155 38.3069 104.103 38.373 104.04 38.4272C102.773 39.4774 101.584 40.6185 100.484 41.8414C100.428 41.9064 100.361 41.9595 100.284 41.9974C100.208 42.0353 100.124 42.0573 100.039 42.0621C99.954 42.0668 99.8688 42.0541 99.7887 42.0248C99.7086 41.9956 99.6352 41.9503 99.5732 41.8918Z" fill="#1F6FA9"/>
<path d="M187.823 122.926L172.085 129.908L176.803 122.179L173.168 113.887L187.823 122.926Z" fill="#1F6FA9"/>
</svg>
