<svg width="190" height="57" viewBox="0 0 190 57" fill="none" xmlns="http://www.w3.org/2000/svg">
<circle cx="23.2234" cy="20.9517" r="4.45779" fill="white"/>
<path d="M22.6388 30.2626L13.4828 19.5807C13.4405 19.5313 13.3787 19.5029 13.3136 19.5029H0.762329C0.569951 19.5029 0.467933 19.7302 0.595821 19.8739L22.6089 44.6114C22.6983 44.7118 22.8556 44.7109 22.9437 44.6093L60.1547 1.74749C60.3316 1.54365 60.0616 1.25949 59.849 1.42581L22.9454 30.2931C22.8514 30.3666 22.7164 30.3532 22.6388 30.2626Z" fill="white"/>
<path d="M33.02 56.5026H45.3695C45.5587 56.5026 45.6618 56.2818 45.5405 56.1367L31.1919 38.9831C31.104 38.878 30.9429 38.8763 30.8529 38.9796L24.3542 46.4371C24.2809 46.5212 24.2811 46.6466 24.3546 46.7305L32.8524 56.4266C32.8947 56.4749 32.9558 56.5026 33.02 56.5026Z" fill="white"/>
<path d="M21.0513 46.0754L12.8044 36.5597C12.6693 36.4038 12.4131 36.4993 12.4131 36.7057V56.2797C12.4131 56.4028 12.5129 56.5026 12.636 56.5026H20.8829C21.006 56.5026 21.1058 56.4028 21.1058 56.2797V46.2213C21.1058 46.1677 21.0865 46.1159 21.0513 46.0754Z" fill="white"/>
<path d="M52.3594 49.241C52.1365 49.241 51.9557 49.4218 51.9557 49.6447V51.8641C51.9557 52.0871 52.1365 52.2678 52.3594 52.2678H59.6912C59.9141 52.2678 60.0949 52.4485 60.0949 52.6714V56.0354C60.0949 56.2584 59.9141 56.4391 59.6912 56.4391H47.4759C47.253 56.4391 47.0723 56.2584 47.0723 56.0354V38.5297C47.0723 38.3068 47.253 38.126 47.4759 38.126H59.4369C59.6598 38.126 59.8405 38.3068 59.8405 38.5297V41.9191C59.8405 42.1421 59.6598 42.3228 59.4369 42.3228H52.3594C52.1365 42.3228 51.9557 42.5035 51.9557 42.7264V44.6661C51.9557 44.889 52.1365 45.0697 52.3594 45.0697H58.8264C59.0494 45.0697 59.2301 45.2505 59.2301 45.4734V48.8374C59.2301 49.0603 59.0494 49.241 58.8264 49.241H52.3594Z" fill="white"/>
<path d="M78.3911 55.8351C78.5449 56.1042 78.3505 56.4391 78.0406 56.4391H73.5785C73.4335 56.4391 73.2997 56.3613 73.2279 56.2354L70.1536 50.8437C70.0818 50.7177 69.948 50.64 69.803 50.64H68.3555C68.1326 50.64 67.9518 50.8207 67.9518 51.0436V56.0354C67.9518 56.2584 67.7711 56.4391 67.5482 56.4391H63.472C63.2491 56.4391 63.0684 56.2584 63.0684 56.0354V38.5297C63.0684 38.3068 63.2491 38.126 63.472 38.126H70.9531C73.1914 38.126 75.0227 38.6856 76.4471 39.7793C77.8714 40.873 78.5836 42.4245 78.5836 44.383C78.5836 46.7946 77.3956 48.6233 75.3774 49.6589C75.164 49.7684 75.0756 50.033 75.1946 50.2413L78.3911 55.8351ZM70.9531 42.1956H68.3555C68.1326 42.1956 67.9518 42.3763 67.9518 42.5993V46.1667C67.9518 46.3897 68.1326 46.5704 68.3555 46.5704H70.9531C72.6064 46.5704 73.5475 45.8073 73.5475 44.383C73.5475 42.9586 72.6064 42.1956 70.9531 42.1956Z" fill="white"/>
<path d="M86.8789 56.0354C86.8789 56.2584 86.6982 56.4391 86.4752 56.4391H82.3991C82.1761 56.4391 81.9954 56.2584 81.9954 56.0354V38.5297C81.9954 38.3068 82.1761 38.126 82.3991 38.126H86.4752C86.6982 38.126 86.8789 38.3068 86.8789 38.5297V56.0354Z" fill="white"/>
<path d="M105.702 38.3826C105.762 38.2279 105.911 38.126 106.077 38.126H109.41C109.604 38.126 109.77 38.2641 109.806 38.4548L113.113 55.9605C113.16 56.2091 112.969 56.4391 112.716 56.4391H108.834C108.639 56.4391 108.472 56.3002 108.437 56.1088L107.005 48.3677C106.931 47.9665 106.376 47.9162 106.231 48.2975L103.23 56.179C103.171 56.3356 103.021 56.4391 102.853 56.4391H99.4679C99.3 56.4391 99.1497 56.3352 99.0903 56.1782L96.1115 48.2981C95.9672 47.9164 95.4124 47.9654 95.3372 48.3664L93.884 56.1099C93.8482 56.3008 93.6815 56.4391 93.4872 56.4391H89.6038C89.3508 56.4391 89.1602 56.2091 89.2072 55.9605L92.5138 38.4548C92.5498 38.2641 92.7164 38.126 92.9104 38.126H96.2433C96.4092 38.126 96.5582 38.2275 96.619 38.3819L100.796 48.9961C100.931 49.3376 101.414 49.3372 101.548 48.9954L105.702 38.3826Z" fill="white"/>
<path d="M114.41 47.2826C114.41 44.4593 115.351 42.1447 117.234 40.3643C119.116 38.5584 121.507 37.6682 124.381 37.6682C127.255 37.6682 129.646 38.5584 131.528 40.3643C133.41 42.1447 134.351 44.4593 134.351 47.2826C134.351 50.1313 133.41 52.4458 131.528 54.2263C129.646 56.0067 127.255 56.8969 124.381 56.8969C121.507 56.8969 119.116 56.0067 117.234 54.2263C115.351 52.4458 114.41 50.1313 114.41 47.2826ZM120.845 51.0978C121.735 52.0897 122.931 52.573 124.381 52.573C125.83 52.573 127.026 52.0897 127.916 51.0978C128.806 50.1058 129.264 48.8341 129.264 47.2826C129.264 45.731 128.806 44.4847 127.916 43.4928C127.026 42.5008 125.83 41.9921 124.381 41.9921C122.931 41.9921 121.735 42.5008 120.845 43.4928C119.955 44.4847 119.497 45.731 119.497 47.2826C119.497 48.8341 119.955 50.1058 120.845 51.0978Z" fill="white"/>
<path d="M146.07 47.1267C146.07 46.9037 146.251 46.723 146.474 46.723H154.874C155.097 46.723 155.278 46.9042 155.272 47.1271C155.195 50.0905 154.256 52.4473 152.48 54.1754C150.623 55.9813 148.334 56.8969 145.562 56.8969C142.789 56.8969 140.5 56.0067 138.643 54.2263C136.787 52.4204 135.871 50.1058 135.871 47.2826C135.871 44.4593 136.787 42.1447 138.643 40.3643C140.5 38.5584 142.789 37.6682 145.562 37.6682C147.876 37.6682 149.885 38.3041 151.615 39.5504C153.264 40.7217 154.33 42.275 154.811 44.2313C154.863 44.4426 154.728 44.6519 154.517 44.7024L150.795 45.5906C150.585 45.6407 150.374 45.5156 150.303 45.3118C149.499 43.0039 147.721 41.9921 145.714 41.9921C144.29 41.9921 143.145 42.5008 142.255 43.4928C141.39 44.4847 140.958 45.731 140.958 47.2826C140.958 48.8086 141.39 50.0804 142.28 51.0723C143.171 52.0643 144.315 52.573 145.714 52.573C147.091 52.573 148.22 52.1322 149.074 51.236C149.298 51.0007 149.113 50.64 148.788 50.64H146.474C146.251 50.64 146.07 50.4592 146.07 50.2363V47.1267Z" fill="white"/>
<path d="M163.028 38.126C163.251 38.126 163.432 38.3068 163.432 38.5297V51.8641C163.432 52.0871 163.612 52.2678 163.835 52.2678H171.04C171.263 52.2678 171.444 52.4485 171.444 52.6714V56.0354C171.444 56.2584 171.263 56.4391 171.04 56.4391H158.952C158.729 56.4391 158.548 56.2584 158.548 56.0354V38.5297C158.548 38.3068 158.729 38.126 158.952 38.126H163.028Z" fill="white"/>
<path d="M172.275 49.241V38.5297C172.275 38.3068 172.456 38.126 172.679 38.126H176.755C176.978 38.126 177.158 38.3068 177.158 38.5297V48.4271C177.158 51.0469 178.405 52.573 180.77 52.573C183.136 52.573 184.382 51.0469 184.382 48.4271V38.5297C184.382 38.3068 184.563 38.126 184.786 38.126H188.862C189.085 38.126 189.265 38.3068 189.265 38.5297V49.241C189.265 51.6573 188.452 53.5395 186.824 54.8876C185.196 56.2356 183.187 56.8969 180.77 56.8969C178.354 56.8969 176.345 56.2356 174.717 54.8876C173.089 53.5395 172.275 51.6573 172.275 49.241Z" fill="white"/>
</svg>
