<svg width="357" height="288" viewBox="0 0 357 288" fill="none" xmlns="http://www.w3.org/2000/svg">
<path d="M325.011 150.54C325.102 150.46 325.208 150.399 325.323 150.36C325.437 150.321 325.559 150.305 325.68 150.313C325.8 150.321 325.919 150.353 326.027 150.407C326.136 150.461 326.233 150.535 326.313 150.626C326.918 151.32 327.515 152.073 328.085 152.864C328.195 153.017 328.257 153.199 328.26 153.387C328.264 153.575 328.21 153.76 328.106 153.916C328.002 154.073 327.852 154.194 327.678 154.263C327.503 154.333 327.311 154.347 327.128 154.304C326.91 154.254 326.718 154.126 326.589 153.944C326.05 153.199 325.488 152.491 324.922 151.842C324.762 151.657 324.681 151.416 324.698 151.173C324.714 150.929 324.827 150.701 325.011 150.54Z" fill="#1F6FA9"/>
<path d="M325.743 189.335C326.208 188.577 326.668 187.775 327.103 186.977C327.22 186.762 327.418 186.602 327.653 186.533C327.887 186.464 328.14 186.491 328.355 186.608C328.57 186.725 328.73 186.922 328.799 187.157C328.869 187.392 328.842 187.645 328.725 187.86C328.275 188.685 327.802 189.505 327.318 190.298C327.191 190.507 326.985 190.657 326.747 190.714C326.509 190.771 326.258 190.732 326.049 190.604C325.84 190.477 325.691 190.271 325.634 190.033C325.576 189.795 325.616 189.544 325.743 189.335Z" fill="#1F6FA9"/>
<path d="M329.88 180.811C330.173 179.962 330.436 179.093 330.661 178.227C330.731 177.998 330.886 177.805 331.095 177.689C331.304 177.572 331.549 177.541 331.78 177.602C332.012 177.662 332.21 177.81 332.335 178.014C332.46 178.218 332.5 178.462 332.449 178.695C332.211 179.604 331.932 180.526 331.625 181.414C331.551 181.63 331.399 181.81 331.2 181.921C331 182.031 330.767 182.064 330.545 182.013C330.513 182.007 330.481 182 330.45 181.991C330.335 181.951 330.229 181.889 330.138 181.808C330.047 181.727 329.973 181.629 329.92 181.519C329.867 181.41 329.836 181.291 329.829 181.169C329.822 181.047 329.84 180.926 329.88 180.811Z" fill="#1F6FA9"/>
<path d="M315.217 201.713C315.405 201.578 315.637 201.52 315.866 201.548C316.095 201.577 316.306 201.69 316.455 201.866C316.605 202.042 316.683 202.268 316.675 202.499C316.666 202.729 316.571 202.949 316.408 203.113C315.702 203.718 314.966 204.316 314.223 204.891C314.029 205.041 313.784 205.107 313.541 205.076C313.298 205.045 313.077 204.919 312.928 204.725C312.778 204.531 312.711 204.286 312.743 204.043C312.774 203.8 312.9 203.579 313.094 203.429C313.823 202.877 314.534 202.297 315.217 201.713Z" fill="#1F6FA9"/>
<path d="M305.748 259.989C306.589 260.332 307.449 260.669 308.305 260.987C308.523 261.07 308.702 261.233 308.805 261.443C308.909 261.653 308.929 261.894 308.861 262.118C308.793 262.342 308.644 262.532 308.442 262.65C308.239 262.768 308 262.805 307.772 262.753C307.733 262.746 307.694 262.737 307.655 262.726C306.784 262.4 305.908 262.057 305.048 261.707C304.821 261.615 304.641 261.436 304.546 261.21C304.451 260.984 304.449 260.73 304.542 260.503C304.634 260.277 304.813 260.096 305.039 260.001C305.265 259.906 305.519 259.904 305.746 259.997L305.748 259.989Z" fill="#1F6FA9"/>
<path d="M352.732 265.326C353.628 265.155 354.529 264.966 355.41 264.765C355.648 264.711 355.899 264.753 356.106 264.884C356.314 265.014 356.461 265.221 356.515 265.46C356.57 265.698 356.527 265.949 356.397 266.156C356.267 266.363 356.06 266.51 355.821 266.565C354.919 266.771 353.994 266.963 353.086 267.142C352.959 267.165 352.829 267.162 352.704 267.133C352.497 267.086 352.314 266.968 352.183 266.801C352.053 266.634 351.984 266.427 351.989 266.215C351.993 266.003 352.07 265.8 352.207 265.638C352.344 265.476 352.532 265.367 352.741 265.327L352.732 265.326Z" fill="#1F6FA9"/>
<path d="M314.806 263.156C315.683 263.414 316.573 263.66 317.454 263.889C317.682 263.957 317.875 264.109 317.993 264.316C318.112 264.522 318.146 264.766 318.089 264.997C318.032 265.228 317.889 265.428 317.688 265.556C317.487 265.684 317.245 265.729 317.012 265.683L316.989 265.678C316.094 265.445 315.186 265.195 314.291 264.932C314.064 264.857 313.875 264.696 313.765 264.484C313.654 264.272 313.629 264.025 313.697 263.796C313.764 263.566 313.917 263.372 314.125 263.253C314.333 263.134 314.578 263.1 314.81 263.159L314.806 263.156Z" fill="#1F6FA9"/>
<path d="M343.235 266.509C344.146 266.452 345.062 266.379 345.963 266.292C346.086 266.274 346.213 266.281 346.334 266.313C346.454 266.345 346.568 266.402 346.666 266.479C346.765 266.556 346.846 266.652 346.907 266.762C346.967 266.872 347.004 266.993 347.016 267.117C347.028 267.242 347.015 267.368 346.977 267.487C346.939 267.606 346.877 267.716 346.796 267.811C346.714 267.906 346.614 267.983 346.501 268.038C346.389 268.093 346.266 268.124 346.141 268.13C345.219 268.219 344.28 268.295 343.349 268.347C343.26 268.352 343.17 268.344 343.083 268.324C342.867 268.274 342.676 268.148 342.545 267.969C342.415 267.79 342.353 267.569 342.371 267.348C342.39 267.127 342.488 266.92 342.646 266.765C342.805 266.61 343.015 266.518 343.236 266.504L343.235 266.509Z" fill="#1F6FA9"/>
<path d="M324.143 265.358C325.041 265.517 325.949 265.666 326.859 265.798C327.092 265.843 327.299 265.976 327.437 266.17C327.574 266.364 327.632 266.604 327.598 266.839C327.563 267.074 327.439 267.287 327.252 267.434C327.065 267.58 326.828 267.649 326.592 267.625C325.675 267.492 324.746 267.343 323.828 267.177L323.781 267.166C323.541 267.117 323.331 266.974 323.197 266.769C323.062 266.565 323.014 266.315 323.064 266.076C323.113 265.836 323.256 265.626 323.46 265.491C323.665 265.357 323.914 265.309 324.154 265.359L324.143 265.358Z" fill="#1F6FA9"/>
<path d="M333.658 266.5C334.569 266.556 335.489 266.597 336.394 266.622C336.515 266.625 336.635 266.652 336.745 266.701C336.856 266.75 336.956 266.821 337.04 266.909C337.208 267.087 337.299 267.324 337.293 267.569C337.286 267.814 337.183 268.046 337.005 268.215C336.828 268.383 336.59 268.474 336.345 268.468C335.419 268.443 334.477 268.401 333.545 268.345C333.494 268.341 333.443 268.334 333.392 268.322C333.169 268.268 332.974 268.132 332.845 267.941C332.717 267.75 332.664 267.518 332.697 267.29C332.73 267.063 332.847 266.856 333.025 266.71C333.203 266.564 333.429 266.489 333.658 266.5Z" fill="#1F6FA9"/>
<path d="M357.815 240.858C358.06 240.868 358.291 240.974 358.457 241.154C358.623 241.334 358.711 241.572 358.702 241.816C358.67 242.684 358.716 243.553 358.839 244.413C358.873 244.655 358.81 244.901 358.663 245.097C358.516 245.292 358.298 245.422 358.056 245.457C357.942 245.474 357.826 245.469 357.715 245.443C357.533 245.401 357.369 245.305 357.244 245.167C357.118 245.03 357.037 244.858 357.011 244.674C356.871 243.705 356.819 242.725 356.856 241.746C356.866 241.502 356.973 241.271 357.152 241.104C357.332 240.938 357.571 240.849 357.815 240.858Z" fill="#1F6FA9"/>
<path d="M308.33 143.227C309.287 143.143 310.248 143.116 311.208 143.147C311.329 143.151 311.449 143.179 311.559 143.229C311.669 143.279 311.769 143.351 311.852 143.439C312.019 143.618 312.108 143.856 312.1 144.101C312.092 144.345 311.987 144.577 311.808 144.744C311.63 144.911 311.392 145.001 311.147 144.993C310.26 144.965 309.373 144.99 308.489 145.068C308.392 145.077 308.294 145.07 308.199 145.048C307.986 144.997 307.797 144.872 307.667 144.695C307.538 144.518 307.475 144.3 307.491 144.082C307.507 143.863 307.6 143.657 307.754 143.5C307.907 143.343 308.112 143.247 308.33 143.227Z" fill="#1F6FA9"/>
<path d="M280.873 245.565C281.609 246.129 282.347 246.684 283.07 247.219C283.179 247.286 283.273 247.374 283.346 247.479C283.419 247.584 283.469 247.703 283.493 247.828C283.518 247.954 283.516 248.083 283.488 248.208C283.46 248.332 283.407 248.45 283.331 248.553C283.255 248.656 283.159 248.742 283.048 248.805C282.937 248.869 282.814 248.909 282.687 248.923C282.56 248.937 282.432 248.924 282.31 248.885C282.188 248.847 282.076 248.783 281.98 248.699C281.239 248.154 280.485 247.588 279.748 247.02C279.553 246.87 279.425 246.649 279.393 246.405C279.361 246.161 279.427 245.915 279.577 245.72C279.727 245.524 279.948 245.397 280.192 245.365C280.435 245.333 280.682 245.399 280.877 245.549L280.873 245.565Z" fill="#1F6FA9"/>
<path d="M290.371 216.411C289.493 216.66 288.583 216.901 287.669 217.133C287.526 217.167 287.377 217.168 287.234 217.136C287.033 217.089 286.852 216.976 286.722 216.814C286.593 216.652 286.521 216.452 286.519 216.245C286.518 216.037 286.586 215.836 286.712 215.672C286.839 215.508 287.018 215.392 287.219 215.341C288.116 215.117 289.009 214.878 289.87 214.634C289.986 214.601 290.108 214.592 290.229 214.606C290.349 214.62 290.465 214.658 290.571 214.717C290.677 214.777 290.77 214.856 290.845 214.951C290.92 215.047 290.976 215.156 291.009 215.272C291.041 215.389 291.051 215.511 291.037 215.631C291.023 215.752 290.985 215.868 290.925 215.974C290.866 216.08 290.787 216.173 290.692 216.248C290.596 216.323 290.487 216.378 290.371 216.411Z" fill="#1F6FA9"/>
<path d="M301.349 144.783C301.462 144.741 301.583 144.722 301.704 144.726C301.826 144.73 301.945 144.759 302.055 144.809C302.165 144.859 302.264 144.931 302.347 145.02C302.429 145.109 302.494 145.213 302.536 145.326C302.578 145.44 302.598 145.561 302.593 145.682C302.589 145.803 302.561 145.922 302.51 146.032C302.46 146.143 302.388 146.242 302.3 146.324C302.211 146.407 302.107 146.471 301.993 146.514C301.159 146.825 300.343 147.18 299.547 147.578C299.329 147.688 299.076 147.706 298.843 147.63C298.611 147.553 298.419 147.387 298.309 147.169C298.255 147.06 298.222 146.942 298.213 146.822C298.204 146.701 298.219 146.579 298.257 146.464C298.295 146.349 298.356 146.242 298.435 146.15C298.514 146.059 298.611 145.983 298.719 145.929C299.575 145.5 300.452 145.118 301.349 144.783Z" fill="#1F6FA9"/>
<path d="M273.507 239.379C274.177 239.992 274.868 240.608 275.561 241.209C275.659 241.287 275.74 241.384 275.8 241.494C275.86 241.604 275.897 241.724 275.908 241.849C275.92 241.974 275.906 242.099 275.868 242.218C275.829 242.338 275.767 242.448 275.685 242.542C275.603 242.636 275.502 242.713 275.389 242.768C275.277 242.822 275.154 242.853 275.029 242.859C274.904 242.864 274.779 242.844 274.662 242.8C274.545 242.756 274.438 242.689 274.348 242.602C273.645 241.99 272.945 241.365 272.262 240.742C272.081 240.577 271.973 240.347 271.962 240.102C271.951 239.858 272.038 239.619 272.203 239.438C272.368 239.257 272.598 239.149 272.843 239.138C273.087 239.127 273.326 239.213 273.507 239.379Z" fill="#1F6FA9"/>
<path d="M288.728 251.112C289.496 251.605 290.279 252.095 291.057 252.569C291.246 252.682 291.389 252.859 291.458 253.069C291.528 253.278 291.52 253.505 291.437 253.709C291.354 253.913 291.2 254.081 291.004 254.181C290.807 254.282 290.582 254.309 290.367 254.257C290.272 254.235 290.181 254.198 290.098 254.147C289.306 253.665 288.51 253.166 287.728 252.663C287.626 252.596 287.538 252.511 287.47 252.41C287.401 252.31 287.353 252.197 287.328 252.078C287.303 251.96 287.302 251.837 287.324 251.718C287.347 251.598 287.393 251.485 287.459 251.383C287.525 251.281 287.611 251.194 287.711 251.125C287.811 251.057 287.924 251.008 288.043 250.983C288.162 250.959 288.284 250.957 288.404 250.98C288.523 251.002 288.637 251.048 288.739 251.114L288.728 251.112Z" fill="#1F6FA9"/>
<path d="M296.379 212.522C297.241 212.202 298.098 211.864 298.927 211.522C299.039 211.475 299.159 211.451 299.281 211.451C299.402 211.451 299.522 211.475 299.634 211.522C299.746 211.568 299.847 211.636 299.933 211.722C300.019 211.808 300.087 211.909 300.133 212.021C300.18 212.133 300.203 212.253 300.203 212.375C300.203 212.496 300.179 212.616 300.133 212.728C300.087 212.84 300.019 212.942 299.933 213.027C299.847 213.113 299.745 213.181 299.633 213.227C298.784 213.58 297.906 213.924 297.024 214.252C296.91 214.294 296.789 214.314 296.668 214.309C296.547 214.305 296.428 214.277 296.318 214.226C296.207 214.176 296.108 214.104 296.026 214.015C295.943 213.926 295.879 213.822 295.836 213.709C295.794 213.595 295.775 213.474 295.779 213.353C295.783 213.232 295.812 213.113 295.862 213.003C295.913 212.892 295.984 212.793 296.073 212.711C296.162 212.628 296.266 212.564 296.379 212.522Z" fill="#1F6FA9"/>
<path d="M307.478 207.261C307.583 207.199 307.698 207.159 307.818 207.141C307.938 207.124 308.06 207.13 308.177 207.16C308.415 207.22 308.618 207.372 308.743 207.582C308.869 207.792 308.905 208.044 308.845 208.281C308.785 208.518 308.633 208.722 308.423 208.847C307.634 209.313 306.811 209.785 305.981 210.229C305.874 210.287 305.757 210.323 305.637 210.335C305.516 210.347 305.394 210.336 305.278 210.301C305.162 210.266 305.053 210.209 304.959 210.132C304.865 210.056 304.787 209.961 304.73 209.854C304.672 209.748 304.636 209.631 304.624 209.51C304.612 209.389 304.623 209.267 304.658 209.151C304.693 209.035 304.75 208.927 304.827 208.833C304.903 208.739 304.998 208.661 305.105 208.603C305.904 208.169 306.702 207.718 307.478 207.261Z" fill="#1F6FA9"/>
<path d="M318.265 144.656C319.16 145.03 320.025 145.47 320.855 145.972C321.042 146.086 321.183 146.263 321.252 146.472C321.321 146.681 321.313 146.907 321.23 147.11C321.147 147.314 320.995 147.481 320.8 147.582C320.605 147.684 320.38 147.712 320.166 147.663C320.071 147.641 319.98 147.603 319.897 147.552C319.147 147.096 318.364 146.696 317.555 146.357C317.438 146.314 317.33 146.248 317.239 146.162C317.148 146.077 317.075 145.974 317.025 145.859C316.975 145.745 316.948 145.621 316.947 145.496C316.946 145.371 316.97 145.247 317.018 145.132C317.067 145.017 317.138 144.912 317.227 144.825C317.317 144.738 317.423 144.67 317.54 144.625C317.656 144.58 317.781 144.559 317.906 144.564C318.031 144.569 318.153 144.598 318.266 144.652L318.265 144.656Z" fill="#1F6FA9"/>
<path d="M297.034 255.944C297.848 256.37 298.672 256.787 299.485 257.184C299.688 257.286 299.846 257.457 299.93 257.667C300.014 257.877 300.019 258.111 299.942 258.323C299.866 258.536 299.714 258.714 299.516 258.823C299.318 258.931 299.086 258.963 298.866 258.913C298.797 258.897 298.73 258.873 298.666 258.843C297.84 258.433 296.997 258.021 296.17 257.579C295.953 257.465 295.79 257.27 295.717 257.036C295.644 256.803 295.666 256.549 295.78 256.332C295.893 256.115 296.088 255.952 296.322 255.879C296.556 255.806 296.809 255.829 297.026 255.942L297.034 255.944Z" fill="#1F6FA9"/>
<path d="M263.332 127.827C262.443 127.899 261.558 128.017 260.681 128.18C260.556 128.203 260.427 128.2 260.304 128.171C260.097 128.123 259.912 128.005 259.782 127.838C259.651 127.67 259.583 127.463 259.588 127.25C259.593 127.038 259.671 126.834 259.809 126.672C259.947 126.511 260.136 126.402 260.345 126.364C261.269 126.193 262.222 126.066 263.181 125.986C263.302 125.976 263.424 125.99 263.539 126.027C263.655 126.064 263.762 126.124 263.854 126.202C263.947 126.281 264.023 126.377 264.078 126.485C264.133 126.593 264.167 126.71 264.177 126.831C264.187 126.952 264.173 127.074 264.136 127.189C264.098 127.304 264.039 127.411 263.96 127.504C263.882 127.596 263.786 127.672 263.678 127.728C263.57 127.783 263.452 127.817 263.332 127.827Z" fill="#1F6FA9"/>
<path d="M331.893 162.922C331.777 162.955 331.655 162.965 331.534 162.951C331.414 162.938 331.297 162.9 331.191 162.841C331.086 162.782 330.992 162.702 330.917 162.607C330.842 162.512 330.787 162.403 330.754 162.286C330.512 161.429 330.223 160.586 329.889 159.761C329.82 159.539 329.837 159.299 329.937 159.089C330.037 158.879 330.213 158.714 330.429 158.627C330.645 158.541 330.885 158.539 331.103 158.622C331.32 158.705 331.498 158.867 331.601 159.076C331.959 159.964 332.269 160.87 332.529 161.791C332.593 162.025 332.562 162.275 332.443 162.487C332.324 162.698 332.127 162.855 331.893 162.922Z" fill="#1F6FA9"/>
<path d="M332.589 172.555C332.536 172.552 332.482 172.545 332.43 172.533C332.218 172.483 332.031 172.36 331.901 172.187C331.771 172.013 331.705 171.799 331.717 171.582C331.768 170.681 331.779 169.778 331.751 168.893C331.752 168.654 331.847 168.425 332.014 168.253C332.181 168.082 332.408 167.982 332.647 167.974C332.886 167.967 333.119 168.053 333.296 168.213C333.474 168.374 333.582 168.597 333.598 168.836C333.627 169.773 333.614 170.732 333.562 171.684C333.555 171.805 333.524 171.924 333.472 172.033C333.42 172.142 333.346 172.24 333.256 172.321C333.165 172.402 333.06 172.464 332.946 172.504C332.831 172.544 332.71 172.561 332.589 172.555Z" fill="#1F6FA9"/>
<path d="M323.132 194.756C323.321 194.91 323.442 195.134 323.466 195.377C323.491 195.62 323.418 195.863 323.264 196.052C322.678 196.783 322.058 197.505 321.442 198.199C321.278 198.381 321.049 198.491 320.805 198.504C320.56 198.518 320.32 198.433 320.138 198.27C319.955 198.106 319.845 197.877 319.832 197.633C319.819 197.388 319.903 197.148 320.066 196.966C320.667 196.295 321.252 195.597 321.828 194.894C321.904 194.798 321.998 194.719 322.105 194.66C322.212 194.601 322.33 194.564 322.451 194.552C322.572 194.539 322.695 194.55 322.812 194.585C322.929 194.62 323.038 194.678 323.132 194.756Z" fill="#1F6FA9"/>
<path d="M277.8 217.26C278.702 217.113 279.622 216.958 280.51 216.794C280.631 216.765 280.758 216.761 280.881 216.783C281.005 216.804 281.122 216.85 281.227 216.918C281.332 216.987 281.422 217.076 281.492 217.18C281.561 217.284 281.609 217.401 281.632 217.524C281.654 217.647 281.652 217.774 281.624 217.896C281.596 218.018 281.544 218.133 281.47 218.234C281.397 218.336 281.303 218.421 281.196 218.485C281.088 218.549 280.968 218.59 280.844 218.606C279.939 218.773 279.017 218.933 278.094 219.08C277.971 219.106 277.845 219.106 277.722 219.082C277.6 219.057 277.483 219.008 277.38 218.937C277.277 218.866 277.19 218.775 277.123 218.669C277.056 218.563 277.011 218.445 276.991 218.322C276.971 218.198 276.977 218.072 277.007 217.951C277.038 217.829 277.092 217.715 277.168 217.616C277.244 217.516 277.339 217.433 277.448 217.371C277.557 217.309 277.677 217.27 277.801 217.256L277.8 217.26Z" fill="#1F6FA9"/>
<path d="M286.733 151.956C286.67 151.954 286.607 151.946 286.546 151.932C286.339 151.883 286.155 151.765 286.025 151.597C285.896 151.429 285.828 151.222 285.833 151.009C285.855 150.085 285.846 149.174 285.812 148.306C285.801 148.061 285.887 147.822 286.052 147.641C286.217 147.46 286.448 147.352 286.692 147.341C286.937 147.33 287.176 147.417 287.357 147.582C287.538 147.747 287.645 147.977 287.657 148.222C287.7 149.135 287.707 150.089 287.688 151.047C287.686 151.169 287.66 151.291 287.61 151.403C287.561 151.515 287.49 151.617 287.401 151.701C287.312 151.786 287.207 151.852 287.093 151.896C286.978 151.94 286.856 151.96 286.733 151.956Z" fill="#1F6FA9"/>
<path d="M245.563 138.182C245.458 138.338 245.309 138.459 245.134 138.528C244.959 138.598 244.767 138.612 244.584 138.569C244.476 138.544 244.374 138.5 244.282 138.438C244.181 138.371 244.095 138.285 244.027 138.184C243.959 138.084 243.912 137.971 243.889 137.852C243.865 137.733 243.865 137.61 243.888 137.491C243.912 137.372 243.958 137.259 244.026 137.158C244.554 136.362 245.124 135.595 245.733 134.859C245.892 134.679 246.116 134.567 246.356 134.548C246.595 134.53 246.833 134.605 247.018 134.759C247.204 134.912 247.322 135.132 247.347 135.372C247.373 135.611 247.304 135.851 247.156 136.04C246.587 136.725 246.055 137.44 245.563 138.182Z" fill="#1F6FA9"/>
<path d="M242.526 144.16C242.205 144.997 241.9 145.861 241.619 146.725C241.548 146.945 241.397 147.13 241.196 147.244C240.995 147.358 240.758 147.392 240.533 147.339C240.506 147.335 240.48 147.329 240.455 147.321C240.339 147.284 240.232 147.225 240.139 147.147C240.046 147.068 239.97 146.972 239.915 146.864C239.859 146.756 239.826 146.638 239.816 146.517C239.806 146.396 239.821 146.274 239.858 146.159C240.147 145.262 240.464 144.369 240.798 143.501C240.841 143.388 240.907 143.285 240.99 143.197C241.073 143.109 241.173 143.038 241.284 142.989C241.395 142.94 241.514 142.913 241.635 142.91C241.756 142.906 241.877 142.927 241.99 142.971C242.103 143.014 242.207 143.079 242.295 143.163C242.383 143.246 242.453 143.346 242.503 143.457C242.552 143.567 242.579 143.687 242.582 143.808C242.585 143.929 242.564 144.05 242.521 144.163L242.526 144.16Z" fill="#1F6FA9"/>
<path d="M272.624 128.798C272.592 128.793 272.56 128.785 272.529 128.776C271.697 128.489 270.846 128.263 269.982 128.098C269.741 128.052 269.529 127.912 269.391 127.71C269.253 127.507 269.202 127.258 269.248 127.018C269.294 126.777 269.433 126.565 269.636 126.427C269.839 126.29 270.088 126.238 270.328 126.284C271.279 126.465 272.215 126.715 273.131 127.03C273.351 127.109 273.534 127.27 273.641 127.479C273.748 127.688 273.772 127.929 273.707 128.155C273.642 128.381 273.494 128.573 273.293 128.694C273.091 128.814 272.852 128.854 272.622 128.804L272.624 128.798Z" fill="#1F6FA9"/>
<path d="M241.874 190.535C242.108 190.463 242.362 190.486 242.579 190.6C242.796 190.714 242.959 190.909 243.033 191.143C243.305 192.015 243.592 192.893 243.886 193.753C243.953 193.981 243.93 194.227 243.82 194.438C243.711 194.65 243.524 194.811 243.299 194.888C243.073 194.965 242.827 194.952 242.611 194.852C242.395 194.752 242.226 194.573 242.138 194.351C241.84 193.475 241.547 192.581 241.27 191.693C241.234 191.578 241.221 191.456 241.231 191.335C241.242 191.214 241.276 191.097 241.332 190.989C241.388 190.882 241.465 190.786 241.558 190.708C241.651 190.631 241.758 190.572 241.874 190.535Z" fill="#1F6FA9"/>
<path d="M164.36 174.999C165.066 175.597 165.772 176.186 166.478 176.768C166.571 176.846 166.649 176.941 166.705 177.048C166.762 177.155 166.797 177.272 166.809 177.393C166.82 177.514 166.808 177.635 166.772 177.751C166.736 177.867 166.678 177.975 166.601 178.068C166.524 178.162 166.429 178.239 166.322 178.296C166.215 178.353 166.097 178.388 165.977 178.399C165.856 178.411 165.734 178.398 165.618 178.363C165.502 178.327 165.394 178.269 165.301 178.192C164.591 177.604 163.88 177.01 163.169 176.41C163.076 176.331 163 176.235 162.945 176.127C162.889 176.019 162.855 175.902 162.845 175.781C162.835 175.66 162.849 175.538 162.886 175.422C162.924 175.307 162.983 175.2 163.062 175.107C163.14 175.014 163.236 174.938 163.344 174.883C163.452 174.827 163.57 174.793 163.691 174.783C163.812 174.773 163.933 174.787 164.049 174.825C164.165 174.862 164.272 174.921 164.364 175L164.36 174.999Z" fill="#1F6FA9"/>
<path d="M157.075 168.646C157.764 169.265 158.45 169.878 159.135 170.485C159.29 170.621 159.395 170.805 159.433 171.007C159.471 171.209 159.44 171.418 159.346 171.601C159.251 171.784 159.099 171.93 158.912 172.016C158.725 172.102 158.515 172.123 158.314 172.076C158.165 172.041 158.026 171.969 157.912 171.867C157.221 171.258 156.53 170.642 155.839 170.019C155.67 169.852 155.572 169.626 155.565 169.388C155.558 169.151 155.643 168.919 155.802 168.743C155.961 168.566 156.182 168.458 156.419 168.44C156.656 168.422 156.891 168.496 157.075 168.646Z" fill="#1F6FA9"/>
<path d="M149.988 162.069C150.659 162.709 151.327 163.343 151.993 163.971C152.171 164.139 152.275 164.37 152.283 164.615C152.29 164.859 152.2 165.097 152.032 165.275C151.865 165.454 151.633 165.558 151.388 165.565C151.144 165.573 150.906 165.483 150.728 165.315C150.058 164.685 149.386 164.048 148.713 163.404C148.536 163.235 148.433 163.003 148.427 162.758C148.422 162.513 148.514 162.276 148.683 162.099C148.852 161.922 149.085 161.819 149.329 161.814C149.574 161.808 149.811 161.9 149.988 162.069Z" fill="#1F6FA9"/>
<path d="M143.096 155.292C143.748 155.95 144.398 156.602 145.047 157.249C145.19 157.39 145.282 157.575 145.311 157.774C145.339 157.973 145.302 158.176 145.204 158.352C145.106 158.528 144.954 158.667 144.77 158.748C144.586 158.829 144.38 158.848 144.185 158.802C144.018 158.763 143.866 158.678 143.745 158.556C143.09 157.907 142.437 157.249 141.786 156.583C141.614 156.409 141.518 156.173 141.519 155.929C141.52 155.684 141.619 155.449 141.793 155.277C141.967 155.105 142.202 155.009 142.447 155.01C142.692 155.012 142.926 155.11 143.098 155.284L143.096 155.292Z" fill="#1F6FA9"/>
<path d="M136.391 148.325C137.023 149 137.655 149.669 138.288 150.334C138.421 150.479 138.505 150.662 138.527 150.858C138.548 151.053 138.507 151.25 138.409 151.421C138.312 151.591 138.162 151.726 137.982 151.806C137.802 151.885 137.601 151.906 137.409 151.863C137.234 151.823 137.075 151.732 136.952 151.601C136.316 150.933 135.678 150.259 135.039 149.58C134.956 149.491 134.891 149.387 134.848 149.274C134.806 149.16 134.786 149.04 134.79 148.918C134.794 148.797 134.822 148.678 134.872 148.568C134.922 148.457 134.993 148.358 135.081 148.275C135.17 148.192 135.274 148.127 135.387 148.085C135.501 148.042 135.621 148.022 135.742 148.026C135.864 148.03 135.983 148.058 136.093 148.108C136.204 148.158 136.303 148.229 136.386 148.317L136.391 148.325Z" fill="#1F6FA9"/>
<path d="M195.587 197.684C196.375 198.162 197.17 198.64 197.951 199.101C198.14 199.214 198.282 199.391 198.352 199.599C198.422 199.807 198.416 200.034 198.334 200.238C198.253 200.442 198.101 200.611 197.906 200.713C197.712 200.815 197.487 200.845 197.272 200.796C197.181 200.775 197.094 200.74 197.013 200.693C196.224 200.225 195.422 199.743 194.624 199.269C194.427 199.136 194.289 198.932 194.238 198.7C194.188 198.468 194.229 198.225 194.352 198.022C194.476 197.819 194.673 197.672 194.902 197.61C195.132 197.549 195.376 197.578 195.585 197.692L195.587 197.684Z" fill="#1F6FA9"/>
<path d="M187.456 192.482C188.224 192.997 188.998 193.509 189.755 194.004C189.96 194.138 190.103 194.348 190.153 194.588C190.204 194.827 190.157 195.077 190.023 195.282C189.889 195.487 189.679 195.631 189.439 195.681C189.199 195.731 188.949 195.684 188.744 195.55C187.98 195.052 187.2 194.541 186.425 194.015C186.221 193.879 186.08 193.667 186.033 193.427C185.986 193.187 186.036 192.938 186.172 192.734C186.309 192.531 186.52 192.39 186.761 192.343C187.001 192.295 187.25 192.345 187.454 192.482L187.456 192.482Z" fill="#1F6FA9"/>
<path d="M129.866 141.185C130.481 141.876 131.096 142.562 131.712 143.243C131.876 143.425 131.961 143.665 131.949 143.909C131.936 144.154 131.827 144.383 131.645 144.547C131.463 144.711 131.223 144.796 130.979 144.784C130.734 144.771 130.504 144.662 130.34 144.48C129.722 143.797 129.104 143.108 128.485 142.414C128.338 142.23 128.268 141.996 128.287 141.762C128.307 141.528 128.415 141.309 128.59 141.152C128.765 140.995 128.994 140.911 129.229 140.916C129.464 140.922 129.688 141.017 129.855 141.183L129.866 141.185Z" fill="#1F6FA9"/>
<path d="M171.848 181.105C172.581 181.679 173.315 182.251 174.026 182.803C174.193 182.931 174.312 183.113 174.361 183.318C174.411 183.524 174.388 183.74 174.298 183.93C174.207 184.121 174.054 184.275 173.863 184.366C173.673 184.458 173.457 184.481 173.252 184.432C173.123 184.403 173.003 184.346 172.898 184.265C172.176 183.709 171.428 183.132 170.696 182.554C170.6 182.479 170.521 182.386 170.462 182.28C170.402 182.174 170.364 182.058 170.35 181.938C170.336 181.817 170.345 181.695 170.378 181.579C170.411 181.462 170.466 181.353 170.541 181.257C170.616 181.162 170.709 181.083 170.815 181.023C170.921 180.964 171.037 180.926 171.158 180.912C171.278 180.897 171.4 180.907 171.517 180.94C171.633 180.973 171.742 181.028 171.838 181.103L171.848 181.105Z" fill="#1F6FA9"/>
<path d="M179.551 186.946C180.292 187.489 181.052 188.035 181.792 188.552C181.967 188.675 182.094 188.856 182.15 189.063C182.207 189.27 182.189 189.49 182.101 189.686C182.013 189.881 181.859 190.04 181.666 190.134C181.473 190.229 181.254 190.253 181.045 190.203C180.928 190.175 180.818 190.125 180.72 190.056C179.976 189.525 179.217 188.977 178.465 188.429C178.354 188.364 178.259 188.275 178.184 188.171C178.11 188.066 178.058 187.946 178.033 187.82C178.007 187.695 178.008 187.565 178.036 187.439C178.064 187.313 178.117 187.195 178.193 187.091C178.269 186.988 178.366 186.901 178.477 186.837C178.589 186.773 178.712 186.733 178.84 186.719C178.968 186.706 179.097 186.719 179.22 186.759C179.342 186.798 179.455 186.863 179.551 186.948L179.551 186.946Z" fill="#1F6FA9"/>
<path d="M78.6179 70.9307C79.0967 71.7228 79.5759 72.5107 80.0553 73.2943C80.1726 73.503 80.2045 73.7491 80.1441 73.9808C80.0837 74.2125 79.9358 74.4117 79.7315 74.5366C79.5272 74.6615 79.2824 74.7022 79.0487 74.6502C78.8149 74.5983 78.6104 74.4576 78.4783 74.258C77.9985 73.47 77.5184 72.6797 77.0382 71.8873C76.9754 71.7836 76.9337 71.6685 76.9153 71.5486C76.897 71.4288 76.9024 71.3065 76.9314 71.1887C76.9603 71.0709 77.0121 70.96 77.0839 70.8623C77.1557 70.7646 77.2461 70.682 77.3498 70.6192C77.4535 70.5563 77.5686 70.5146 77.6884 70.4962C77.8083 70.4779 77.9306 70.4834 78.0484 70.5123C78.1661 70.5412 78.277 70.5931 78.3747 70.6648C78.4725 70.7366 78.5551 70.827 78.6179 70.9307Z" fill="#1F6FA9"/>
<path d="M203.946 202.506C204.754 202.946 205.574 203.384 206.377 203.807C206.576 203.912 206.73 204.085 206.81 204.295C206.891 204.505 206.892 204.736 206.813 204.947C206.735 205.157 206.582 205.332 206.384 205.438C206.186 205.544 205.956 205.574 205.737 205.522C205.66 205.505 205.587 205.478 205.517 205.441C204.706 205.016 203.88 204.572 203.062 204.128C202.847 204.01 202.687 203.813 202.618 203.578C202.549 203.343 202.576 203.09 202.693 202.875C202.811 202.66 203.009 202.5 203.244 202.431C203.479 202.362 203.731 202.389 203.946 202.506Z" fill="#1F6FA9"/>
<path d="M94.2924 95.3655C94.8152 96.1303 95.3369 96.8905 95.8574 97.6461C95.9965 97.8477 96.0497 98.0964 96.0054 98.3373C95.9611 98.5782 95.8229 98.7916 95.6212 98.9306C95.4195 99.0696 95.1709 99.1229 94.93 99.0786C94.6891 99.0342 94.4756 98.8961 94.3366 98.6944C93.8126 97.9351 93.2893 97.1724 92.7668 96.4062C92.6985 96.306 92.6506 96.1934 92.6258 96.0747C92.601 95.956 92.5998 95.8336 92.6223 95.7144C92.6448 95.5953 92.6906 95.4817 92.757 95.3803C92.8234 95.2788 92.9091 95.1914 93.0093 95.1231C93.1094 95.0547 93.2221 95.0068 93.3408 94.982C93.4595 94.9572 93.5819 94.956 93.701 94.9785C93.8202 95.001 93.9337 95.0468 94.0352 95.1132C94.1367 95.1796 94.2241 95.2653 94.2924 95.3655Z" fill="#1F6FA9"/>
<path d="M88.9221 87.3174C89.4299 88.0903 89.9374 88.8587 90.4445 89.6228C90.5464 89.777 90.5997 89.9581 90.5976 90.1429C90.5955 90.3277 90.538 90.5076 90.4327 90.6595C90.3273 90.8113 90.1789 90.9281 90.0066 90.9948C89.8342 91.0615 89.6458 91.075 89.4657 91.0336C89.236 90.9803 89.0356 90.8405 88.9063 90.6432C88.3961 89.8741 87.8875 89.1011 87.3806 88.3241C87.3028 88.2236 87.2466 88.1081 87.2155 87.9849C87.1844 87.8617 87.1791 87.7334 87.1999 87.608C87.2207 87.4826 87.2672 87.3629 87.3365 87.2564C87.4057 87.1498 87.4963 87.0587 87.6024 86.9888C87.7085 86.9189 87.8279 86.8716 87.9532 86.85C88.0784 86.8284 88.2067 86.8329 88.3302 86.8632C88.4536 86.8936 88.5694 86.9491 88.6704 87.0263C88.7713 87.1035 88.8552 87.2007 88.9168 87.3119L88.9221 87.3174Z" fill="#1F6FA9"/>
<path d="M292.8 149.927C292.984 149.765 293.225 149.683 293.469 149.699C293.713 149.715 293.941 149.827 294.103 150.011C294.264 150.195 294.346 150.435 294.33 150.68C294.315 150.924 294.202 151.152 294.018 151.314C293.353 151.9 292.707 152.525 292.098 153.177C292.015 153.266 291.916 153.337 291.805 153.387C291.695 153.438 291.576 153.466 291.455 153.47C291.333 153.474 291.213 153.454 291.099 153.412C290.986 153.369 290.882 153.305 290.793 153.222C290.704 153.139 290.633 153.04 290.583 152.93C290.532 152.819 290.504 152.7 290.5 152.579C290.496 152.458 290.516 152.337 290.558 152.224C290.601 152.11 290.665 152.006 290.748 151.918C291.398 151.221 292.089 150.552 292.8 149.927Z" fill="#1F6FA9"/>
<path d="M105.496 111.153C106.047 111.894 106.597 112.633 107.148 113.37C107.295 113.565 107.358 113.811 107.324 114.054C107.289 114.296 107.16 114.515 106.964 114.662C106.768 114.809 106.522 114.872 106.28 114.838C106.038 114.803 105.819 114.674 105.672 114.478C105.121 113.74 104.571 112.999 104.022 112.254C103.95 112.156 103.898 112.045 103.869 111.928C103.839 111.81 103.833 111.688 103.851 111.568C103.869 111.448 103.911 111.333 103.973 111.229C104.036 111.125 104.118 111.034 104.215 110.962C104.313 110.89 104.424 110.838 104.541 110.809C104.659 110.78 104.781 110.774 104.901 110.792C105.021 110.81 105.136 110.851 105.24 110.913C105.344 110.976 105.435 111.058 105.507 111.156L105.496 111.153Z" fill="#1F6FA9"/>
<path d="M117.341 126.438C117.925 127.152 118.507 127.865 119.089 128.579C119.231 128.769 119.294 129.008 119.265 129.244C119.236 129.48 119.118 129.696 118.934 129.846C118.75 129.997 118.515 130.071 118.278 130.054C118.041 130.036 117.82 129.927 117.66 129.751C117.077 129.037 116.491 128.322 115.905 127.608C115.763 127.416 115.701 127.178 115.731 126.941C115.761 126.705 115.881 126.49 116.066 126.34C116.251 126.19 116.487 126.117 116.724 126.136C116.961 126.156 117.182 126.266 117.34 126.444L117.341 126.438Z" fill="#1F6FA9"/>
<path d="M99.8192 103.311C100.355 104.065 100.89 104.814 101.426 105.561C101.536 105.713 101.596 105.895 101.6 106.083C101.603 106.271 101.549 106.455 101.445 106.611C101.34 106.768 101.191 106.888 101.016 106.957C100.842 107.026 100.65 107.04 100.467 106.998C100.249 106.948 100.057 106.82 99.9269 106.638C99.3876 105.888 98.8498 105.135 98.3135 104.378C98.2435 104.28 98.1936 104.168 98.1667 104.05C98.1398 103.932 98.1364 103.809 98.1568 103.69C98.1771 103.57 98.2208 103.456 98.2854 103.354C98.3499 103.251 98.434 103.162 98.5328 103.092C98.6317 103.022 98.7434 102.972 98.8615 102.945C98.9797 102.918 99.102 102.915 99.2214 102.935C99.3409 102.956 99.4552 102.999 99.5577 103.064C99.6603 103.128 99.7491 103.213 99.8192 103.311Z" fill="#1F6FA9"/>
<path d="M111.339 118.854C111.906 119.586 112.472 120.313 113.038 121.036C113.113 121.131 113.168 121.24 113.201 121.357C113.233 121.474 113.243 121.596 113.228 121.716C113.214 121.837 113.175 121.953 113.116 122.059C113.056 122.165 112.977 122.258 112.881 122.332C112.786 122.407 112.677 122.463 112.56 122.495C112.443 122.528 112.321 122.537 112.201 122.523C112.08 122.508 111.964 122.47 111.858 122.41C111.752 122.351 111.66 122.271 111.585 122.176C111.017 121.45 110.448 120.72 109.879 119.986C109.742 119.791 109.686 119.552 109.721 119.316C109.756 119.081 109.881 118.869 110.069 118.723C110.257 118.577 110.494 118.51 110.73 118.534C110.967 118.558 111.185 118.673 111.339 118.854Z" fill="#1F6FA9"/>
<path d="M123.519 133.887C124.118 134.592 124.717 135.292 125.315 135.988C125.394 136.079 125.454 136.186 125.492 136.301C125.53 136.416 125.545 136.538 125.536 136.659C125.527 136.779 125.494 136.897 125.439 137.006C125.385 137.114 125.309 137.21 125.218 137.289C125.126 137.368 125.019 137.429 124.904 137.467C124.789 137.504 124.667 137.519 124.547 137.51C124.426 137.501 124.308 137.469 124.2 137.414C124.091 137.359 123.995 137.284 123.916 137.192C123.313 136.492 122.711 135.789 122.112 135.081C122.025 134.99 121.959 134.882 121.915 134.765C121.872 134.647 121.853 134.521 121.86 134.396C121.867 134.271 121.899 134.148 121.955 134.036C122.011 133.923 122.09 133.823 122.185 133.742C122.281 133.661 122.393 133.601 122.513 133.564C122.633 133.527 122.759 133.516 122.884 133.53C123.009 133.544 123.129 133.583 123.238 133.645C123.347 133.707 123.443 133.791 123.518 133.891L123.519 133.887Z" fill="#1F6FA9"/>
<path d="M83.695 79.1705C84.1863 79.9525 84.6791 80.7312 85.1734 81.5067C85.2946 81.7133 85.3309 81.9589 85.2747 82.1917C85.2185 82.4245 85.0741 82.6264 84.872 82.7549C84.6699 82.8834 84.4257 82.9285 84.1911 82.8806C83.9564 82.8328 83.7494 82.6957 83.6138 82.4983C83.1201 81.7201 82.6266 80.9383 82.1332 80.1529C82.0682 80.0503 82.024 79.9359 82.0033 79.8163C81.9826 79.6966 81.9857 79.5741 82.0124 79.4556C82.0392 79.3372 82.0891 79.2252 82.1592 79.126C82.2293 79.0269 82.3183 78.9426 82.4211 78.8779C82.5239 78.8133 82.6385 78.7695 82.7582 78.7492C82.8779 78.729 83.0005 78.7325 83.1188 78.7597C83.2372 78.7869 83.349 78.8371 83.4479 78.9076C83.5467 78.9781 83.6308 79.0674 83.695 79.1705Z" fill="#1F6FA9"/>
<path d="M258.645 218.98C259.565 218.978 260.483 218.953 261.374 218.909C261.612 218.907 261.842 218.998 262.016 219.162C262.189 219.326 262.292 219.551 262.304 219.789C262.315 220.028 262.234 220.261 262.077 220.441C261.92 220.621 261.7 220.733 261.462 220.754C260.546 220.799 259.6 220.822 258.653 220.827C258.582 220.827 258.511 220.819 258.442 220.803C258.22 220.753 258.025 220.623 257.893 220.438C257.762 220.252 257.703 220.025 257.729 219.799C257.755 219.574 257.863 219.365 258.033 219.214C258.203 219.063 258.422 218.98 258.65 218.981L258.645 218.98Z" fill="#1F6FA9"/>
<path d="M279.438 130.512C280.191 131.117 280.902 131.77 281.568 132.469C281.701 132.614 281.785 132.798 281.807 132.993C281.829 133.188 281.788 133.386 281.69 133.556C281.592 133.727 281.442 133.862 281.262 133.941C281.082 134.021 280.882 134.041 280.69 133.999C280.514 133.959 280.354 133.867 280.231 133.736C279.623 133.097 278.972 132.5 278.284 131.948C278.19 131.872 278.111 131.778 278.053 131.672C277.994 131.565 277.957 131.449 277.944 131.328C277.931 131.208 277.941 131.086 277.975 130.969C278.009 130.853 278.065 130.744 278.141 130.649C278.217 130.555 278.311 130.476 278.417 130.418C278.523 130.359 278.64 130.322 278.761 130.309C278.881 130.296 279.003 130.306 279.12 130.34C279.236 130.374 279.345 130.43 279.439 130.506L279.438 130.512Z" fill="#1F6FA9"/>
<path d="M250.365 208.889C250.782 209.695 251.218 210.512 251.658 211.314C251.716 211.42 251.753 211.537 251.766 211.658C251.779 211.778 251.768 211.9 251.734 212.017C251.7 212.133 251.643 212.241 251.567 212.336C251.491 212.43 251.398 212.509 251.291 212.567C251.185 212.625 251.068 212.662 250.948 212.675C250.827 212.688 250.705 212.677 250.589 212.643C250.472 212.609 250.364 212.553 250.269 212.477C250.175 212.401 250.096 212.307 250.038 212.201C249.59 211.387 249.15 210.559 248.728 209.728C248.615 209.511 248.594 209.257 248.668 209.024C248.742 208.791 248.905 208.596 249.123 208.484C249.34 208.371 249.593 208.349 249.827 208.423C250.06 208.497 250.255 208.661 250.367 208.878L250.365 208.889Z" fill="#1F6FA9"/>
<path d="M249.096 218.369C250.008 218.484 250.927 218.579 251.819 218.667C252.055 218.7 252.269 218.822 252.417 219.008C252.565 219.195 252.635 219.431 252.613 219.669C252.591 219.906 252.479 220.125 252.299 220.281C252.119 220.437 251.886 220.518 251.648 220.507C250.734 220.422 249.798 220.319 248.865 220.201L248.772 220.18C248.54 220.128 248.337 219.988 248.206 219.79C248.074 219.592 248.024 219.351 248.066 219.117C248.108 218.883 248.239 218.674 248.431 218.534C248.623 218.394 248.862 218.334 249.097 218.365L249.096 218.369Z" fill="#1F6FA9"/>
<path d="M260.61 225.162C261.159 225.893 261.726 226.625 262.294 227.341C262.369 227.435 262.425 227.544 262.458 227.661C262.492 227.778 262.502 227.9 262.488 228.02C262.474 228.141 262.437 228.257 262.378 228.363C262.319 228.469 262.24 228.562 262.145 228.638C262.05 228.713 261.941 228.769 261.824 228.802C261.708 228.836 261.586 228.846 261.465 228.832C261.345 228.818 261.228 228.781 261.122 228.722C261.016 228.663 260.923 228.584 260.847 228.489C260.271 227.763 259.694 227.017 259.135 226.273C258.988 226.078 258.924 225.832 258.958 225.589C258.992 225.347 259.121 225.128 259.317 224.98C259.414 224.907 259.524 224.854 259.641 224.824C259.759 224.794 259.881 224.787 260.001 224.804C260.243 224.838 260.462 224.967 260.61 225.162Z" fill="#1F6FA9"/>
<path d="M255.142 217.239C255.632 218.003 256.131 218.791 256.633 219.55C256.768 219.754 256.817 220.003 256.768 220.243C256.72 220.483 256.578 220.694 256.374 220.829C256.17 220.964 255.92 221.013 255.68 220.965C255.441 220.916 255.23 220.774 255.094 220.57C254.582 219.801 254.073 219.008 253.578 218.221C253.448 218.013 253.405 217.763 253.46 217.524C253.514 217.285 253.662 217.078 253.869 216.948C254.076 216.818 254.327 216.775 254.566 216.83C254.804 216.884 255.012 217.031 255.142 217.239Z" fill="#1F6FA9"/>
<path d="M285.962 161.537C285.82 161.584 285.668 161.595 285.521 161.569L285.472 161.557C285.241 161.504 285.041 161.363 284.911 161.166C284.781 160.968 284.732 160.728 284.774 160.495C284.944 159.531 285.09 158.646 285.217 157.781C285.355 157.424 285.619 157.131 285.96 156.958C286.3 156.784 286.693 156.743 287.062 156.842C287.431 156.941 287.75 157.173 287.959 157.493C288.167 157.813 288.25 158.2 288.19 158.577C287.763 159.359 287.377 160.163 287.034 160.985C286.95 161.186 286.797 161.351 286.603 161.451C286.409 161.551 286.185 161.578 285.973 161.529L285.962 161.537Z" fill="#1F6FA9"/>
<path d="M266.724 232.581C267.336 233.257 267.965 233.935 268.594 234.593C268.763 234.77 268.855 235.007 268.85 235.252C268.844 235.497 268.742 235.729 268.564 235.898C268.387 236.067 268.15 236.159 267.905 236.154C267.661 236.148 267.428 236.046 267.259 235.868C266.62 235.197 265.978 234.51 265.351 233.82C265.27 233.73 265.207 233.625 265.167 233.511C265.126 233.396 265.108 233.275 265.114 233.154C265.121 233.032 265.151 232.914 265.203 232.804C265.255 232.694 265.328 232.596 265.418 232.515C265.508 232.433 265.613 232.371 265.728 232.33C265.842 232.289 265.963 232.271 266.085 232.278C266.206 232.284 266.325 232.314 266.434 232.366C266.544 232.418 266.642 232.491 266.724 232.581Z" fill="#1F6FA9"/>
<path d="M284.359 137.988C284.583 137.889 284.837 137.883 285.065 137.97C285.294 138.058 285.478 138.233 285.578 138.456C285.97 139.339 286.3 140.248 286.566 141.177C286.62 141.408 286.583 141.652 286.462 141.856C286.341 142.061 286.146 142.211 285.918 142.276C285.689 142.341 285.444 142.315 285.234 142.204C285.024 142.093 284.864 141.905 284.789 141.68C284.55 140.833 284.25 140.005 283.892 139.201C283.794 138.978 283.788 138.726 283.875 138.498C283.963 138.271 284.137 138.088 284.359 137.988Z" fill="#1F6FA9"/>
<path d="M268.243 218.438C269.164 218.356 270.085 218.265 270.983 218.168C271.221 218.153 271.455 218.231 271.637 218.384C271.819 218.537 271.935 218.755 271.96 218.992C271.986 219.228 271.919 219.466 271.774 219.654C271.629 219.843 271.417 219.969 271.182 220.005C270.273 220.103 269.339 220.196 268.409 220.278C268.285 220.295 268.159 220.287 268.038 220.254C267.918 220.221 267.805 220.164 267.707 220.086C267.609 220.008 267.528 219.911 267.468 219.801C267.409 219.691 267.373 219.57 267.361 219.445C267.35 219.32 267.364 219.195 267.403 219.076C267.442 218.957 267.504 218.847 267.587 218.753C267.669 218.659 267.77 218.582 267.883 218.528C267.996 218.474 268.118 218.444 268.243 218.438Z" fill="#1F6FA9"/>
<path d="M239.657 216.657C240.553 216.865 241.452 217.075 242.338 217.244L242.362 217.25C242.602 217.302 242.81 217.447 242.942 217.653C243.074 217.859 243.119 218.109 243.067 218.348C243.015 218.587 242.87 218.796 242.664 218.928C242.458 219.06 242.208 219.105 241.969 219.053C241.071 218.87 240.153 218.669 239.24 218.456C239.011 218.391 238.816 218.241 238.696 218.036C238.575 217.832 238.538 217.588 238.592 217.357C238.646 217.126 238.786 216.924 238.985 216.794C239.184 216.663 239.425 216.614 239.659 216.657L239.657 216.657Z" fill="#1F6FA9"/>
<path d="M238.124 152.973C238.17 152.733 238.309 152.52 238.512 152.382C238.714 152.245 238.963 152.193 239.204 152.238C239.444 152.284 239.657 152.424 239.795 152.626C239.933 152.828 239.984 153.077 239.939 153.318C239.77 154.202 239.617 155.107 239.49 156.007C239.473 156.128 239.432 156.244 239.37 156.349C239.308 156.453 239.226 156.545 239.128 156.617C239.031 156.69 238.92 156.743 238.802 156.773C238.684 156.802 238.561 156.808 238.441 156.791L238.363 156.772C238.137 156.72 237.94 156.585 237.81 156.394C237.679 156.203 237.625 155.97 237.658 155.741C237.795 154.817 237.949 153.884 238.124 152.973Z" fill="#1F6FA9"/>
<path d="M237.999 161.849C238.12 161.853 238.239 161.881 238.349 161.931C238.459 161.981 238.559 162.053 238.641 162.142C238.724 162.23 238.788 162.335 238.831 162.448C238.873 162.562 238.893 162.682 238.888 162.804C238.854 163.704 238.84 164.622 238.844 165.537C238.844 165.658 238.82 165.779 238.774 165.891C238.728 166.003 238.66 166.104 238.575 166.19C238.489 166.276 238.388 166.344 238.276 166.391C238.164 166.438 238.044 166.462 237.923 166.462C237.802 166.462 237.681 166.439 237.569 166.392C237.457 166.346 237.356 166.279 237.27 166.193C237.184 166.108 237.116 166.006 237.069 165.894C237.022 165.782 236.998 165.662 236.998 165.541C237 164.603 237.003 163.657 237.043 162.734C237.052 162.49 237.159 162.259 237.338 162.093C237.517 161.928 237.755 161.84 237.999 161.849Z" fill="#1F6FA9"/>
<path d="M221.35 210.779C222.202 211.123 223.064 211.462 223.912 211.785C224.127 211.871 224.303 212.035 224.403 212.244C224.504 212.453 224.522 212.692 224.454 212.914C224.386 213.136 224.237 213.324 224.037 213.442C223.837 213.559 223.6 213.597 223.374 213.548C223.332 213.541 223.291 213.532 223.25 213.519C222.392 213.191 221.519 212.847 220.657 212.499C220.544 212.454 220.442 212.387 220.356 212.302C220.269 212.217 220.2 212.116 220.153 212.004C220.105 211.892 220.08 211.773 220.079 211.651C220.078 211.53 220.101 211.41 220.147 211.297C220.192 211.185 220.259 211.083 220.344 210.996C220.429 210.91 220.53 210.841 220.642 210.794C220.753 210.746 220.873 210.721 220.994 210.72C221.115 210.719 221.236 210.742 221.348 210.787L221.35 210.779Z" fill="#1F6FA9"/>
<path d="M238.175 171.527C238.296 171.515 238.418 171.528 238.534 171.563C238.649 171.599 238.757 171.657 238.851 171.734C238.944 171.812 239.021 171.907 239.078 172.014C239.134 172.121 239.169 172.239 239.18 172.359C239.263 173.259 239.364 174.175 239.48 175.082C239.511 175.326 239.444 175.571 239.294 175.765C239.144 175.959 238.923 176.085 238.68 176.116C238.572 176.13 238.461 176.124 238.355 176.099C238.171 176.056 238.006 175.958 237.879 175.818C237.753 175.678 237.673 175.504 237.648 175.317C237.531 174.388 237.432 173.452 237.341 172.531C237.319 172.288 237.394 172.045 237.55 171.857C237.707 171.669 237.931 171.55 238.175 171.527Z" fill="#1F6FA9"/>
<path d="M245.702 203.444C245.327 202.598 244.958 201.734 244.604 200.882C244.51 200.656 244.51 200.402 244.603 200.175C244.697 199.949 244.876 199.769 245.103 199.675C245.329 199.581 245.583 199.581 245.809 199.674C246.036 199.768 246.216 199.948 246.31 200.174C246.658 201.014 247.023 201.857 247.392 202.695C247.489 202.919 247.493 203.173 247.404 203.4C247.315 203.628 247.14 203.81 246.916 203.909C246.733 203.991 246.528 204.01 246.333 203.964C246.195 203.932 246.066 203.868 245.957 203.778C245.848 203.688 245.76 203.574 245.702 203.444Z" fill="#1F6FA9"/>
<path d="M212.533 206.895C213.36 207.289 214.201 207.68 215.028 208.059C215.237 208.152 215.405 208.321 215.497 208.532C215.589 208.743 215.599 208.98 215.525 209.198C215.451 209.415 215.298 209.598 215.097 209.709C214.895 209.82 214.66 209.852 214.436 209.798C214.376 209.784 214.317 209.764 214.261 209.738C213.425 209.357 212.574 208.959 211.737 208.56C211.628 208.508 211.53 208.435 211.449 208.345C211.368 208.255 211.305 208.15 211.265 208.035C211.224 207.921 211.207 207.8 211.213 207.679C211.22 207.558 211.25 207.439 211.302 207.33C211.354 207.22 211.428 207.122 211.518 207.041C211.608 206.96 211.713 206.898 211.827 206.857C211.941 206.817 212.063 206.799 212.184 206.806C212.305 206.812 212.423 206.842 212.533 206.895Z" fill="#1F6FA9"/>
<path d="M252.077 131.603C251.976 131.674 251.862 131.724 251.742 131.75C251.621 131.776 251.496 131.778 251.375 131.755C251.254 131.733 251.138 131.686 251.035 131.617C250.933 131.549 250.845 131.461 250.776 131.358C250.708 131.255 250.661 131.14 250.639 131.018C250.616 130.897 250.618 130.772 250.644 130.652C250.671 130.531 250.721 130.417 250.792 130.316C250.863 130.216 250.954 130.13 251.059 130.065C251.859 129.536 252.691 129.055 253.549 128.625C253.657 128.57 253.775 128.538 253.896 128.529C254.017 128.52 254.139 128.536 254.254 128.574C254.369 128.612 254.475 128.673 254.567 128.752C254.659 128.832 254.734 128.928 254.788 129.037C254.842 129.145 254.875 129.263 254.884 129.384C254.892 129.505 254.877 129.627 254.839 129.742C254.8 129.857 254.74 129.963 254.661 130.055C254.581 130.147 254.484 130.222 254.376 130.276C253.584 130.672 252.816 131.115 252.077 131.603Z" fill="#1F6FA9"/>
<path d="M230.396 214.073C231.27 214.357 232.153 214.632 233.023 214.891C233.26 214.954 233.462 215.108 233.584 215.32C233.707 215.532 233.741 215.784 233.678 216.02C233.615 216.257 233.461 216.459 233.249 216.582C233.038 216.704 232.786 216.738 232.549 216.675L232.494 216.662C231.612 216.399 230.717 216.121 229.829 215.825C229.606 215.742 229.424 215.576 229.321 215.361C229.217 215.147 229.2 214.901 229.274 214.674C229.347 214.448 229.505 214.258 229.715 214.145C229.924 214.032 230.17 214.005 230.399 214.068L230.396 214.073Z" fill="#1F6FA9"/>
<path d="M240.104 185.632C239.937 185.593 239.783 185.508 239.662 185.387C239.54 185.266 239.454 185.114 239.414 184.947C239.194 184.028 238.993 183.114 238.808 182.204C238.784 182.086 238.783 181.963 238.805 181.844C238.828 181.725 238.874 181.612 238.941 181.51C239.007 181.409 239.093 181.322 239.193 181.253C239.294 181.185 239.406 181.138 239.525 181.113C239.644 181.088 239.766 181.087 239.885 181.11C240.004 181.133 240.118 181.179 240.219 181.245C240.321 181.312 240.408 181.398 240.476 181.498C240.544 181.598 240.592 181.711 240.616 181.83C240.801 182.714 241 183.617 241.213 184.509C241.241 184.628 241.245 184.75 241.225 184.87C241.205 184.99 241.162 185.104 241.097 185.207C241.033 185.311 240.949 185.4 240.85 185.47C240.751 185.541 240.639 185.591 240.521 185.618C240.385 185.654 240.242 185.659 240.104 185.632Z" fill="#1F6FA9"/>
<path d="M45.5954 0.226903C45.8282 0.245297 46.0491 0.337737 46.2255 0.49067L99.6395 46.19C99.7817 46.3118 99.8698 46.485 99.8844 46.6717C99.8991 46.8584 99.8391 47.0432 99.7176 47.1857C99.6115 47.307 99.4679 47.3895 99.3097 47.4202L81.8949 50.7351L56.1099 15.1801C55.7437 14.6698 55.1996 14.3153 54.5849 14.1863C53.9702 14.0572 53.3295 14.1632 52.789 14.4832C52.2485 14.8031 51.8475 15.314 51.665 15.915C51.4825 16.5159 51.5318 17.1635 51.8031 17.73L68.6176 53.2424L59.732 54.9299L59.6891 54.9373L40.8666 58.5074C40.736 58.5317 40.6019 58.5301 40.4719 58.5025C40.342 58.4749 40.2187 58.422 40.1092 58.3468C39.9997 58.2716 39.9061 58.1755 39.8338 58.0641C39.7614 57.9527 39.7116 57.8281 39.6874 57.6975C39.6681 57.6088 39.663 57.5176 39.6723 57.4273L44.3992 1.24026C44.4112 1.09517 44.4516 0.953857 44.5182 0.824398C44.5848 0.69494 44.6763 0.579874 44.7874 0.485769C44.8985 0.391665 45.027 0.320375 45.1657 0.275957C45.3043 0.23154 45.4503 0.214868 45.5954 0.226903Z" fill="#1F6FA9"/>
<path d="M66.6125 64.153L61.946 56.9927L68.7451 55.7017L66.6125 64.153Z" fill="#1F6FA9"/>
<path d="M54.101 16.5698L79.7791 51.9699L69.4336 62.9524L71.5782 54.4497C71.5805 54.4465 71.5822 54.4428 71.5831 54.4389C71.584 54.435 71.5841 54.431 71.5834 54.4271C71.5891 54.3847 71.5925 54.3421 71.5936 54.2994C71.6084 54.1895 71.6088 54.0781 71.5949 53.9681C71.5969 53.9519 71.6006 53.9361 71.6059 53.9208C71.5961 53.8794 71.5705 53.8497 71.5622 53.8109C71.5504 53.747 71.5331 53.6842 71.5105 53.6233L54.0199 16.6853C54.0168 16.6595 54.0233 16.6334 54.0383 16.612C54.0533 16.5907 54.0756 16.5757 54.101 16.5698Z" fill="#1F6FA9"/>
</svg>
